<svg width="16" height="16" viewBox="0 0 16 16" fill="none" xmlns="http://www.w3.org/2000/svg">
<g clip-path="url(#clip0_655_8832)">
<path fill-rule="evenodd" clip-rule="evenodd" d="M4.81086 10.6686C4.70419 10.6686 4.59686 10.6346 4.50619 10.5652C4.28752 10.3966 4.24619 10.0826 4.41486 9.86391L6.41019 7.27058C6.49152 7.16458 6.61219 7.09591 6.74419 7.07925C6.87886 7.06191 7.01086 7.09925 7.11553 7.18258L8.99552 8.65925L10.6402 6.53725C10.8095 6.31791 11.1229 6.27725 11.3415 6.44791C11.5602 6.61725 11.6002 6.93125 11.4309 7.14925L9.47752 9.66925C9.39619 9.77458 9.27619 9.84325 9.14419 9.85925C9.01086 9.87725 8.87886 9.83858 8.77353 9.75658L6.89486 8.28058L5.20752 10.4732C5.10886 10.6012 4.96086 10.6686 4.81086 10.6686Z" fill="white"/>
<mask id="mask0_655_8832" style="mask-type:luminance" maskUnits="userSpaceOnUse" x="11" y="1" width="5" height="4">
<path fill-rule="evenodd" clip-rule="evenodd" d="M11.5303 1.3335H15.0929V4.89676H11.5303V1.3335Z" fill="white"/>
</mask>
<g mask="url(#mask0_655_8832)">
<path fill-rule="evenodd" clip-rule="evenodd" d="M13.3116 2.33301C12.8809 2.33301 12.5303 2.68301 12.5303 3.11434C12.5303 3.54501 12.8809 3.89634 13.3116 3.89634C13.7423 3.89634 14.0929 3.54501 14.0929 3.11434C14.0929 2.68301 13.7423 2.33301 13.3116 2.33301ZM13.3116 4.89634C12.3296 4.89634 11.5303 4.09701 11.5303 3.11434C11.5303 2.13167 12.3296 1.33301 13.3116 1.33301C14.2943 1.33301 15.0929 2.13167 15.0929 3.11434C15.0929 4.09701 14.2943 4.89634 13.3116 4.89634Z" fill="white"/>
</g>
<mask id="mask1_655_8832" style="mask-type:luminance" maskUnits="userSpaceOnUse" x="1" y="1" width="14" height="15">
<path fill-rule="evenodd" clip-rule="evenodd" d="M1.3335 1.89453H14.5748V15.1352H1.3335V1.89453Z" fill="white"/>
</mask>
<g mask="url(#mask1_655_8832)">
<path fill-rule="evenodd" clip-rule="evenodd" d="M10.8222 15.1352H5.08616C2.8415 15.1352 1.3335 13.5585 1.3335 11.2119V5.82386C1.3335 3.47386 2.8415 1.89453 5.08616 1.89453H9.9315C10.2075 1.89453 10.4315 2.11853 10.4315 2.39453C10.4315 2.67053 10.2075 2.89453 9.9315 2.89453H5.08616C3.41416 2.89453 2.3335 4.04386 2.3335 5.82386V11.2119C2.3335 13.0152 3.38816 14.1352 5.08616 14.1352H10.8222C12.4942 14.1352 13.5748 12.9879 13.5748 11.2119V6.5192C13.5748 6.2432 13.7988 6.0192 14.0748 6.0192C14.3508 6.0192 14.5748 6.2432 14.5748 6.5192V11.2119C14.5748 13.5585 13.0668 15.1352 10.8222 15.1352Z" fill="white"/>
</g>
</g>
<defs>
<clipPath id="clip0_655_8832">
<rect width="16" height="16" fill="white"/>
</clipPath>
</defs>
</svg>
