<svg width="16" height="16" viewBox="0 0 16 16" fill="none" xmlns="http://www.w3.org/2000/svg">
<path d="M8 6.66667C8.30642 6.66667 8.60983 6.60631 8.89293 6.48905C9.17602 6.37179 9.43325 6.19992 9.64992 5.98325C9.86659 5.76658 10.0385 5.50935 10.1557 5.22626C10.273 4.94317 10.3333 4.63975 10.3333 4.33333C10.3333 4.02692 10.273 3.7235 10.1557 3.44041C10.0385 3.15731 9.86659 2.90009 9.64992 2.68342C9.43325 2.46675 9.17602 2.29488 8.89293 2.17761C8.60983 2.06035 8.30642 2 8 2C7.38116 2 6.78767 2.24583 6.35008 2.68342C5.9125 3.121 5.66667 3.71449 5.66667 4.33333C5.66667 4.95217 5.9125 5.54566 6.35008 5.98325C6.78767 6.42083 7.38116 6.66667 8 6.66667ZM2 13.6V14H14V13.6C14 12.1067 14 11.36 13.7093 10.7893C13.4537 10.2876 13.0457 9.87966 12.544 9.624C11.9733 9.33333 11.2267 9.33333 9.73333 9.33333H6.26667C4.77333 9.33333 4.02667 9.33333 3.456 9.624C2.95426 9.87966 2.54633 10.2876 2.29067 10.7893C2 11.36 2 12.1067 2 13.6Z" stroke="white" stroke-linecap="round" stroke-linejoin="round"/>
</svg>
