<svg width="16" height="16" viewBox="0 0 16 16" fill="none" xmlns="http://www.w3.org/2000/svg">
<g clip-path="url(#clip0_655_8819)">
<path d="M6.52558 4.92553C4.33129 3.42838 2.28557 4.57124 0.571289 6.33124L4.36557 8.61695M11.0741 9.4741C12.5713 11.6684 11.4284 13.7141 9.66843 15.4284L7.38272 11.6341" stroke="white" stroke-linecap="round" stroke-linejoin="round"/>
<path d="M6.03429 5.73704L10.2629 9.96561M4.36572 8.60561L7.39429 11.6342C9.81715 10.1828 12.5714 8.77704 13.8286 7.47419C16.5486 4.75418 14.9714 1.02847 14.9714 1.02847C14.9714 1.02847 11.2457 -0.548673 8.52572 2.17133C7.22287 3.42847 5.80572 6.19419 4.36572 8.60561Z" stroke="white" stroke-linecap="round" stroke-linejoin="round"/>
<path d="M11.9999 4.57157C12.1514 4.57157 12.2968 4.51136 12.4039 4.4042C12.5111 4.29704 12.5713 4.15169 12.5713 4.00014C12.5713 3.84859 12.5111 3.70324 12.4039 3.59608C12.2968 3.48891 12.1514 3.42871 11.9999 3.42871C11.8483 3.42871 11.703 3.48891 11.5958 3.59608C11.4886 3.70324 11.4284 3.84859 11.4284 4.00014C11.4284 4.15169 11.4886 4.29704 11.5958 4.4042C11.703 4.51136 11.8483 4.57157 11.9999 4.57157ZM4.20558 14.2173C3.54272 14.8573 0.571289 15.4287 0.571289 15.4287C0.571289 15.4287 1.14272 12.4573 1.78272 11.7944C2.01939 11.5414 2.32713 11.366 2.66543 11.2912C3.00373 11.2165 3.35674 11.2459 3.67798 11.3757C3.99922 11.5055 4.27364 11.7294 4.46512 12.0182C4.65661 12.3069 4.75617 12.6469 4.75072 12.9933C4.74654 13.2233 4.69612 13.45 4.60246 13.6601C4.50881 13.8702 4.37383 14.0604 4.20558 14.2173Z" stroke="white" stroke-linecap="round" stroke-linejoin="round"/>
</g>
<defs>
<clipPath id="clip0_655_8819">
<rect width="16" height="16" fill="white"/>
</clipPath>
</defs>
</svg>
