<svg width="18" height="18" viewBox="0 0 18 18" fill="none" xmlns="http://www.w3.org/2000/svg">
<path d="M6.75225 4.50019C6.75225 3.90405 6.98907 3.33233 7.4106 2.91079C7.83214 2.48926 8.40386 2.25244 9 2.25244C9.59614 2.25244 10.1679 2.48926 10.5894 2.91079C11.0109 3.33233 11.2478 3.90405 11.2478 4.50019C11.2478 5.09633 11.0109 5.66806 10.5894 6.08959C10.1679 6.51113 9.59614 6.74794 9 6.74794C8.40386 6.74794 7.83214 6.51113 7.4106 6.08959C6.98907 5.66806 6.75225 5.09633 6.75225 4.50019ZM9 3.37744C8.85256 3.37744 8.70656 3.40648 8.57034 3.46291C8.43412 3.51933 8.31035 3.60203 8.2061 3.70629C8.10184 3.81054 8.01914 3.93432 7.96271 4.07053C7.90629 4.20675 7.87725 4.35275 7.87725 4.50019C7.87725 4.64763 7.90629 4.79363 7.96271 4.92985C8.01914 5.06607 8.10184 5.18984 8.2061 5.2941C8.31035 5.39835 8.43412 5.48105 8.57034 5.53748C8.70656 5.5939 8.85256 5.62294 9 5.62294C9.29777 5.62294 9.58335 5.50465 9.7939 5.2941C10.0045 5.08354 10.1228 4.79796 10.1228 4.50019C10.1228 4.20242 10.0045 3.91684 9.7939 3.70629C9.58335 3.49573 9.29777 3.37744 9 3.37744ZM12.375 5.06269C12.375 4.84109 12.4186 4.62165 12.5035 4.41691C12.5883 4.21218 12.7126 4.02615 12.8693 3.86945C13.026 3.71275 13.212 3.58845 13.4167 3.50364C13.6215 3.41884 13.8409 3.37519 14.0625 3.37519C14.2841 3.37519 14.5035 3.41884 14.7083 3.50364C14.913 3.58845 15.099 3.71275 15.2557 3.86945C15.4124 4.02615 15.5367 4.21218 15.6215 4.41691C15.7064 4.62165 15.75 4.84109 15.75 5.06269C15.75 5.51024 15.5722 5.93947 15.2557 6.25593C14.9393 6.5724 14.5101 6.75019 14.0625 6.75019C13.6149 6.75019 13.1857 6.5724 12.8693 6.25593C12.5528 5.93947 12.375 5.51024 12.375 5.06269ZM14.0625 4.50019C13.9133 4.50019 13.7702 4.55945 13.6648 4.66494C13.5593 4.77043 13.5 4.91351 13.5 5.06269C13.5 5.21188 13.5593 5.35495 13.6648 5.46044C13.7702 5.56593 13.9133 5.62519 14.0625 5.62519C14.2117 5.62519 14.3548 5.56593 14.4602 5.46044C14.5657 5.35495 14.625 5.21188 14.625 5.06269C14.625 4.91351 14.5657 4.77043 14.4602 4.66494C14.3548 4.55945 14.2117 4.50019 14.0625 4.50019ZM3.9375 3.37519C3.48995 3.37519 3.06073 3.55298 2.74426 3.86945C2.42779 4.18592 2.25 4.61514 2.25 5.06269C2.25 5.51024 2.42779 5.93947 2.74426 6.25593C3.06073 6.5724 3.48995 6.75019 3.9375 6.75019C4.38505 6.75019 4.81428 6.5724 5.13074 6.25593C5.44721 5.93947 5.625 5.51024 5.625 5.06269C5.625 4.61514 5.44721 4.18592 5.13074 3.86945C4.81428 3.55298 4.38505 3.37519 3.9375 3.37519ZM3.375 5.06269C3.375 4.91351 3.43426 4.77043 3.53975 4.66494C3.64524 4.55945 3.78832 4.50019 3.9375 4.50019C4.08668 4.50019 4.22976 4.55945 4.33525 4.66494C4.44074 4.77043 4.5 4.91351 4.5 5.06269C4.5 5.21188 4.44074 5.35495 4.33525 5.46044C4.22976 5.56593 4.08668 5.62519 3.9375 5.62519C3.78832 5.62519 3.64524 5.56593 3.53975 5.46044C3.43426 5.35495 3.375 5.21188 3.375 5.06269ZM4.8015 7.87519C4.604 8.21723 4.50002 8.60523 4.5 9.00019H2.25V11.8127C2.24991 12.0925 2.31941 12.368 2.45224 12.6143C2.58507 12.8606 2.77706 13.07 3.01094 13.2236C3.24481 13.3773 3.51322 13.4703 3.79201 13.4945C4.0708 13.5186 4.35121 13.473 4.608 13.3618C4.69125 13.7342 4.82175 14.0897 4.9905 14.4216C4.56352 14.594 4.10075 14.6589 3.64281 14.6106C3.18488 14.5624 2.7458 14.4025 2.36412 14.1449C1.98245 13.8873 1.66986 13.5399 1.45381 13.1333C1.23775 12.7266 1.12485 12.2732 1.125 11.8127V9.00019C1.125 8.70182 1.24353 8.41568 1.4545 8.2047C1.66548 7.99372 1.95163 7.87519 2.25 7.87519H4.8015ZM13.0095 14.4216C13.4365 14.594 13.8993 14.6589 14.3572 14.6106C14.8151 14.5624 15.2542 14.4025 15.6359 14.1449C16.0176 13.8873 16.3301 13.5399 16.5462 13.1333C16.7622 12.7266 16.8752 12.2732 16.875 11.8127V9.00019C16.875 8.70182 16.7565 8.41568 16.5455 8.2047C16.3345 7.99372 16.0484 7.87519 15.75 7.87519H13.1985C13.3898 8.20594 13.5 8.58957 13.5 9.00019H15.75V11.8127C15.7501 12.0925 15.6806 12.368 15.5478 12.6143C15.4149 12.8606 15.2229 13.07 14.9891 13.2236C14.7552 13.3773 14.4868 13.4703 14.208 13.4945C13.9292 13.5186 13.6488 13.473 13.392 13.3618C13.3065 13.7353 13.179 14.0886 13.0095 14.4216ZM6.75 7.87407C6.45163 7.87407 6.16548 7.99259 5.9545 8.20357C5.74353 8.41455 5.625 8.7007 5.625 8.99907V12.3752C5.625 13.2703 5.98058 14.1287 6.61351 14.7617C7.24645 15.3946 8.10489 15.7502 9 15.7502C9.89511 15.7502 10.7536 15.3946 11.3865 14.7617C12.0194 14.1287 12.375 13.2703 12.375 12.3752V9.00019C12.375 8.70182 12.2565 8.41568 12.0455 8.2047C11.8345 7.99372 11.5484 7.87519 11.25 7.87519L6.75 7.87407ZM6.75 8.99907H11.25V12.3752C11.25 12.9719 11.0129 13.5442 10.591 13.9662C10.169 14.3881 9.59674 14.6252 9 14.6252C8.40326 14.6252 7.83097 14.3881 7.40901 13.9662C6.98705 13.5442 6.75 12.9719 6.75 12.3752V8.99907Z" fill="white"/>
</svg>
