<svg width="295" height="220" viewBox="0 0 295 220" fill="none" xmlns="http://www.w3.org/2000/svg">
<path d="M18.8215 202.64H277.438C283.44 202.64 285.879 192.873 280.964 188.516L262.462 172.118C261.429 171.202 260.198 170.711 258.936 170.711H33.8681C32.3958 170.711 30.9727 171.379 29.8576 172.595L14.811 188.993C10.4984 193.693 13.1277 202.64 18.8215 202.64Z" fill="url(#paint0_linear_36_23423)"/>
<path d="M169.3 77.7184C176.405 73.9163 194.306 65.5333 207.227 69.744C223.691 75.109 247.306 104.444 247.306 104.444C240.248 108.799 232.009 113.665 223.899 120.406C215.131 127.696 206.914 133.97 201.064 140.557C199.901 139.269 199.73 138.973 198.568 137.686L169.3 77.7184Z" fill="url(#paint1_linear_36_23423)"/>
<path d="M198.567 137.685L198.561 110.391L217.636 128.359L201.158 140.665L198.567 137.685Z" fill="url(#paint2_linear_36_23423)"/>
<path d="M169.299 77.7188C167.139 78.8748 164.759 79.5598 162.315 79.729L142.567 81.0959C139.875 81.2823 137.221 80.3748 135.206 78.5785C135.206 78.5785 111.64 91.444 111.64 127.808C111.64 164.171 111.64 170.713 111.64 170.713H198.557C198.557 170.713 198.567 167.743 198.567 127.808C198.567 87.8719 169.299 77.7188 169.299 77.7188Z" fill="url(#paint3_linear_36_23423)"/>
<path d="M246.175 141.705L212.972 145.162L203.625 135.9C203.625 135.9 209.606 134.694 218.031 135.491C229.086 136.538 246.175 141.705 246.175 141.705Z" fill="url(#paint4_linear_36_23423)"/>
<path d="M228.041 127.429C240.799 117.442 249.402 107.125 247.257 104.384C245.112 101.644 233.031 107.519 220.273 117.506C207.515 127.494 198.912 137.811 201.057 140.551C203.202 143.292 215.283 137.417 228.041 127.429Z" fill="#313259"/>
<path d="M264.778 164.935C258.454 172.774 241.169 173.101 232.233 164.247L211.69 143.892L202.664 134.949C204.501 132.261 206.271 130.246 208.403 127.877C218.547 116.607 229.939 109.743 239.169 105.516C244.993 111.695 249.32 117.165 252.234 121.024C258.922 129.878 265.92 140.932 267.161 149.731C267.999 155.677 267.741 161.262 264.778 164.935Z" fill="#FFB8A9"/>
<path d="M245.141 140.678L211.937 144.134L202.59 134.873C202.59 134.873 208.571 133.666 216.997 134.464C228.051 135.51 245.141 140.678 245.141 140.678Z" fill="url(#paint5_linear_36_23423)"/>
<path d="M266.628 161.546C268.208 151.709 262.117 144.19 250.647 142.793C244.626 142.06 239.878 141.836 226.385 142.793C213.566 143.703 200.851 145.432 191.963 146.917C189.983 147.248 179.308 150.118 175.971 153.305C173.519 155.646 176.005 158.79 178.374 160.478C180.235 161.805 186.063 165.421 186.063 165.421C186.063 165.421 204.465 177.558 235.229 177.558C250.477 177.558 263.197 171.278 266.628 161.546Z" fill="#FFB8A9"/>
<path d="M191.966 165.513C191.966 165.513 184.33 163.704 186.347 168.433C187.962 172.219 187.779 174.54 185.244 175.275C182.744 176 179.814 172.08 178.964 167.974C177.837 162.537 179.89 158.616 184.913 158.18C187.036 157.997 191.966 157.582 191.966 157.582L191.966 165.513Z" fill="#EA929A"/>
<path d="M191.966 154.102C183.25 154.854 173.995 155.685 171.734 162.771C169.49 169.802 169.935 174.45 172.074 175.022C174.97 175.796 176.784 173.805 177.094 170.004C177.403 166.204 178.607 164.756 180.877 163.722C183.691 162.44 191.966 162.166 191.966 162.166V154.102H191.966Z" fill="#EA929A"/>
<path d="M180.073 153.362C180.073 153.362 171.358 154.655 166.798 159.215C162.238 163.775 157.274 168.986 159.721 171.725C161.557 173.78 165.536 171.497 167.585 169.448C169.633 167.4 172.32 163.82 174.182 162.237C178.001 158.99 182.165 158.32 191.966 158.516V152.367L180.073 153.362Z" fill="#EA929A"/>
<path d="M191.965 146.93C191.965 146.93 168.51 150.942 161.907 154.105C154.907 157.458 153.537 160.303 154.77 162.624C155.998 164.933 160.708 163.72 163.611 162.488C166.513 161.257 191.965 154.416 191.965 154.416V146.93Z" fill="#EA929A"/>
<path d="M178.622 166.151C178.343 162.409 179.89 158.615 184.913 158.18" stroke="#313259" stroke-width="1.17647" stroke-miterlimit="10" stroke-linecap="round" stroke-linejoin="round"/>
<path d="M180.522 155.809C180.522 155.809 174.835 156.48 171.933 162.169C171.216 163.576 170.713 166.578 170.713 166.578" stroke="#313259" stroke-width="1.17647" stroke-miterlimit="10" stroke-linecap="round" stroke-linejoin="round"/>
<path d="M186.516 165.649C186.516 165.649 187.679 164.955 189.407 165.221" stroke="#313259" stroke-width="1.17647" stroke-miterlimit="10" stroke-linecap="round" stroke-linejoin="round"/>
<path d="M178.174 153.773C178.174 153.773 171.515 154.816 166.798 159.213C164.737 161.133 162.712 163.504 162.712 163.504" stroke="#313259" stroke-width="1.17647" stroke-miterlimit="10" stroke-linecap="round" stroke-linejoin="round"/>
<path d="M111.64 131.813L109.466 135.555L61.8633 120.126C61.8633 120.126 81.1893 83.5626 98.754 72.7101C116.319 61.8575 135.206 78.5756 135.206 78.5756L111.64 131.813Z" fill="url(#paint6_linear_36_23423)"/>
<path d="M109.783 134.995C110.756 131.795 100.795 125.93 87.5339 121.897C74.2728 117.863 62.7333 117.188 61.7598 120.388C60.7863 123.589 70.7473 129.454 84.0084 133.487C97.2696 137.521 108.809 138.196 109.783 134.995Z" fill="#313259"/>
<path d="M111.64 131.813V105.723L87.7046 130.76L109.466 135.555L111.64 131.813Z" fill="url(#paint7_linear_36_23423)"/>
<path d="M66.9876 118.38C66.9876 118.38 55.0008 135.717 51.7832 153.196C51.0099 157.397 51.2691 161.849 52.7125 164.798C54.6478 168.753 58.5432 169.334 64.4265 169.165C77.8502 168.781 90.1065 161.427 96.9401 149.867L99.8156 145.002L108.192 131.761C100.456 124.305 76.9381 116.856 66.9876 118.38Z" fill="#FFB8A9"/>
<path d="M68.7666 140.09L99.8151 145.005L102.777 139.994C102.777 139.994 100.474 138.792 93.359 137.785C85.0527 136.61 68.7666 140.09 68.7666 140.09Z" fill="url(#paint8_linear_36_23423)"/>
<path d="M55.1627 153.484C61.4827 144.584 72.2712 139.99 83.0943 141.405C98.7501 143.452 123.567 146.701 129.056 147.59C135.206 148.585 136.473 149.549 136.727 152.692C137.054 156.748 126.433 164.152 121.798 167.006C118.463 169.06 114.858 170.568 107.042 172.272C100.407 173.719 88.6468 175.309 78.0063 175.309C70.2046 175.309 55.4813 173.039 52.3479 163.878C51.239 160.635 52.6897 156.966 55.1627 153.484Z" fill="#FFB8A9"/>
<path d="M117.11 167.213C118.359 166.97 121.486 167.746 123.761 171.05C126.092 174.435 127.199 177.2 130.296 176.847C133.394 176.495 134.703 172.584 130.57 166.268C126.437 159.951 123.598 159.872 118.431 160.625L117.11 167.213Z" fill="#EA929A"/>
<path d="M118.431 154.59C118.431 154.59 130.971 156.16 139.061 163.684C144.868 169.084 146.953 173.583 143.158 175.636C139.45 177.643 136.114 171.483 133.973 169.305C128.675 163.913 118.431 160.913 118.431 160.913V154.59Z" fill="#EA929A"/>
<path d="M118.431 150.477C118.431 150.477 135.877 152.564 145.324 160.512C150.463 164.836 153.961 170.306 152.426 172.827C150.891 175.349 146.956 176.185 142.189 170.183C137.421 164.181 122.112 157.066 118.431 155.933L118.431 150.477Z" fill="#EA929A"/>
<path d="M118.42 149.127C118.42 149.127 134.94 148.585 143.399 158.231C149.818 165.549 148.37 170.222 144.477 170.568C140.331 170.936 137.328 161.584 131.749 159.073C127.396 157.114 118.432 155.93 118.432 155.93L118.42 149.127Z" fill="#EA929A"/>
<path d="M118.42 149.126C118.42 149.126 129.501 148.146 135.361 147.349C140.913 146.594 143.081 147.915 143.301 150.33C143.521 152.745 141.091 155.004 135.092 155.962C127.88 157.115 118.432 155.93 118.432 155.93L118.42 149.126Z" fill="#EA929A"/>
<path d="M130.642 166.507C126.509 160.19 122.762 160.253 121.687 160.398" stroke="#313259" stroke-width="1.17647" stroke-miterlimit="10" stroke-linecap="round" stroke-linejoin="round"/>
<path d="M127.586 157.113C127.586 157.113 132.715 158.045 139.061 163.682C143.128 167.295 145.19 170.756 145.02 173.066" stroke="#313259" stroke-width="1.17647" stroke-miterlimit="10" stroke-linecap="round" stroke-linejoin="round"/>
<path d="M131.082 153.332C131.082 153.332 140.202 156.165 145.323 160.51" stroke="#313259" stroke-width="1.17647" stroke-miterlimit="10" stroke-linecap="round" stroke-linejoin="round"/>
<path d="M139.477 154.434C139.477 154.434 134.562 151.725 128.057 150.122C124.678 149.29 119.016 149.078 119.016 149.078" stroke="#313259" stroke-width="1.17647" stroke-miterlimit="10" stroke-linecap="round" stroke-linejoin="round"/>
<path d="M119.752 167.766C119.752 167.766 118.427 166.908 117.11 167.215" stroke="#313259" stroke-width="1.17647" stroke-miterlimit="10" stroke-linecap="round" stroke-linejoin="round"/>
<path d="M173.118 78.8181C179.87 78.8181 185.343 74.1028 185.343 68.286C185.343 62.4693 179.87 57.7539 173.118 57.7539C166.366 57.7539 160.893 62.4693 160.893 68.286C160.893 74.1028 166.366 78.8181 173.118 78.8181Z" fill="#313259"/>
<path d="M167.791 87.8673C172.31 87.8673 175.974 83.865 175.974 78.9278C175.974 73.9906 172.31 69.9883 167.791 69.9883C163.271 69.9883 159.607 73.9906 159.607 78.9278C159.607 83.865 163.271 87.8673 167.791 87.8673Z" fill="#313259"/>
<path d="M172.807 61.5658C177.067 59.9466 179.441 55.7925 178.108 52.2874C176.776 48.7823 172.243 47.2536 167.982 48.8728C163.722 50.492 161.349 54.6461 162.681 58.1512C164.013 61.6563 168.547 63.1851 172.807 61.5658Z" fill="#313259"/>
<path d="M140.873 45.6057C139.2 41.205 141.436 36.2726 145.866 34.589C150.296 32.9053 155.243 35.1079 156.916 39.5086C158.588 43.9093 156.353 48.8417 151.923 50.5253C147.492 52.2091 142.545 50.0064 140.873 45.6057Z" fill="#313259"/>
<path d="M140.331 64.3447C147.637 61.5678 151.684 54.3819 149.37 48.2944C147.057 42.207 139.258 39.5232 131.952 42.3001C124.646 45.077 120.599 52.263 122.913 58.3504C125.227 64.4378 133.025 67.1216 140.331 64.3447Z" fill="#313259"/>
<path d="M163.86 55.7478C168.835 53.857 171.511 48.7567 169.839 44.3558C168.166 39.955 162.777 37.9201 157.803 39.8109C152.828 41.7016 150.151 46.802 151.824 51.2028C153.497 55.6037 158.885 57.6385 163.86 55.7478Z" fill="#313259"/>
<path d="M154.343 56.0212C159.318 54.1305 161.994 49.0301 160.322 44.6293C158.649 40.2284 153.26 38.1936 148.286 40.0843C143.311 41.9751 140.634 47.0754 142.307 51.4763C143.98 55.8771 149.368 57.912 154.343 56.0212Z" fill="#313259"/>
<path d="M139.316 78.4517C146.801 75.607 151.148 68.7738 149.025 63.1892C146.902 57.6046 139.114 55.3835 131.63 58.2281C124.145 61.0728 119.799 67.9061 121.921 73.4907C124.044 79.0753 131.832 81.2964 139.316 78.4517Z" fill="#313259"/>
<path d="M145.345 83.2237C149.88 79.1195 150.986 72.9508 147.813 69.4455C144.641 65.9402 138.393 66.4256 133.858 70.5297C129.323 74.6339 128.217 80.8026 131.39 84.3079C134.562 87.8133 140.81 87.3278 145.345 83.2237Z" fill="#313259"/>
<path d="M168.231 72.1323C167.354 72.1323 166.643 71.4212 166.643 70.544V54.8977C166.643 47.8013 160.869 42.028 153.773 42.028H151.068C143.972 42.028 138.198 47.8013 138.198 54.8977V70.544C138.198 71.4212 137.487 72.1323 136.61 72.1323C135.733 72.1323 135.022 71.4212 135.022 70.544V54.8977C135.022 46.0498 142.22 38.8516 151.068 38.8516H153.773C162.621 38.8516 169.819 46.0498 169.819 54.8977V70.544C169.819 71.4212 169.108 72.1323 168.231 72.1323Z" fill="#7F71E6"/>
<path d="M160.787 77.0664L161.081 81.1645C161.366 85.1402 158.304 88.5629 154.321 88.721C150.317 88.88 146.984 85.6766 146.984 81.6692V77.5175L160.787 77.0664Z" fill="url(#paint9_linear_36_23423)"/>
<path d="M139.283 67.6663V60.7047C139.283 55.5067 143.497 51.293 148.695 51.293H156.614C161.812 51.293 166.025 55.5067 166.025 60.7047V67.6663C166.025 74.8951 160.165 80.7551 152.937 80.7551H152.372C145.143 80.7551 139.283 74.895 139.283 67.6663Z" fill="#FFB8A9"/>
<path d="M157.017 72.1133C157.017 72.1133 155.485 75.3589 152.566 75.2426" stroke="#313259" stroke-width="1.17647" stroke-miterlimit="10" stroke-linecap="round" stroke-linejoin="round"/>
<path d="M151.307 71.4988C150.217 71.4988 149.333 70.615 149.333 69.5248C149.333 68.4345 150.217 67.5508 151.307 67.5508" stroke="#313259" stroke-width="1.17647" stroke-miterlimit="10" stroke-linecap="round" stroke-linejoin="round"/>
<path d="M137.084 73.7572C138.694 73.6625 139.923 72.28 139.828 70.6695L139.198 59.9488C139.103 58.3383 137.721 57.1096 136.11 57.2043C131.854 57.4547 128.607 61.1079 128.857 65.3639L128.924 66.5043C129.175 70.7605 132.828 74.0076 137.084 73.7572Z" fill="#7F71E6"/>
<path d="M159.761 52.4196C159.761 52.4196 156.443 63.433 147.849 60.1681C145.276 59.1903 144.33 55.8454 148.288 49.1641H160.796L159.761 52.4196Z" fill="#313259"/>
<path d="M157.805 49.1641C157.805 49.1641 160.492 59.9648 162.762 61.6045C166.118 64.0287 168.404 60.8112 168.404 60.8112L166.244 51.7119C164.544 50.0771 162.277 49.1641 159.918 49.1641H157.805Z" fill="#313259"/>
<path d="M145.873 49.1641C145.873 49.1641 141 56.8487 142.209 59.3747C142.209 59.3747 138.217 63.8214 136.319 61.595C134.207 59.1192 139.549 49.1641 139.549 49.1641H145.873Z" fill="#313259"/>
<path d="M150.823 49.1641C150.823 49.1641 143.857 58.3064 147.85 60.1681C147.85 60.1681 143.661 62.3291 141.987 59.6097C140.281 56.8389 145.187 49.1641 145.187 49.1641H150.823Z" fill="#313259"/>
<path d="M168.278 72.1127C166.664 72.1127 165.356 70.8049 165.356 69.1916V58.4523C165.356 56.839 166.664 55.5312 168.278 55.5312C172.541 55.5312 175.997 58.9874 175.997 63.2508V64.3933C175.997 68.6564 172.541 72.1127 168.278 72.1127Z" fill="#7F71E6"/>
<path d="M218.329 28.2852H203.972L191.418 39.7622V58.2009C191.418 59.1363 192.176 59.8946 193.112 59.8946H218.329C219.264 59.8946 220.022 59.1362 220.022 58.2009V29.9789C220.022 29.0435 219.264 28.2852 218.329 28.2852Z" fill="url(#paint10_linear_36_23423)"/>
<path d="M205.721 50.9558C209.513 50.9558 212.587 47.8816 212.587 44.0892C212.587 40.2969 209.513 37.2227 205.721 37.2227C201.928 37.2227 198.854 40.2969 198.854 44.0892C198.854 47.8816 201.928 50.9558 205.721 50.9558Z" stroke="#DBE7DE" stroke-width="1.76471" stroke-miterlimit="10" stroke-linecap="round" stroke-linejoin="round"/>
<path d="M203.972 28.2852V37.9279C203.972 38.941 203.15 39.7623 202.137 39.7623H191.418L203.972 28.2852Z" fill="#FFF9E9"/>
<path d="M45.5725 109.159H37.345C36.0383 109.159 34.979 108.099 34.979 106.793V98.5652C34.979 97.2585 36.0383 96.1992 37.345 96.1992H45.5725C46.8792 96.1992 47.9385 97.2585 47.9385 98.5652V106.793C47.9387 108.099 46.8794 109.159 45.5725 109.159Z" fill="#C7E2CD"/>
<path d="M29.74 99.8945H10.0649" stroke="#C7E2CD" stroke-width="1.76471" stroke-miterlimit="10" stroke-linecap="round" stroke-linejoin="round"/>
<path d="M29.7394 105.465H15.7598" stroke="#C7E2CD" stroke-width="1.76471" stroke-miterlimit="10" stroke-linecap="round" stroke-linejoin="round"/>
<path d="M45.5725 126.776H37.345C36.0383 126.776 34.979 125.717 34.979 124.41V116.182C34.979 114.876 36.0383 113.816 37.345 113.816H45.5725C46.8792 113.816 47.9385 114.876 47.9385 116.182V124.41C47.9387 125.717 46.8794 126.776 45.5725 126.776Z" fill="#E6EFE8"/>
<path d="M29.7392 117.512H11.9888" stroke="#C7E2CD" stroke-width="1.76471" stroke-miterlimit="10" stroke-linecap="round" stroke-linejoin="round"/>
<path d="M29.7392 123.082H11.9888" stroke="#C7E2CD" stroke-width="1.76471" stroke-miterlimit="10" stroke-linecap="round" stroke-linejoin="round"/>
<path d="M45.5725 144.397H37.345C36.0383 144.397 34.979 143.338 34.979 142.031V133.803C34.979 132.497 36.0383 131.438 37.345 131.438H45.5725C46.8792 131.438 47.9385 132.497 47.9385 133.803V142.031C47.9387 143.338 46.8794 144.397 45.5725 144.397Z" fill="#C7E2CD"/>
<path d="M29.7395 135.133H14.3359" stroke="#C7E2CD" stroke-width="1.76471" stroke-miterlimit="10" stroke-linecap="round" stroke-linejoin="round"/>
<path d="M29.7396 140.703H11.2295" stroke="#C7E2CD" stroke-width="1.76471" stroke-miterlimit="10" stroke-linecap="round" stroke-linejoin="round"/>
<path d="M104.177 88.1771H27.0391C23.4732 88.1771 20.5825 85.2864 20.5825 81.7205V28.0191C20.5825 24.4532 23.4732 21.5625 27.0391 21.5625H104.177C107.743 21.5625 110.633 24.4532 110.633 28.0191V81.7205C110.633 85.2864 107.743 88.1771 104.177 88.1771Z" fill="#C7E2CD"/>
<path d="M99.9564 71.7957C91.8502 69.6011 63.9665 62.4531 63.9665 62.4531L55.0665 63.2675L20.5825 72.5139V81.7182C20.5825 85.2841 23.4732 88.1748 27.0391 88.1748H104.177C106.948 88.1748 109.311 86.4283 110.227 83.9761C107.822 78.3641 104.422 73.0048 99.9564 71.7957Z" fill="url(#paint11_linear_36_23423)"/>
<path d="M42.1096 53.857L48.4195 54.9152L49.8009 51.4106L51.0565 55.3166L57.6827 56.1885L63.6652 25.0118C63.6652 25.0118 63.3938 23.0131 61.1349 21.5625H49.1548C39.9141 27.9476 42.1096 53.857 42.1096 53.857Z" fill="url(#paint12_linear_36_23423)"/>
<path d="M86.5099 48.6229L89.2347 88.178H104.177C105.846 88.178 107.367 87.5449 108.513 86.506L102.667 47.144C102.205 44.0362 99.4778 41.7742 96.3383 41.8953L92.4161 42.0464C88.9448 42.1802 86.2712 45.1573 86.5099 48.6229Z" fill="#D3785F"/>
<path d="M92.0157 37.6156C92.0157 37.6156 94.1405 33.7563 96.9844 36.6002C99.4089 39.0246 98.6058 49.5222 95.058 49.0083C92.3432 48.615 91.6757 45.7769 92.0157 44.9837C92.6823 43.4284 92.0157 37.6156 92.0157 37.6156Z" fill="#D3785F"/>
<path d="M96.6714 38.1197C96.6714 38.1197 98.8085 34.6038 101.669 37.1946C104.107 39.4033 103.299 48.9666 99.7313 48.4985C97.0008 48.1403 96.3295 45.5546 96.6714 44.832C97.3418 43.4152 96.6714 38.1197 96.6714 38.1197Z" fill="#D3785F"/>
<path d="M101.186 40.0917C101.186 40.0917 103.01 37.4402 105.45 39.3941C107.531 41.0598 106.842 48.2723 103.797 47.9191C101.467 47.6489 100.894 45.699 101.186 45.1539C101.758 44.0855 101.186 40.0917 101.186 40.0917Z" fill="#D3785F"/>
<path d="M88.9958 58.3551C88.9958 58.3551 80.8177 53.3621 81.177 47.3635C81.5363 41.3649 87.3802 39.6628 90.9788 40.338C94.5775 41.0131 94.3284 44.7088 93.1948 45.8424C91.8882 47.149 88.219 45.7513 88.219 45.7513L90.4121 50.1963L88.9958 58.3551Z" fill="#D3785F"/>
<path d="M87.7484 42.3783C87.7484 42.3783 88.2174 37.1577 87.1182 28.5726C86.9684 27.4026 87.4817 26.2621 88.6235 25.9661C89.9389 25.6252 91.3035 26.3095 91.816 27.568C93.2008 30.9687 94.0541 35.8781 92.8833 42.2605L87.7484 42.3783Z" fill="#D3785F"/>
<path d="M103.71 54.7741L87.2437 56.5766C86.478 56.6604 85.9226 57.3453 85.9987 58.1118L86.5135 63.2973C86.591 64.0776 87.2923 64.6435 88.0715 64.5542L104.938 62.621C105.745 62.5286 106.305 61.7737 106.161 60.9749L105.245 55.9202C105.114 55.1943 104.443 54.6937 103.71 54.7741Z" fill="#E6EFE8"/>
<path d="M60.961 73.6681C67.6739 73.6681 73.1157 69.9394 73.1157 65.3397C73.1157 65.117 73.1026 64.8963 73.0776 64.6779L63.967 62.4531L55.067 63.2675L48.8203 64.9424C48.8112 65.0741 48.8062 65.2064 48.8062 65.3396C48.8063 69.9394 54.2482 73.6681 60.961 73.6681Z" fill="#D3785F"/>
<path d="M46.6289 38.998C46.6289 31.1 52.7503 24.1016 60.6689 24.1016C68.5875 24.1016 74.7089 30.5041 74.7089 38.4021C74.7089 46.3001 67.4457 50.3662 61.8847 49.8656C56.892 49.4163 46.6289 46.896 46.6289 38.998Z" fill="#313259"/>
<path d="M66.6429 50.5378L66.4102 68.0614L53.5547 67.4321L55.1253 49.7148L66.6429 50.5378Z" fill="url(#paint13_linear_36_23423)"/>
<path d="M49.8761 40.5579C49.5247 29.9923 55.0949 26.4062 61.5326 26.4062C67.9702 26.4062 73.1146 29.769 73.1146 39.8131C73.1146 47.6288 69.3645 54.7095 61.5326 54.7095C53.3889 55.0835 50.1359 48.3693 49.8761 40.5579Z" fill="#D3785F"/>
<path d="M65.116 46.7773C63.6751 46.7763 61.2947 47.5693 60.2825 49.0793C59.3317 50.4977 63.3306 50.5471 64.9231 49.5589C66.2911 48.7098 67.3832 46.7791 65.116 46.7773Z" fill="#313259"/>
<path d="M57.4902 42.9916C57.4902 41.2078 59.0948 39.7617 61.0742 39.7617C63.0536 39.7617 64.6582 41.2077 64.6582 42.9916" stroke="#F991B9" stroke-width="2.23529" stroke-miterlimit="10" stroke-linecap="round" stroke-linejoin="round"/>
<path d="M68.8834 46.1017C71.9771 46.1017 74.485 43.5938 74.485 40.5001C74.485 37.4064 71.9771 34.8984 68.8834 34.8984C65.7897 34.8984 63.2817 37.4064 63.2817 40.5001C63.2817 43.5938 65.7897 46.1017 68.8834 46.1017Z" fill="url(#paint14_linear_36_23423)" stroke="#F991B9" stroke-width="1.17647" stroke-miterlimit="10" stroke-linecap="round" stroke-linejoin="round"/>
<path d="M53.3643 46.4064C56.458 46.4064 58.966 43.8985 58.966 40.8048C58.966 37.7111 56.458 35.2031 53.3643 35.2031C50.2706 35.2031 47.7627 37.7111 47.7627 40.8048C47.7627 43.8985 50.2706 46.4064 53.3643 46.4064Z" fill="url(#paint15_linear_36_23423)" stroke="#F991B9" stroke-width="1.17647" stroke-miterlimit="10" stroke-linecap="round" stroke-linejoin="round"/>
<path d="M61.1387 44.1675C62.1302 44.1675 62.934 43.3973 62.934 42.447C62.934 41.4969 62.1302 40.7266 61.1387 40.7266" stroke="#313259" stroke-width="1.17647" stroke-miterlimit="10" stroke-linecap="round" stroke-linejoin="round"/>
<path d="M97.6948 37.6758C98.7276 39.3726 99.325 48.1952 95.3557 48.5627C93.5896 48.7263 92.5863 47.4625 92.1641 46.3399" stroke="#313259" stroke-width="1.17647" stroke-miterlimit="10" stroke-linecap="round" stroke-linejoin="round"/>
<path d="M102.639 38.8945C103.749 42.3905 103.072 48.473 99.7309 48.5018C97.8078 48.5184 97.3472 47.4204 97.3472 47.4204" stroke="#313259" stroke-width="1.17647" stroke-miterlimit="10" stroke-linecap="round" stroke-linejoin="round"/>
<path d="M93.4355 36.043V41.8659" stroke="#313259" stroke-width="1.17647" stroke-miterlimit="10" stroke-linecap="round" stroke-linejoin="round"/>
<path d="M92.8607 50.2002L88.2198 45.7551C88.2198 45.7551 91.889 47.1529 93.1956 45.8463C94.3292 44.7127 94.5783 41.0169 90.9796 40.3418C90.0401 40.1656 88.9475 40.1514 87.8394 40.3334" stroke="#313259" stroke-width="1.17647" stroke-miterlimit="10" stroke-linecap="round" stroke-linejoin="round"/>
<path d="M107.681 22.5954L50.3328 82.8978H27.127L85.4576 21.5625H104.178C105.469 21.5625 106.672 21.9413 107.681 22.5954Z" fill="url(#paint16_linear_36_23423)"/>
<path d="M20.5825 70.2193V47.6578L43.6508 21.5625H66.8562L20.5825 70.2193Z" fill="url(#paint17_linear_36_23423)"/>
<path d="M267.301 98.6008H205.957C203.121 98.6008 200.822 96.3019 200.822 93.4662V50.7596C200.822 47.9238 203.121 45.625 205.957 45.625H267.301C270.137 45.625 272.436 47.9238 272.436 50.7596V93.4662C272.436 96.3019 270.137 98.6008 267.301 98.6008Z" fill="#71DBA3"/>
<path d="M240.488 82.601C240.488 82.601 228.331 84.2231 221.927 86.4359C214.518 88.9963 212.73 95.8565 212.307 98.6012H267.301C270.137 98.6012 272.436 96.3024 272.436 93.4666V79.5322L259.658 78.6406C259.658 78.6406 254.007 82.8145 248.581 83.534C243.663 84.1863 240.488 82.601 240.488 82.601Z" fill="url(#paint18_linear_36_23423)"/>
<path d="M243.466 80.3879C243.466 80.3879 245.744 83.6424 251.391 81.7891C256.415 80.14 254.524 77.1692 254.524 77.1692L248.673 70.3086L239.057 74.7392L243.466 80.3879Z" fill="url(#paint19_linear_36_23423)"/>
<path d="M239.857 51.6291C239.857 51.6291 235.8 51.8248 233.927 57.1158C233.138 59.345 232.015 63.7507 231.833 64.8773C231.448 67.2734 230.266 71.5969 232.291 73.6222C235.547 76.8775 243.136 76.0936 247.481 72.4368C251.161 69.3395 251.942 67.4028 251.995 65.5047C252.048 63.6254 251.907 58.8083 251.907 58.8083C251.859 54.8296 248.621 51.6289 244.642 51.6289H239.857V51.6291Z" fill="#FFB8A9"/>
<path d="M256.366 61.2541C256.366 61.2541 256.099 69.7062 251.41 73.5169L247.66 69.3397L247.695 60.6172L256.366 61.2541Z" fill="#313259"/>
<path d="M236.261 69.3398C236.261 69.3398 234.548 70.7437 232.244 70.1694" stroke="#313259" stroke-width="1.17647" stroke-miterlimit="10" stroke-linecap="round" stroke-linejoin="round"/>
<path d="M245.05 90.9899L259.659 78.6388L255.534 78.351L254.525 77.168L243.467 80.3867L244.708 81.9761C244.708 81.9761 243.008 82.2091 240.489 82.599L245.05 90.9899Z" fill="#F4D240"/>
<path d="M234.379 67.4506L231.005 66.7912C230.057 66.6062 229.439 65.6882 229.625 64.7409C229.81 63.7936 230.728 63.1758 231.675 63.3609L235.049 64.0203C235.996 64.2055 236.614 65.1233 236.429 66.0706C236.244 67.0179 235.326 67.6358 234.379 67.4506Z" fill="#FFB8A9"/>
<path d="M248.984 69.339C250.648 69.339 251.996 67.9908 251.996 66.3277C251.996 64.6646 250.648 63.3164 248.984 63.3164C247.321 63.3164 245.973 64.6646 245.973 66.3277C245.973 67.9908 247.321 69.339 248.984 69.339Z" fill="#FFB8A9"/>
<path d="M258.234 64.4389C258.234 64.4389 259.385 52.3602 245.303 49.8713C232.79 47.6597 231.513 59.7748 231.513 59.7748L236.978 61.1982L239.18 58.6239L240.268 62.0462L243.157 60.1382L243.987 63.0458L249.418 64.3687L251.099 62.0003L252.684 64.6813L258.234 64.4389Z" fill="#313259"/>
<path d="M249.818 65.0078L247.345 67.0911L249.457 68.2675L249.818 65.0078Z" fill="url(#paint20_linear_36_23423)"/>
<path d="M253.271 49.6133H270.213L223.273 98.5877H206.331L253.271 49.6133Z" fill="url(#paint21_linear_36_23423)"/>
<path d="M200.822 90.423V72.6714L226.635 45.625H243.577L227.652 62.3115L200.822 90.423Z" fill="url(#paint22_linear_36_23423)"/>
<path d="M194.177 176.972H98.8766C97.4409 176.972 96.2769 175.808 96.2769 174.372V170.654C96.2769 169.219 97.4409 168.055 98.8766 168.055H194.177C195.613 168.055 196.777 169.219 196.777 170.654V174.372C196.777 175.808 195.613 176.972 194.177 176.972Z" fill="url(#paint23_linear_36_23423)"/>
<path d="M187.266 176.971H103.956C102.272 176.971 100.87 175.678 100.734 174L95.4705 109.222C95.1429 105.191 98.3263 101.738 102.371 101.738H188.192C192.209 101.738 195.383 105.146 195.098 109.153L190.491 173.967C190.37 175.659 188.962 176.971 187.266 176.971Z" fill="url(#paint24_linear_36_23423)"/>
<path d="M116.721 155.398C122.387 155.398 126.98 150.804 126.98 145.138C126.98 139.472 122.387 134.879 116.721 134.879C111.055 134.879 106.461 139.472 106.461 145.138C106.461 150.804 111.055 155.398 116.721 155.398Z" stroke="#FFF9E9" stroke-width="1.17647" stroke-miterlimit="10" stroke-linecap="round" stroke-linejoin="round"/>
<path d="M118.77 155.177C121.959 154.526 123.627 149.499 122.495 143.947C121.363 138.395 117.86 134.422 114.671 135.072C111.481 135.723 109.814 140.751 110.946 146.302C112.078 151.854 115.581 155.827 118.77 155.177Z" stroke="#FFF9E9" stroke-width="1.17647" stroke-miterlimit="10" stroke-linecap="round" stroke-linejoin="round"/>
<path d="M106.572 143.716L125.509 139.855" stroke="#FFF9E9" stroke-width="1.17647" stroke-miterlimit="10" stroke-linecap="round" stroke-linejoin="round"/>
<path d="M114.671 135.082L118.77 155.187" stroke="#FFF9E9" stroke-width="1.17647" stroke-miterlimit="10" stroke-linecap="round" stroke-linejoin="round"/>
<path d="M107.923 150.419L126.876 146.555" stroke="#FFF9E9" stroke-width="1.17647" stroke-miterlimit="10" stroke-linecap="round" stroke-linejoin="round"/>
<path d="M141.796 131.364L112.611 140.255C111.022 140.739 109.341 139.843 108.857 138.254L105.531 127.335C105.047 125.746 105.942 124.065 107.531 123.581L136.716 114.69C138.305 114.206 139.986 115.102 140.47 116.691L143.796 127.61C144.28 129.199 143.385 130.88 141.796 131.364Z" fill="#519BE5"/>
<path d="M115.07 126.485L117.225 133.56L115.007 134.235L114.167 131.478L112.059 132.12L112.899 134.878L110.681 135.553L108.526 128.479L110.744 127.803L111.52 130.351L113.628 129.709L112.852 127.161L115.07 126.485ZM118.826 127.274L119.091 128.143L121.29 127.473L121.798 129.142L119.6 129.812L119.904 130.811L122.402 130.05L122.941 131.818L118.225 133.255L116.07 126.181L120.786 124.744L121.325 126.513L118.826 127.274ZM125.487 129.208L127.625 128.557L128.136 130.236L123.78 131.563L121.625 124.489L123.843 123.813L125.487 129.208ZM130.543 127.668L132.681 127.017L133.192 128.696L128.836 130.023L126.681 122.948L128.899 122.273L130.543 127.668ZM135.384 127.591C134.732 127.447 134.159 127.149 133.664 126.695C133.169 126.242 132.816 125.669 132.605 124.976C132.394 124.283 132.368 123.611 132.526 122.959C132.683 122.306 132.993 121.74 133.455 121.261C133.917 120.782 134.481 120.441 135.147 120.238C135.813 120.035 136.47 120.004 137.117 120.146C137.764 120.287 138.334 120.585 138.825 121.039C139.317 121.494 139.668 122.067 139.879 122.76C140.09 123.453 140.118 124.125 139.964 124.776C139.809 125.428 139.501 125.995 139.041 126.477C138.58 126.96 138.02 127.301 137.36 127.502C136.694 127.705 136.035 127.735 135.384 127.591ZM137.62 124.699C137.773 124.343 137.777 123.925 137.631 123.445C137.483 122.959 137.246 122.611 136.92 122.401C136.594 122.191 136.211 122.152 135.771 122.286C135.325 122.422 135.025 122.668 134.871 123.024C134.718 123.381 134.715 123.802 134.863 124.288C135.009 124.768 135.246 125.113 135.572 125.323C135.898 125.533 136.284 125.57 136.73 125.434C137.17 125.3 137.466 125.055 137.62 124.699Z" fill="#DBE7DE"/>
<path d="M171.814 156.644L157.98 147.693C156.393 146.666 155.939 144.548 156.965 142.961L163.786 132.419C164.813 130.832 166.931 130.378 168.518 131.405L182.353 140.356C183.94 141.383 184.394 143.502 183.367 145.089L176.547 155.63C175.52 157.217 173.401 157.671 171.814 156.644Z" fill="#85A8CB"/>
<path d="M162.606 147.539L159.819 145.736C159.114 145.28 158.912 144.338 159.368 143.633L165.348 134.39C165.805 133.685 166.746 133.483 167.452 133.94L170.238 135.742C170.943 136.199 171.145 137.14 170.689 137.846L164.709 147.088C164.252 147.794 163.311 147.995 162.606 147.539Z" fill="#313259"/>
<path d="M172.801 154.133L167.29 150.567C166.658 150.158 166.477 149.314 166.886 148.682L169.603 144.482C170.012 143.85 170.856 143.669 171.488 144.078L177 147.644C177.632 148.053 177.813 148.897 177.404 149.529L174.686 153.729C174.277 154.361 173.433 154.542 172.801 154.133Z" fill="#FFF9E9"/>
<path d="M178.657 145.816L172.48 141.819C172.032 141.529 171.903 140.93 172.193 140.482L173.253 138.844C173.543 138.396 174.141 138.268 174.59 138.557L180.767 142.555C181.215 142.845 181.344 143.443 181.054 143.891L179.994 145.529C179.704 145.977 179.106 146.106 178.657 145.816Z" fill="#F991B9"/>
<path d="M179.831 117.756C183.164 122.555 179.387 130.943 171.397 136.492C163.406 142.041 154.227 142.649 150.894 137.85C147.562 133.051 151.338 124.663 159.329 119.114C167.32 113.565 176.499 112.957 179.831 117.756Z" fill="#79C9B4"/>
<path d="M143.864 148.62C142.583 148.728 141.601 150.226 141.286 152.278C138.992 151.95 136.395 152.378 133.966 153.652C131.744 154.816 130.025 156.499 128.956 158.365C127.232 157.632 125.628 157.657 124.866 158.581C123.761 159.92 124.848 162.641 127.293 164.658C127.584 164.899 127.882 165.117 128.182 165.315C128.271 165.544 128.373 165.769 128.489 165.991C130.639 170.092 136.578 171.217 141.753 168.503C146.786 165.864 149.243 160.567 147.396 156.505C147.52 155.757 147.556 154.933 147.483 154.072C147.214 150.914 145.594 148.473 143.864 148.62Z" fill="#5640FA"/>
<path d="M134.492 162.829C134.831 162.652 134.796 161.917 134.415 161.19C134.033 160.462 133.449 160.016 133.11 160.194C132.771 160.372 132.805 161.106 133.187 161.833C133.569 162.561 134.153 163.007 134.492 162.829Z" fill="#FFF9E9"/>
<path d="M141.896 158.95C142.235 158.773 142.2 158.039 141.818 157.311C141.437 156.583 140.853 156.137 140.514 156.315C140.175 156.493 140.209 157.227 140.591 157.954C140.973 158.682 141.557 159.128 141.896 158.95Z" fill="#FFF9E9"/>
<path d="M136.833 161.616L139.594 160.168" stroke="#FFF9E9" stroke-width="1.17647" stroke-miterlimit="10" stroke-linecap="round" stroke-linejoin="round"/>
<defs>
<linearGradient id="paint0_linear_36_23423" x1="148.455" y1="241.365" x2="146.156" y2="-87.1048" gradientUnits="userSpaceOnUse">
<stop offset="0.1154" stop-color="white" stop-opacity="0"/>
<stop offset="0.1538" stop-color="#ECF2EE" stop-opacity="0.3246"/>
<stop offset="0.1951" stop-color="#DFEAE2" stop-opacity="0.6731"/>
<stop offset="0.2338" stop-color="#DBE7DE"/>
</linearGradient>
<linearGradient id="paint1_linear_36_23423" x1="208.303" y1="33.9297" x2="208.303" y2="190.33" gradientUnits="userSpaceOnUse">
<stop offset="0.1365" stop-color="#94EDC8"/>
<stop offset="0.6682" stop-color="#44AE8E"/>
<stop offset="0.9662" stop-color="#1C8E79"/>
</linearGradient>
<linearGradient id="paint2_linear_36_23423" x1="208.624" y1="121.293" x2="159.765" y2="144.902" gradientUnits="userSpaceOnUse">
<stop offset="0.0314" stop-color="#6C9ED8" stop-opacity="0"/>
<stop offset="0.0873" stop-color="#6692CA" stop-opacity="0.1622"/>
<stop offset="0.1926" stop-color="#5573A6" stop-opacity="0.4679"/>
<stop offset="0.3352" stop-color="#39416B" stop-opacity="0.8816"/>
<stop offset="0.376" stop-color="#313259"/>
</linearGradient>
<linearGradient id="paint3_linear_36_23423" x1="155.104" y1="33.448" x2="155.104" y2="192.019" gradientUnits="userSpaceOnUse">
<stop offset="0.1365" stop-color="#94EDCD"/>
<stop offset="0.6682" stop-color="#44AE9B"/>
<stop offset="0.9662" stop-color="#1C8E79"/>
</linearGradient>
<linearGradient id="paint4_linear_36_23423" x1="225.722" y1="133.423" x2="217.342" y2="187.77" gradientUnits="userSpaceOnUse">
<stop offset="0.0617" stop-color="#EA929A" stop-opacity="0"/>
<stop offset="0.0866" stop-color="#E58F98" stop-opacity="0.1217"/>
<stop offset="0.1172" stop-color="#D68793" stop-opacity="0.2712"/>
<stop offset="0.1508" stop-color="#BD7B8A" stop-opacity="0.4353"/>
<stop offset="0.1865" stop-color="#9A687E" stop-opacity="0.6098"/>
<stop offset="0.2239" stop-color="#6D516E" stop-opacity="0.7926"/>
<stop offset="0.2622" stop-color="#37355B" stop-opacity="0.9797"/>
<stop offset="0.2664" stop-color="#313259"/>
</linearGradient>
<linearGradient id="paint5_linear_36_23423" x1="224.687" y1="132.396" x2="216.308" y2="186.743" gradientUnits="userSpaceOnUse">
<stop offset="0.0617" stop-color="#FFB8A9" stop-opacity="0"/>
<stop offset="0.0866" stop-color="#E58F98" stop-opacity="0.1217"/>
<stop offset="0.1172" stop-color="#D68793" stop-opacity="0.2712"/>
<stop offset="0.1508" stop-color="#BD7B8A" stop-opacity="0.4353"/>
<stop offset="0.1865" stop-color="#9A687E" stop-opacity="0.6098"/>
<stop offset="0.2239" stop-color="#6D516E" stop-opacity="0.7926"/>
<stop offset="0.2622" stop-color="#37355B" stop-opacity="0.9797"/>
<stop offset="0.2664" stop-color="#313259"/>
</linearGradient>
<linearGradient id="paint6_linear_36_23423" x1="98.5348" y1="35.4021" x2="98.5348" y2="185.26" gradientUnits="userSpaceOnUse">
<stop offset="0.1365" stop-color="#94EDCD"/>
<stop offset="0.6682" stop-color="#44AE9B"/>
<stop offset="0.9662" stop-color="#1C8E79"/>
</linearGradient>
<linearGradient id="paint7_linear_36_23423" x1="99.5788" y1="118.196" x2="150.24" y2="142.675" gradientUnits="userSpaceOnUse">
<stop offset="0.0314" stop-color="#6C9ED8" stop-opacity="0"/>
<stop offset="0.0873" stop-color="#6692CA" stop-opacity="0.1622"/>
<stop offset="0.1926" stop-color="#5573A6" stop-opacity="0.4679"/>
<stop offset="0.3352" stop-color="#39416B" stop-opacity="0.8816"/>
<stop offset="0.376" stop-color="#313259"/>
</linearGradient>
<linearGradient id="paint8_linear_36_23423" x1="85.4443" y1="135.208" x2="88.3927" y2="178.705" gradientUnits="userSpaceOnUse">
<stop stop-color="#FFB8A9" stop-opacity="0"/>
<stop offset="0.0481" stop-color="#E79099" stop-opacity="0.1956"/>
<stop offset="0.0849" stop-color="#DD8B96" stop-opacity="0.3451"/>
<stop offset="0.118" stop-color="#CD8390" stop-opacity="0.4794"/>
<stop offset="0.1488" stop-color="#B67788" stop-opacity="0.6046"/>
<stop offset="0.1781" stop-color="#98677D" stop-opacity="0.7236"/>
<stop offset="0.2063" stop-color="#735470" stop-opacity="0.838"/>
<stop offset="0.233" stop-color="#493E61" stop-opacity="0.9467"/>
<stop offset="0.2461" stop-color="#313259"/>
</linearGradient>
<linearGradient id="paint9_linear_36_23423" x1="153.846" y1="89.721" x2="154.186" y2="72.1582" gradientUnits="userSpaceOnUse">
<stop offset="0.0278" stop-color="#EA929A"/>
<stop offset="0.2146" stop-color="#E79099"/>
<stop offset="0.3598" stop-color="#DD8B95"/>
<stop offset="0.4909" stop-color="#CD8390"/>
<stop offset="0.6138" stop-color="#B57787"/>
<stop offset="0.731" stop-color="#97677D"/>
<stop offset="0.8438" stop-color="#725470"/>
<stop offset="0.9512" stop-color="#473E61"/>
<stop offset="1" stop-color="#313259"/>
</linearGradient>
<linearGradient id="paint10_linear_36_23423" x1="212.965" y1="73.9299" x2="198.846" y2="15.7775" gradientUnits="userSpaceOnUse">
<stop offset="0.0104" stop-color="#DBE7DE"/>
<stop offset="0.3583" stop-color="#D9E6DD"/>
<stop offset="0.4836" stop-color="#D2E2DA"/>
<stop offset="0.5729" stop-color="#C7DCD5"/>
<stop offset="0.6452" stop-color="#B6D2CE"/>
<stop offset="0.7071" stop-color="#A0C6C5"/>
<stop offset="0.7619" stop-color="#84B7BA"/>
<stop offset="0.8114" stop-color="#64A6AC"/>
<stop offset="0.8555" stop-color="#40929D"/>
<stop offset="0.8913" stop-color="#1C7E8E"/>
</linearGradient>
<linearGradient id="paint11_linear_36_23423" x1="105.874" y1="61.0736" x2="18.781" y2="100.288" gradientUnits="userSpaceOnUse">
<stop offset="0.0226" stop-color="#F991B9"/>
<stop offset="0.3174" stop-color="#FBBBCC"/>
<stop offset="0.6051" stop-color="#FDDDDC"/>
<stop offset="0.8425" stop-color="#FFF2E6"/>
<stop offset="1" stop-color="#FFF9E9"/>
</linearGradient>
<linearGradient id="paint12_linear_36_23423" x1="44.4618" y1="65.2178" x2="59.9218" y2="11.3192" gradientUnits="userSpaceOnUse">
<stop offset="0.1074" stop-color="#DBE7DE"/>
<stop offset="0.1768" stop-color="#B4BEC0"/>
<stop offset="0.2524" stop-color="#9199A4"/>
<stop offset="0.3345" stop-color="#73798D"/>
<stop offset="0.423" stop-color="#5B5F7A"/>
<stop offset="0.5202" stop-color="#484B6B"/>
<stop offset="0.6309" stop-color="#3B3D61"/>
<stop offset="0.7664" stop-color="#33345B"/>
<stop offset="0.9987" stop-color="#313259"/>
</linearGradient>
<linearGradient id="paint13_linear_36_23423" x1="60.1636" y1="72.1595" x2="60.0453" y2="48.1175" gradientUnits="userSpaceOnUse">
<stop offset="0.0278" stop-color="#D3785F"/>
<stop offset="0.2922" stop-color="#D1775F"/>
<stop offset="0.4452" stop-color="#C8735F"/>
<stop offset="0.5697" stop-color="#BA6D5E"/>
<stop offset="0.6791" stop-color="#A6655D"/>
<stop offset="0.7783" stop-color="#8D5A5C"/>
<stop offset="0.8704" stop-color="#6D4C5B"/>
<stop offset="0.9552" stop-color="#483C5A"/>
<stop offset="1" stop-color="#313259"/>
</linearGradient>
<linearGradient id="paint14_linear_36_23423" x1="64.4097" y1="48.7808" x2="72.5384" y2="33.7348" gradientUnits="userSpaceOnUse">
<stop offset="0.1366" stop-color="#94BDED"/>
<stop offset="0.1514" stop-color="#9AC1ED"/>
<stop offset="0.236" stop-color="#B9D2EC"/>
<stop offset="0.3288" stop-color="#D3E0EB"/>
<stop offset="0.4313" stop-color="#E7EBEA"/>
<stop offset="0.5486" stop-color="#F4F3E9"/>
<stop offset="0.6937" stop-color="#FDF8E9"/>
<stop offset="0.9499" stop-color="#FFF9E9"/>
</linearGradient>
<linearGradient id="paint15_linear_36_23423" x1="46.2612" y1="50.2247" x2="58.6845" y2="33.7495" gradientUnits="userSpaceOnUse">
<stop offset="0.0391" stop-color="#94BDED"/>
<stop offset="0.5059" stop-color="#CDDDEB"/>
<stop offset="0.9499" stop-color="#FFF9E9"/>
</linearGradient>
<linearGradient id="paint16_linear_36_23423" x1="69.8512" y1="9.57285" x2="64.2883" y2="107.716" gradientUnits="userSpaceOnUse">
<stop stop-color="#FFF9E9"/>
<stop offset="0.1448" stop-color="#D1EFD2" stop-opacity="0.7009"/>
<stop offset="0.376" stop-color="#8CE1B0" stop-opacity="0.2235"/>
<stop offset="0.4842" stop-color="#71DBA3" stop-opacity="0"/>
</linearGradient>
<linearGradient id="paint17_linear_36_23423" x1="44.973" y1="12.4925" x2="40.6319" y2="89.0793" gradientUnits="userSpaceOnUse">
<stop stop-color="#FFF9E9"/>
<stop offset="0.1448" stop-color="#D1EFD2" stop-opacity="0.7009"/>
<stop offset="0.376" stop-color="#8CE1B0" stop-opacity="0.2235"/>
<stop offset="0.4842" stop-color="#71DBA3" stop-opacity="0"/>
</linearGradient>
<linearGradient id="paint18_linear_36_23423" x1="209.045" y1="77.3795" x2="294.615" y2="107.388" gradientUnits="userSpaceOnUse">
<stop offset="0.2683" stop-color="#3B7EFF"/>
<stop offset="0.4003" stop-color="#3F5EFF"/>
<stop offset="0.5306" stop-color="#644BFE"/>
<stop offset="0.6603" stop-color="#6C5FFD"/>
<stop offset="0.7896" stop-color="#757AFC"/>
<stop offset="0.9174" stop-color="#8598FA"/>
<stop offset="1" stop-color="#9991F9"/>
</linearGradient>
<linearGradient id="paint19_linear_36_23423" x1="250.966" y1="81.3401" x2="240.263" y2="67.5355" gradientUnits="userSpaceOnUse">
<stop offset="0.0278" stop-color="#FFB8A9"/>
<stop offset="0.2594" stop-color="#FDB7A8"/>
<stop offset="0.3712" stop-color="#F5B2A5"/>
<stop offset="0.4573" stop-color="#E8A9A0"/>
<stop offset="0.5303" stop-color="#D69D99"/>
<stop offset="0.5949" stop-color="#BE8D90"/>
<stop offset="0.6537" stop-color="#A07A84"/>
<stop offset="0.708" stop-color="#7D6376"/>
<stop offset="0.7574" stop-color="#554967"/>
<stop offset="0.7954" stop-color="#313259"/>
</linearGradient>
<linearGradient id="paint20_linear_36_23423" x1="252.224" y1="68.5147" x2="244.519" y2="63.3002" gradientUnits="userSpaceOnUse">
<stop offset="0.3555" stop-color="#FFB8A9"/>
<stop offset="0.4134" stop-color="#FDB7A8"/>
<stop offset="0.4413" stop-color="#F5B2A5"/>
<stop offset="0.4629" stop-color="#E8A9A0"/>
<stop offset="0.4811" stop-color="#D69D99"/>
<stop offset="0.4973" stop-color="#BE8D90"/>
<stop offset="0.512" stop-color="#A07A84"/>
<stop offset="0.5256" stop-color="#7D6376"/>
<stop offset="0.5379" stop-color="#554967"/>
<stop offset="0.5474" stop-color="#313259"/>
</linearGradient>
<linearGradient id="paint21_linear_36_23423" x1="236.332" y1="108.319" x2="240.785" y2="29.7668" gradientUnits="userSpaceOnUse">
<stop stop-color="#FFF9E9"/>
<stop offset="0.1448" stop-color="#D1EFD2" stop-opacity="0.7009"/>
<stop offset="0.376" stop-color="#8CE1B0" stop-opacity="0.2235"/>
<stop offset="0.4842" stop-color="#71DBA3" stop-opacity="0"/>
</linearGradient>
<linearGradient id="paint22_linear_36_23423" x1="223.44" y1="37.2736" x2="219.442" y2="107.799" gradientUnits="userSpaceOnUse">
<stop stop-color="#FFF9E9"/>
<stop offset="0.1448" stop-color="#D1EFD2" stop-opacity="0.7009"/>
<stop offset="0.376" stop-color="#8CE1B0" stop-opacity="0.2235"/>
<stop offset="0.4842" stop-color="#71DBA3" stop-opacity="0"/>
</linearGradient>
<linearGradient id="paint23_linear_36_23423" x1="151.364" y1="240.686" x2="144.203" y2="139.756" gradientUnits="userSpaceOnUse">
<stop offset="0.5113" stop-color="#313259"/>
<stop offset="0.526" stop-color="#373B63"/>
<stop offset="0.5515" stop-color="#465280"/>
<stop offset="0.5848" stop-color="#5F79AD"/>
<stop offset="0.6186" stop-color="#7CA6E3"/>
<stop offset="0.9762" stop-color="#DBE7DE"/>
</linearGradient>
<linearGradient id="paint24_linear_36_23423" x1="103.579" y1="192.825" x2="190.691" y2="77.3014" gradientUnits="userSpaceOnUse">
<stop offset="0.0099" stop-color="#7CA6E3"/>
<stop offset="0.0596" stop-color="#8AAFE2"/>
<stop offset="0.1868" stop-color="#A7C3E1"/>
<stop offset="0.322" stop-color="#BED3E0"/>
<stop offset="0.467" stop-color="#CEDEDF"/>
<stop offset="0.629" stop-color="#D8E5DE"/>
<stop offset="0.8422" stop-color="#DBE7DE"/>
</linearGradient>
</defs>
</svg>
