<svg width="275" height="220" viewBox="0 0 275 220" fill="none" xmlns="http://www.w3.org/2000/svg">
<path d="M247.069 51.1729H181.649C180.434 51.1729 179.449 52.1578 179.449 53.3729V95.1883C179.449 96.4033 180.434 97.3883 181.649 97.3883H247.069C248.284 97.3883 249.269 96.4033 249.269 95.1883V53.3729C249.269 52.1578 248.284 51.1729 247.069 51.1729Z" fill="url(#paint0_linear_179_10888)"/>
<path d="M217.979 69.1309H185.554C184.947 69.1309 184.454 69.6233 184.454 70.2309V74.1805C184.454 74.788 184.947 75.2805 185.554 75.2805H217.979C218.586 75.2805 219.079 74.788 219.079 74.1805V70.2309C219.079 69.6233 218.586 69.1309 217.979 69.1309Z" stroke="#FFF9E9" stroke-width="1.1" stroke-linecap="round" stroke-linejoin="round"/>
<path d="M218.129 79.501H185.704C185.097 79.501 184.604 79.9935 184.604 80.601V84.5506C184.604 85.1582 185.097 85.6506 185.704 85.6506H218.129C218.736 85.6506 219.229 85.1582 219.229 84.5506V80.601C219.229 79.9935 218.736 79.501 218.129 79.501Z" fill="url(#paint1_linear_179_10888)"/>
<path d="M240.418 60.582H242.528C243.069 60.582 243.507 61.0204 243.507 61.561V63.6707" stroke="#5640FA" stroke-width="1.1" stroke-linecap="round" stroke-linejoin="round"/>
<path d="M237.698 60.582H235.589C235.048 60.582 234.61 61.0204 234.61 61.561V63.6707" stroke="#5640FA" stroke-width="1.1" stroke-linecap="round" stroke-linejoin="round"/>
<path d="M243.507 66.3916V68.5013C243.507 69.0419 243.069 69.4803 242.528 69.4803H240.419" stroke="#5640FA" stroke-width="1.1" stroke-linecap="round" stroke-linejoin="round"/>
<path d="M237.698 69.4803H235.589C235.048 69.4803 234.61 69.0419 234.61 68.5013V66.3916" stroke="#5640FA" stroke-width="1.1" stroke-linecap="round" stroke-linejoin="round"/>
<path d="M218.129 58.46H185.705C185.097 58.46 184.605 58.9524 184.605 59.56V63.5096C184.605 64.1171 185.097 64.6096 185.705 64.6096H218.129C218.736 64.6096 219.229 64.1171 219.229 63.5096V59.56C219.229 58.9524 218.736 58.46 218.129 58.46Z" fill="#FFF9E9"/>
<path d="M196.578 58.46H191.791C190.092 58.46 188.716 59.8366 188.716 61.5348C188.716 63.233 190.092 64.6096 191.791 64.6096H196.578C198.276 64.6096 199.653 63.233 199.653 61.5348C199.653 59.8366 198.276 58.46 196.578 58.46Z" fill="url(#paint2_linear_179_10888)"/>
<path d="M108.145 71.6321L143.761 76.4941C143.677 77.0947 143.578 77.692 143.463 78.2849C140.799 92.1042 130.095 103.766 115.556 106.828C96.2478 110.892 77.0154 98.3489 72.9498 79.0417C68.8853 59.7334 81.4286 40.501 100.736 36.4365L108.145 71.6321Z" fill="url(#paint3_linear_179_10888)"/>
<path d="M108.146 71.6313L100.736 36.4355C81.4282 40.5005 68.8853 59.7333 72.9502 79.0411C73.9017 83.5606 75.6846 87.7095 78.1047 91.3615L108.146 71.6313H108.146Z" fill="url(#paint4_linear_179_10888)"/>
<path d="M115.556 106.827C120.979 105.686 125.869 103.347 130.007 100.146L108.146 71.6318L78.1046 91.3621C86.0234 103.312 100.767 109.941 115.556 106.827Z" fill="url(#paint5_linear_179_10888)"/>
<path d="M143.341 64.2215C142.159 58.6052 139.649 53.3527 136.023 48.9043L108.146 71.6314L143.574 77.6735C144.334 73.3256 144.3 68.7758 143.341 64.2216L143.341 64.2215Z" fill="url(#paint6_linear_179_10888)"/>
<path d="M168.825 38.3955H145.213C144.605 38.3955 144.113 38.888 144.113 39.4955V42.6065C144.113 43.214 144.605 43.7065 145.213 43.7065H168.825C169.433 43.7065 169.925 43.214 169.925 42.6065V39.4955C169.925 38.888 169.433 38.3955 168.825 38.3955Z" fill="url(#paint7_linear_179_10888)"/>
<path d="M140.842 41.0508H125.48L118.297 48.2339" stroke="#94BDED" stroke-width="1.1" stroke-linecap="round" stroke-linejoin="round"/>
<path d="M89.9698 132.745H76.1434C75.5359 132.745 75.0434 133.238 75.0434 133.845V147.671C75.0434 148.279 75.5359 148.771 76.1434 148.771H89.9698C90.5773 148.771 91.0698 148.279 91.0698 147.671V133.845C91.0698 133.238 90.5773 132.745 89.9698 132.745Z" fill="url(#paint8_linear_179_10888)"/>
<path d="M82.8883 139.161H69.0619C68.4544 139.161 67.9619 139.654 67.9619 140.261V154.087C67.9619 154.695 68.4544 155.187 69.0619 155.187H82.8883C83.4958 155.187 83.9883 154.695 83.9883 154.087V140.261C83.9883 139.654 83.4958 139.161 82.8883 139.161Z" fill="#FFF9E9"/>
<path d="M75.8069 145.578H61.9806C61.3731 145.578 60.8806 146.071 60.8806 146.678V160.504C60.8806 161.112 61.3731 161.604 61.9806 161.604H75.8069C76.4144 161.604 76.9069 161.112 76.9069 160.504V146.678C76.9069 146.071 76.4144 145.578 75.8069 145.578Z" stroke="#94BDED" stroke-width="1.1" stroke-linecap="round" stroke-linejoin="round"/>
<path d="M94.2093 57.0303H28.2612C27.0462 57.0303 26.0612 58.0152 26.0612 59.2303V102.346C26.0612 103.561 27.0462 104.546 28.2612 104.546H94.2093C95.4243 104.546 96.4093 103.561 96.4093 102.346V59.2303C96.4093 58.0152 95.4243 57.0303 94.2093 57.0303Z" fill="url(#paint9_linear_179_10888)"/>
<path d="M30.4094 61.7932C31.1184 61.7932 31.6932 61.2184 31.6932 60.5094C31.6932 59.8004 31.1184 59.2256 30.4094 59.2256C29.7004 59.2256 29.1256 59.8004 29.1256 60.5094C29.1256 61.2184 29.7004 61.7932 30.4094 61.7932Z" fill="#FF593B"/>
<path d="M34.4832 61.7932C35.1922 61.7932 35.767 61.2184 35.767 60.5094C35.767 59.8004 35.1922 59.2256 34.4832 59.2256C33.7742 59.2256 33.1994 59.8004 33.1994 60.5094C33.1994 61.2184 33.7742 61.7932 34.4832 61.7932Z" fill="#F4D240"/>
<path d="M38.5569 61.7932C39.266 61.7932 39.8408 61.2184 39.8408 60.5094C39.8408 59.8004 39.266 59.2256 38.5569 59.2256C37.8479 59.2256 37.2731 59.8004 37.2731 60.5094C37.2731 61.2184 37.8479 61.7932 38.5569 61.7932Z" fill="#1C7E8E"/>
<path d="M36.9939 95.9412C38.0574 95.9412 38.9195 95.079 38.9195 94.0155C38.9195 92.952 38.0574 92.0898 36.9939 92.0898C35.9303 92.0898 35.0682 92.952 35.0682 94.0155C35.0682 95.079 35.9303 95.9412 36.9939 95.9412Z" stroke="#94BDED" stroke-width="1.1" stroke-linecap="round" stroke-linejoin="round"/>
<path d="M41.7147 92.7793H65.5354V95.2516H41.7147V92.7793Z" stroke="#94BDED" stroke-width="1.1" stroke-linecap="round" stroke-linejoin="round"/>
<path d="M36.9939 101.433C38.0574 101.433 38.9195 100.571 38.9195 99.5077C38.9195 98.4442 38.0574 97.582 36.9939 97.582C35.9303 97.582 35.0682 98.4442 35.0682 99.5077C35.0682 100.571 35.9303 101.433 36.9939 101.433Z" stroke="#94BDED" stroke-width="1.1" stroke-linecap="round" stroke-linejoin="round"/>
<path d="M41.7147 98.2715H65.5354V100.744H41.7147V98.2715Z" stroke="#94BDED" stroke-width="1.1" stroke-linecap="round" stroke-linejoin="round"/>
<path d="M87.3453 82.7471H36.0259C34.8109 82.7471 33.8259 83.732 33.8259 84.9471V87.3801C33.8259 88.5951 34.8109 89.5801 36.0259 89.5801H87.3453C88.5603 89.5801 89.5453 88.5951 89.5453 87.3801V84.9471C89.5453 83.732 88.5603 82.7471 87.3453 82.7471Z" fill="#94BDED"/>
<path d="M33.8259 80.2307C33.8259 80.2307 35.824 79.8993 37.2733 73.1182C38.9195 65.4157 44.2617 64.2354 46.4357 73.9257C48.3804 82.5933 52.3517 77.8082 53.6252 73.6148C54.8462 69.5938 58.7972 66.9989 60.9092 74.7954C62.7822 81.7094 68.2472 79.3299 69.6677 72.1244C71.0802 64.9596 77.0597 64.3597 79.0785 72.6834C80.8869 80.1397 89.6696 79.3921 89.5454 72.4039" stroke="#1C7E8E" stroke-width="0.66" stroke-linecap="round" stroke-linejoin="round"/>
<path d="M74.2105 68.9609C75.185 68.9609 75.9751 68.1708 75.9751 67.1963C75.9751 66.2217 75.185 65.4316 74.2105 65.4316C73.2359 65.4316 72.4458 66.2217 72.4458 67.1963C72.4458 68.1708 73.2359 68.9609 74.2105 68.9609Z" fill="#5640FA"/>
<path d="M238.271 78.3385C239.006 77.9937 240.766 78.3812 240.683 80.6324C240.6 82.8835 236.124 84.5073 233.437 85.0914C230.75 85.6754 229.528 82.442 238.271 78.3386V78.3385Z" fill="#FFABA0"/>
<path d="M238.048 73.7474C238.747 73.3346 240.536 73.5542 240.666 75.803C240.796 78.052 236.493 80.0914 233.874 80.9266C231.254 81.7618 229.732 78.6582 238.048 73.7474Z" fill="#FFABA0"/>
<path d="M237.036 69.1574C237.788 68.6983 239.719 68.9507 239.868 71.4666C240.017 73.9825 235.382 76.2473 232.559 77.1715C229.735 78.0958 228.081 74.6188 237.036 69.1574Z" fill="#FFABA0"/>
<path d="M236.82 63.3357L227.809 70.3193C226.801 71.1008 226.617 72.5518 227.399 73.5602C228.18 74.5686 229.631 74.7525 230.639 73.971L239.65 66.9874C240.659 66.2059 240.843 64.7549 240.061 63.7465C239.28 62.7381 237.829 62.5542 236.82 63.3357Z" fill="#FFABA0"/>
<path d="M232.975 68.8017C232.907 67.1924 231.436 65.0213 226.956 66.5115C223.342 67.7136 219.884 71.0746 218.941 73.1451C217.998 75.2156 233.238 75.1265 232.975 68.8017Z" fill="#FFABA0"/>
<path d="M227.414 69.1504C222.154 69.1504 218.066 73.9566 215.054 76.9706C213.083 78.942 210.857 81.1698 210.857 84.1226C210.857 87.9384 213.951 91.0318 217.767 91.0318C218.576 91.0318 219.353 90.8912 220.075 90.6354C220.075 90.6354 232.99 85.9591 235.943 84.1229C238.897 82.2867 235.048 69.1504 227.414 69.1504Z" fill="#FFABA0"/>
<path d="M232.179 66.9316L227.281 70.625" stroke="#313259" stroke-width="0.55" stroke-linecap="round" stroke-linejoin="round"/>
<path d="M237.036 69.1572L232.978 72.3528" stroke="#313259" stroke-width="0.55" stroke-linecap="round" stroke-linejoin="round"/>
<path d="M238.939 73.5781L235.259 76.5358" stroke="#313259" stroke-width="0.55" stroke-linecap="round" stroke-linejoin="round"/>
<path d="M239.176 78.2646L235.687 80.5525" stroke="#313259" stroke-width="0.55" stroke-linecap="round" stroke-linejoin="round"/>
<path d="M228.143 69.9756H226.204" stroke="#313259" stroke-width="0.55" stroke-linecap="round" stroke-linejoin="round"/>
<path d="M218.21 98.1008L210.164 78.4844C210.164 78.4844 162.978 88.0037 157.264 89.1721C150.879 90.4777 145.744 93.6917 143.544 98.6391C143.25 99.2999 142.233 101.519 142.384 104.306C142.787 111.767 151.131 116.725 154.174 118.534C165.744 125.411 190.819 116.609 218.21 98.1009L218.21 98.1008Z" fill="#75D0AD"/>
<path d="M208.904 78.1296L217.11 98.8494C217.333 99.4142 217.973 99.6907 218.537 99.467L223.288 97.5859C223.852 97.3622 224.129 96.7229 223.905 96.1581L215.7 75.4383C215.476 74.8735 214.837 74.597 214.272 74.8207L209.522 76.7018C208.957 76.9255 208.68 77.5648 208.904 78.1296Z" fill="#FFF9E9"/>
<path d="M215.002 93.6917L222.016 91.1865" stroke="#313259" stroke-width="0.55" stroke-linecap="round" stroke-linejoin="round"/>
<path d="M68.8491 94.7924L60.7878 86.7311C59.8856 85.829 58.423 85.829 57.5209 86.7311C56.6188 87.6332 56.6188 89.0958 57.5209 89.9979L65.5822 98.0592C66.4843 98.9613 67.9469 98.9613 68.8491 98.0592C69.7512 97.1571 69.7512 95.6945 68.8491 94.7924Z" fill="#FFABA0"/>
<path d="M65.0148 96.6722L56.5743 89.0088C55.6297 88.1513 54.1688 88.2218 53.3112 89.1663C52.4536 90.1109 52.5241 91.5718 53.4687 92.4293L61.9092 100.093C62.8538 100.95 64.3147 100.88 65.1723 99.9352C66.0298 98.9907 65.9593 97.5297 65.0148 96.6722Z" fill="#FFABA0"/>
<path d="M62.2433 99.6702L53.7738 94.1311C52.7824 93.4827 51.453 93.7608 50.8046 94.7522L50.6842 94.9363C50.0358 95.9278 50.3139 97.2571 51.3053 97.9055L59.7748 103.445C60.7662 104.093 62.0956 103.815 62.744 102.824L62.8644 102.639C63.5128 101.648 63.2348 100.319 62.2433 99.6702Z" fill="#FFABA0"/>
<path d="M60.19 103.105L52.8547 98.8702C51.8551 98.2931 50.5769 98.6356 49.9997 99.6352L49.9447 99.7305C49.3676 100.73 49.7101 102.008 50.7097 102.585L58.045 106.82C59.0446 107.398 60.3228 107.055 60.8999 106.055L60.9549 105.96C61.5321 104.961 61.1896 103.682 60.19 103.105Z" fill="#FFABA0"/>
<path d="M67.7629 88.8372L67.8626 88.7909C68.9094 88.3044 69.9944 88.6561 70.6388 89.8054C71.3642 91.099 72.9809 93.0187 74.1931 95.1057C74.7083 95.9926 75.5982 99.3795 73.1943 100.263L73.0946 100.309C72.0478 100.795 70.8049 100.341 70.3184 99.2944L66.7484 91.6134C66.2619 90.5667 66.7161 89.3238 67.7629 88.8372Z" fill="#FFABA0"/>
<path d="M57.9811 106.837C61.1988 110.523 63.9031 113.104 68.3374 114.026C72.7717 114.948 75.9698 108.449 76.5644 105.351C76.7818 104.219 76.6709 98.5539 73.8383 94.5952C71.3405 91.1046 63.7395 95.5375 60.4953 99.1292C57.2509 102.721 56.3711 104.993 57.9811 106.837Z" fill="#FFABA0"/>
<path d="M67.7557 93.7812L68.6427 95.0777" stroke="#313259" stroke-width="0.55" stroke-linecap="round" stroke-linejoin="round"/>
<path d="M57.1724 89.5518L63.797 95.7164" stroke="#313259" stroke-width="0.55" stroke-linecap="round" stroke-linejoin="round"/>
<path d="M53.1487 99.0459L58.1838 102.035" stroke="#313259" stroke-width="0.55" stroke-linecap="round" stroke-linejoin="round"/>
<path d="M99.8568 115.173C95.6565 112.173 82.6754 103.231 82.6754 103.231L68.247 119.652C82.8781 136.71 94.5898 140.51 99.2122 140.791C105.859 141.195 109.154 137.986 109.154 131.075C109.154 124.164 104.391 118.411 99.8568 115.173Z" fill="#75D0AD"/>
<path d="M123.476 91.2648C120.729 89.3259 112.408 91.4645 106.989 97.8213C100.785 105.098 97.0304 109.81 93.7355 116.518C87.9558 128.285 86.9081 136.486 92.9299 139.122C98.9518 141.758 110.844 143.395 118.772 129.565C121.616 124.602 131.442 96.8883 123.476 91.2648Z" fill="#75D0AD"/>
<path d="M78.5555 98.983L63.5752 115.482C63.1668 115.932 63.2004 116.628 63.6502 117.036L67.4328 120.471C67.8826 120.879 68.5782 120.845 68.9866 120.396L83.9669 103.896C84.3752 103.446 84.3417 102.751 83.8919 102.342L80.1093 98.908C79.6595 98.4996 78.9638 98.5332 78.5555 98.983Z" fill="#FFF9E9"/>
<path d="M67.2752 111.315L72.6161 116.507" stroke="#313259" stroke-width="0.55" stroke-linecap="round" stroke-linejoin="round"/>
<path d="M158.864 128.884C164.118 136.011 164.152 141.539 168.565 160.893C170.792 170.658 172.899 178.532 174.303 183.565H145.431L140.314 153.373L137.119 153.3L136.243 183.564H109.154C109.508 175.801 110.045 168.941 110.528 163.983C111.807 150.849 113.117 144.653 113.79 141.704C115.361 134.826 116.147 131.387 117.906 128.518C118.384 127.738 125.883 115.915 138.155 115.918C149.307 115.92 156.506 125.686 158.863 128.884L158.864 128.884Z" fill="#313259"/>
<path d="M142.925 153.437L134.718 153.244" stroke="#FFF9E9" stroke-width="0.55" stroke-linecap="round" stroke-linejoin="round"/>
<path d="M161.053 130.071C163.602 126.171 163.997 121.819 163.542 113.222C162.993 102.833 160.705 94.4527 158.777 88.8662C153.904 89.2558 148.989 89.2545 144.153 89.97C139.179 90.7057 122.656 87.4697 115.319 91.7634C113.809 99.3802 110.049 125.89 116.066 132.26C119.249 135.631 155.546 138.494 161.053 130.071L161.053 130.071Z" fill="#78D7B3"/>
<path d="M146.418 70.0829C146.418 70.0829 150.642 70.1977 150.913 75.8552C151.184 81.5128 150.974 85.6565 146.844 85.9096C142.713 86.1627 137.033 81.3057 137.239 75.524C137.445 69.7423 146.418 70.0829 146.418 70.0829Z" fill="#FFB4A5"/>
<path d="M148.665 82.7635C148.665 82.7635 147.426 82.6121 146.442 81.6279" stroke="#313259" stroke-width="0.55" stroke-linecap="round" stroke-linejoin="round"/>
<path d="M141.284 75.6901C141.284 75.6901 146.371 76.9058 148.894 73.5588C151.417 70.2119 151.879 66.5901 149.228 65.7703C146.379 64.8894 144.658 67.5556 142.518 67.5556C139.045 67.5556 135.598 66.8034 132.67 68.7915C129.131 71.1939 127.531 75.7238 128.452 78.6204C130.017 83.5452 130.653 85.5745 127.055 87.4435C123.458 89.3126 117.395 88.8273 116.975 93.3966C116.554 97.966 120.238 103.796 125.819 103.242C131.4 102.688 133.226 98.7822 138.117 100.775C143.007 102.768 149.713 98.6302 148.448 93.5898C147.182 88.5494 142.658 84.5659 142.37 82.0433C142.083 79.5208 140.798 78.7188 140.798 78.7188L141.284 75.6899L141.284 75.6901Z" fill="url(#paint10_linear_179_10888)"/>
<mask id="mask0_179_10888" style="mask-type:luminance" maskUnits="userSpaceOnUse" x="116" y="65" width="36" height="39">
<path d="M141.284 75.6901C141.284 75.6901 146.371 76.9058 148.894 73.5588C151.417 70.2119 151.878 66.5901 149.227 65.7703C146.378 64.8894 144.658 67.5556 142.518 67.5556C139.045 67.5556 135.598 66.8034 132.669 68.7915C129.13 71.1939 127.531 75.7238 128.451 78.6204C130.016 83.5452 130.652 85.5745 127.055 87.4435C123.458 89.3126 117.395 88.8273 116.974 93.3966C116.554 97.966 120.238 103.796 125.819 103.242C131.4 102.688 133.226 98.7822 138.116 100.775C143.007 102.768 149.713 98.6302 148.447 93.5898C147.182 88.5494 142.657 84.5659 142.37 82.0433C142.083 79.5208 140.797 78.7188 140.797 78.7188L141.284 75.6899L141.284 75.6901Z" fill="white"/>
</mask>
<g mask="url(#mask0_179_10888)">
<path d="M145.707 66.1885C145.707 66.1885 147.056 73.3136 141.275 72.1884" stroke="#1C7E8E" stroke-width="0.55" stroke-linecap="round" stroke-linejoin="round"/>
<path d="M148.69 65.5576C148.69 65.5576 150.081 69.2114 147.548 71.7451C145.014 74.2789 141.121 73.5349 141.121 73.5349" stroke="#1C7E8E" stroke-width="0.55" stroke-linecap="round" stroke-linejoin="round"/>
<path d="M137.747 69.5459C137.747 69.5459 134.423 69.7245 132.855 72.4095C130.312 76.7631 133.28 79.0691 133.918 81.6522C134.82 85.307 133.538 88.2484 126.126 87.6445" stroke="#1C7E8E" stroke-width="0.55" stroke-linecap="round" stroke-linejoin="round"/>
<path d="M138.154 71.5195C138.154 71.5195 134.305 72.635 136.32 78.9124C138.336 85.1898 137.777 90.4037 133.588 92.0698C129.399 93.736 123.155 92.4974 120.9 96.037C118.645 99.5767 121.142 102.624 121.142 102.624" stroke="#1C7E8E" stroke-width="0.55" stroke-linecap="round" stroke-linejoin="round"/>
<path d="M139.951 80.1016C139.951 80.1016 142.685 87.6465 138.461 91.2623C134.238 94.8781 130.254 95.3215 129.449 98.5874C128.649 101.829 133.11 101.341 133.11 101.341" stroke="#1C7E8E" stroke-width="0.55" stroke-linecap="round" stroke-linejoin="round"/>
<path d="M141.688 80.1016C141.688 80.1016 146.326 90.7669 143.279 94.8389C139.064 100.471 135.445 100.678 135.445 100.678" stroke="#1C7E8E" stroke-width="0.55" stroke-linecap="round" stroke-linejoin="round"/>
</g>
<path d="M151.189 77.8867H148.582C147.849 77.8867 147.256 78.4803 147.256 79.2124C147.256 79.9446 147.849 80.5382 148.582 80.5382H151.189C151.922 80.5382 152.515 79.9446 152.515 79.2124C152.515 78.4803 151.922 77.8867 151.189 77.8867Z" fill="#FFB4A5"/>
<path d="M141.111 77.4099C141.603 75.7551 142.305 72.0467 140.654 67.5007C140.601 67.3552 140.462 67.2588 140.307 67.2588H136.811C136.549 67.2588 136.37 67.5251 136.469 67.7683L140.414 77.4426C140.546 77.7657 141.011 77.7443 141.111 77.4099H141.111Z" fill="#5640FA"/>
<path d="M140.403 81.1261C141.991 81.1261 143.279 79.8385 143.279 78.2501C143.279 76.6617 141.991 75.374 140.403 75.374C138.815 75.374 137.527 76.6617 137.527 78.2501C137.527 79.8385 138.815 81.1261 140.403 81.1261Z" fill="#FFB4A5"/>
<path d="M139.606 76.9883L141.969 78.9781L139.952 80.1016L139.606 76.9883Z" fill="url(#paint11_linear_179_10888)"/>
<path d="M212.513 178.159H143.9C143.063 178.159 142.384 178.838 142.384 179.675V182.048C142.384 182.885 143.063 183.564 143.9 183.564H212.513C213.35 183.564 214.029 182.885 214.029 182.048V179.675C214.029 178.838 213.35 178.159 212.513 178.159Z" fill="#7CA6E3"/>
<path d="M171.861 183.565H176.168C177.067 183.565 177.867 182.994 178.159 182.144L190.749 145.544C191.219 144.176 190.204 142.753 188.758 142.753H184.451C183.552 142.753 182.752 143.324 182.46 144.174L169.87 180.774C169.399 182.141 170.415 183.565 171.861 183.565Z" fill="#7CA6E3"/>
<path d="M173.217 183.565H212.526C213.425 183.565 214.225 182.994 214.517 182.144L227.107 145.544C227.578 144.176 226.562 142.753 225.116 142.753H188.758C187.859 142.753 187.059 143.324 186.767 144.174L173.217 183.565Z" fill="url(#paint12_linear_179_10888)"/>
<path d="M248.939 183.564H26.0612" stroke="#313259" stroke-width="1.1" stroke-linecap="round" stroke-linejoin="round"/>
<defs>
<linearGradient id="paint0_linear_179_10888" x1="231.942" y1="50.6293" x2="178.049" y2="123.122" gradientUnits="userSpaceOnUse">
<stop offset="0.03" stop-color="#FFF9E9"/>
<stop offset="0.184" stop-color="#F7F4E9"/>
<stop offset="0.416" stop-color="#E2E8EA"/>
<stop offset="0.699" stop-color="#C0D5EB"/>
<stop offset="1" stop-color="#94BDED"/>
</linearGradient>
<linearGradient id="paint1_linear_179_10888" x1="188.884" y1="70.2479" x2="220.526" y2="100.18" gradientUnits="userSpaceOnUse">
<stop offset="0.064" stop-color="#94BDED"/>
<stop offset="0.183" stop-color="#91BBEA"/>
<stop offset="0.269" stop-color="#87B6E3"/>
<stop offset="0.346" stop-color="#77AED6"/>
<stop offset="0.416" stop-color="#61A2C4"/>
<stop offset="0.483" stop-color="#4493AD"/>
<stop offset="0.546" stop-color="#218092"/>
<stop offset="0.554" stop-color="#1C7E8E"/>
</linearGradient>
<linearGradient id="paint2_linear_179_10888" x1="195.286" y1="50.4118" x2="192.448" y2="79.0703" gradientUnits="userSpaceOnUse">
<stop offset="0.223" stop-color="#1C7E8E"/>
<stop offset="0.234" stop-color="#368CA3"/>
<stop offset="0.249" stop-color="#539BBA"/>
<stop offset="0.265" stop-color="#6BA7CC"/>
<stop offset="0.284" stop-color="#7DB1DB"/>
<stop offset="0.306" stop-color="#8AB7E5"/>
<stop offset="0.336" stop-color="#91BBEB"/>
<stop offset="0.399" stop-color="#94BDED"/>
<stop offset="0.433" stop-color="#91BBEA"/>
<stop offset="0.459" stop-color="#87B6E3"/>
<stop offset="0.481" stop-color="#77AED6"/>
<stop offset="0.502" stop-color="#60A2C4"/>
<stop offset="0.522" stop-color="#4392AD"/>
<stop offset="0.54" stop-color="#208091"/>
<stop offset="0.543" stop-color="#1C7E8E"/>
</linearGradient>
<linearGradient id="paint3_linear_179_10888" x1="79.8228" y1="59.8048" x2="140.797" y2="97.948" gradientUnits="userSpaceOnUse">
<stop offset="0.659" stop-color="#1C7E8E"/>
<stop offset="0.723" stop-color="#1F7285"/>
<stop offset="0.837" stop-color="#275370"/>
<stop offset="0.941" stop-color="#313259"/>
</linearGradient>
<linearGradient id="paint4_linear_179_10888" x1="120.352" y1="39.3585" x2="52.9518" y2="91.8399" gradientUnits="userSpaceOnUse">
<stop offset="0.331" stop-color="#94BDED"/>
<stop offset="0.383" stop-color="#90BAE9"/>
<stop offset="0.433" stop-color="#84B4E0"/>
<stop offset="0.483" stop-color="#70AAD1"/>
<stop offset="0.532" stop-color="#559CBB"/>
<stop offset="0.581" stop-color="#3289A0"/>
<stop offset="0.607" stop-color="#1C7E8E"/>
</linearGradient>
<linearGradient id="paint5_linear_179_10888" x1="136.901" y1="84.8081" x2="62.766" y2="97.9215" gradientUnits="userSpaceOnUse">
<stop offset="0.254" stop-color="#FFF9E9"/>
<stop offset="0.357" stop-color="#FFF6E6"/>
<stop offset="0.429" stop-color="#FFEEDD"/>
<stop offset="0.491" stop-color="#FFDFCD"/>
<stop offset="0.548" stop-color="#FFCBB7"/>
<stop offset="0.601" stop-color="#FFB19B"/>
<stop offset="0.651" stop-color="#FF9178"/>
<stop offset="0.698" stop-color="#FF6C50"/>
<stop offset="0.72" stop-color="#FF593B"/>
</linearGradient>
<linearGradient id="paint6_linear_179_10888" x1="107.095" y1="32.9279" x2="141.672" y2="94.7159" gradientUnits="userSpaceOnUse">
<stop offset="0.527" stop-color="#FFF9E9"/>
<stop offset="0.569" stop-color="#FFF6E6"/>
<stop offset="0.599" stop-color="#FFEEDD"/>
<stop offset="0.625" stop-color="#FFDFCD"/>
<stop offset="0.649" stop-color="#FFCBB7"/>
<stop offset="0.671" stop-color="#FFB19B"/>
<stop offset="0.692" stop-color="#FF9178"/>
<stop offset="0.711" stop-color="#FF6C50"/>
<stop offset="0.72" stop-color="#FF593B"/>
</linearGradient>
<linearGradient id="paint7_linear_179_10888" x1="145.729" y1="28.6486" x2="179.769" y2="66.0431" gradientUnits="userSpaceOnUse">
<stop stop-color="#FFF9E9"/>
<stop offset="0.162" stop-color="#D7E2EA"/>
<stop offset="0.338" stop-color="#B2CEEB"/>
<stop offset="0.48" stop-color="#9CC1EC"/>
<stop offset="0.571" stop-color="#94BDED"/>
</linearGradient>
<linearGradient id="paint8_linear_179_10888" x1="113.166" y1="116.614" x2="63.1498" y2="156.721" gradientUnits="userSpaceOnUse">
<stop offset="0.438" stop-color="#FFF9E9"/>
<stop offset="0.477" stop-color="#FFF0DF"/>
<stop offset="0.541" stop-color="#FFD9C7"/>
<stop offset="0.623" stop-color="#FFB49E"/>
<stop offset="0.718" stop-color="#FF8167"/>
<stop offset="0.786" stop-color="#FF593B"/>
</linearGradient>
<linearGradient id="paint9_linear_179_10888" x1="55.8381" y1="58.9867" x2="72.7431" y2="127.273" gradientUnits="userSpaceOnUse">
<stop offset="0.127" stop-color="#FFF9E9"/>
<stop offset="0.367" stop-color="#FCF7E9"/>
<stop offset="0.514" stop-color="#F3F2E9"/>
<stop offset="0.636" stop-color="#E5EAE9"/>
<stop offset="0.745" stop-color="#D1DFEA"/>
<stop offset="0.843" stop-color="#B6D0EB"/>
<stop offset="0.935" stop-color="#96BEEC"/>
<stop offset="0.942" stop-color="#94BDED"/>
</linearGradient>
<linearGradient id="paint10_linear_179_10888" x1="108.198" y1="113.801" x2="156.372" y2="67.8554" gradientUnits="userSpaceOnUse">
<stop offset="0.282" stop-color="#71DBA3"/>
<stop offset="0.327" stop-color="#73CDB3"/>
<stop offset="0.414" stop-color="#78B7CD"/>
<stop offset="0.492" stop-color="#7BAADD"/>
<stop offset="0.553" stop-color="#7CA6E3"/>
<stop offset="0.661" stop-color="#77BBC8"/>
<stop offset="0.777" stop-color="#73CDB3"/>
<stop offset="0.891" stop-color="#71D7A7"/>
<stop offset="1" stop-color="#71DBA3"/>
</linearGradient>
<linearGradient id="paint11_linear_179_10888" x1="137.309" y1="80.3378" x2="144.668" y2="75.3573" gradientUnits="userSpaceOnUse">
<stop offset="0.355" stop-color="#FFB4A5"/>
<stop offset="0.413" stop-color="#FCB2A4"/>
<stop offset="0.441" stop-color="#F5ADA1"/>
<stop offset="0.463" stop-color="#E8A59C"/>
<stop offset="0.481" stop-color="#D59995"/>
<stop offset="0.497" stop-color="#BD8A8C"/>
<stop offset="0.512" stop-color="#A07881"/>
<stop offset="0.526" stop-color="#7C6174"/>
<stop offset="0.538" stop-color="#554866"/>
<stop offset="0.547" stop-color="#313259"/>
</linearGradient>
<linearGradient id="paint12_linear_179_10888" x1="225.218" y1="143.392" x2="165.762" y2="191.214" gradientUnits="userSpaceOnUse">
<stop offset="0.297" stop-color="#FFF9E9"/>
<stop offset="0.439" stop-color="#FBF6E9"/>
<stop offset="0.574" stop-color="#EFF0E9"/>
<stop offset="0.706" stop-color="#DCE5EA"/>
<stop offset="0.835" stop-color="#C1D6EB"/>
<stop offset="0.962" stop-color="#9FC3EC"/>
<stop offset="1" stop-color="#94BDED"/>
</linearGradient>
</defs>
</svg>
