<svg width="275" height="220" viewBox="0 0 275 220" fill="none" xmlns="http://www.w3.org/2000/svg">
<g clip-path="url(#clip0_179_10688)">
<path d="M129.801 33.7365H120.95C120.867 33.7365 120.788 33.7035 120.73 33.6448C120.671 33.586 120.638 33.5064 120.638 33.4233C120.638 33.3403 120.671 33.2606 120.73 33.2019C120.788 33.1432 120.867 33.1102 120.95 33.1102H129.489V22.9547C129.489 22.8717 129.522 22.792 129.581 22.7333C129.639 22.6746 129.718 22.6416 129.801 22.6416C129.884 22.6416 129.963 22.6746 130.022 22.7333C130.08 22.792 130.113 22.8717 130.113 22.9547V33.4233C130.113 33.5064 130.08 33.586 130.022 33.6448C129.963 33.7035 129.884 33.7365 129.801 33.7365ZM142.13 37.7683C142.047 37.7683 141.968 37.7353 141.909 37.6766C141.851 37.6178 141.818 37.5382 141.818 37.4551V22.9547C141.818 22.8717 141.851 22.792 141.909 22.7333C141.968 22.6746 142.047 22.6416 142.13 22.6416C142.213 22.6416 142.292 22.6746 142.351 22.7333C142.409 22.792 142.442 22.8717 142.442 22.9547V37.4551C142.442 37.5382 142.409 37.6178 142.351 37.6766C142.292 37.7353 142.213 37.7683 142.13 37.7683ZM177.557 40.1025H154.427C154.344 40.1025 154.264 40.0695 154.206 40.0108C154.147 39.952 154.115 39.8724 154.115 39.7893V22.9547C154.115 22.8717 154.147 22.792 154.206 22.7333C154.264 22.6746 154.344 22.6416 154.427 22.6416C154.509 22.6416 154.589 22.6746 154.647 22.7333C154.706 22.792 154.738 22.8717 154.738 22.9547V39.4762H177.557C177.64 39.4762 177.719 39.5091 177.778 39.5679C177.836 39.6266 177.869 39.7062 177.869 39.7893C177.869 39.8723 177.836 39.952 177.778 40.0107C177.719 40.0694 177.64 40.1025 177.557 40.1025Z" fill="#1C7E8E"/>
<path d="M142.13 41.5783C140.912 41.5783 139.921 40.5833 139.921 39.3601C139.921 38.137 140.912 37.1419 142.13 37.1419C143.348 37.1419 144.339 38.137 144.339 39.3601C144.339 40.5833 143.348 41.5783 142.13 41.5783ZM142.13 37.7682C141.256 37.7682 140.544 38.4823 140.544 39.3601C140.544 40.2379 141.256 40.952 142.13 40.952C143.004 40.952 143.715 40.2379 143.715 39.3601C143.715 38.4823 143.004 37.7682 142.13 37.7682ZM118.699 35.6415C117.48 35.6415 116.489 34.6464 116.489 33.4233C116.489 32.2001 117.48 31.2051 118.699 31.2051C119.917 31.2051 120.908 32.2001 120.908 33.4233C120.908 34.6464 119.917 35.6415 118.699 35.6415ZM118.699 31.8314C117.824 31.8314 117.113 32.5455 117.113 33.4233C117.113 34.3011 117.824 35.0152 118.699 35.0152C119.573 35.0152 120.284 34.3011 120.284 33.4233C120.284 32.5455 119.573 31.8314 118.699 31.8314Z" fill="#1C7E8E"/>
<path d="M161.608 23.3067H122.717C122.028 23.3067 121.47 22.7459 121.47 22.0541V13.2418C121.47 12.55 122.028 11.9893 122.717 11.9893H161.608C162.297 11.9893 162.855 12.55 162.855 13.2418V22.0541C162.855 22.7459 162.297 23.3067 161.608 23.3067Z" fill="url(#paint0_linear_179_10688)"/>
</g>
<g clip-path="url(#clip1_179_10688)">
<path d="M34.0695 11.5498H47.1379L52.8006 18.377V36.8477C52.8006 37.6387 52.2728 38.2799 51.6218 38.2799H34.0695C33.4184 38.2798 32.8906 37.6386 32.8906 36.8475V12.9821C32.8906 12.191 33.4184 11.5498 34.0695 11.5498Z" fill="url(#paint1_linear_179_10688)"/>
<path d="M47.1379 11.5498V17.2858C47.1379 17.8885 47.54 18.377 48.0361 18.377H52.8007L47.1379 11.5498ZM48.0276 34.6745H37.6637C36.6416 34.6745 35.81 33.8467 35.81 32.8291V21.2335C35.81 20.2159 36.6416 19.3881 37.6637 19.3881H48.0276C49.0497 19.3881 49.8813 20.2159 49.8813 21.2335V32.8291C49.8813 33.8467 49.0497 34.6745 48.0276 34.6745ZM37.6637 20.6183C37.323 20.6183 37.0458 20.8943 37.0458 21.2335V32.8291C37.0458 33.1683 37.323 33.4442 37.6637 33.4442H48.0276C48.3683 33.4442 48.6455 33.1683 48.6455 32.8291V21.2335C48.6455 20.8943 48.3683 20.6183 48.0276 20.6183H37.6637Z" fill="#FFF9E9"/>
<path d="M41.0557 28.3061L38.6187 27.2983V26.8843L41.0557 25.8765V26.3976L39.3495 27.0933L41.0557 27.7851V28.3061ZM43.7172 25.4678L42.2705 28.8818H41.7106L43.1513 25.4678H43.7172ZM46.9295 27.2983L44.4924 28.3061V27.785L46.1986 27.0912L44.4924 26.3975V25.8763L46.9295 26.8842V27.2983Z" fill="#FFF9E9"/>
</g>
<g clip-path="url(#clip2_179_10688)">
<path d="M108.969 77.9902H47.563C46.2031 77.9902 45.1008 76.8892 45.1008 75.531V30.6193C45.1008 29.2611 46.2031 28.1602 47.563 28.1602H108.969C110.328 28.1602 111.431 29.2611 111.431 30.6193V75.531C111.431 76.8891 110.328 77.9902 108.969 77.9902Z" fill="url(#paint2_linear_179_10688)"/>
<path d="M49.2007 32.849C49.8692 32.849 50.4111 32.3147 50.4111 31.6555C50.4111 30.9963 49.8692 30.4619 49.2007 30.4619C48.5322 30.4619 47.9902 30.9963 47.9902 31.6555C47.9902 32.3147 48.5322 32.849 49.2007 32.849Z" fill="#FF593B"/>
<path d="M53.0419 32.849C53.7104 32.849 54.2523 32.3147 54.2523 31.6555C54.2523 30.9963 53.7104 30.4619 53.0419 30.4619C52.3734 30.4619 51.8314 30.9963 51.8314 31.6555C51.8314 32.3147 52.3734 32.849 53.0419 32.849Z" fill="#F9E79B"/>
<path d="M56.883 32.849C57.5515 32.849 58.0934 32.3147 58.0934 31.6555C58.0934 30.9963 57.5515 30.4619 56.883 30.4619C56.2145 30.4619 55.6725 30.9963 55.6725 31.6555C55.6725 32.3147 56.2145 32.849 56.883 32.849Z" fill="#1C7E8E"/>
<path d="M95.2666 69.1139H56.0154C55.3354 69.1139 54.7842 68.5634 54.7842 67.8843V54.1997C54.7842 53.5206 55.3354 52.9702 56.0154 52.9702H95.2666C95.9465 52.9702 96.4977 53.5206 96.4977 54.1997V67.8843C96.4977 68.5633 95.9465 69.1139 95.2666 69.1139ZM102.385 47.7147H55.8771C55.5873 47.7147 55.3093 47.8297 55.1043 48.0344C54.8994 48.2391 54.7842 48.5167 54.7842 48.8062C54.7842 49.0956 54.8994 49.3733 55.1043 49.578C55.3093 49.7827 55.5873 49.8977 55.8771 49.8977H102.385C102.674 49.8977 102.952 49.7827 103.157 49.578C103.362 49.3733 103.477 49.0956 103.477 48.8062C103.477 48.5167 103.362 48.2391 103.157 48.0344C102.952 47.8297 102.674 47.7147 102.385 47.7147ZM102.385 43.2079H55.8771C55.5873 43.2079 55.3093 43.3229 55.1043 43.5275C54.8994 43.7322 54.7842 44.0099 54.7842 44.2994C54.7842 44.5888 54.8994 44.8665 55.1043 45.0712C55.3093 45.2759 55.5873 45.3909 55.8771 45.3909H102.385C102.674 45.3909 102.952 45.2759 103.157 45.0712C103.362 44.8665 103.477 44.5888 103.477 44.2994C103.477 44.0099 103.362 43.7322 103.157 43.5275C102.952 43.3229 102.674 43.2079 102.385 43.2079ZM102.385 38.7012H55.8771C55.5873 38.7012 55.3093 38.8162 55.1043 39.0209C54.8994 39.2256 54.7842 39.5032 54.7842 39.7927C54.7842 40.0822 54.8994 40.3598 55.1043 40.5645C55.3093 40.7692 55.5873 40.8842 55.8771 40.8842H102.385C102.674 40.8842 102.952 40.7692 103.157 40.5645C103.362 40.3598 103.477 40.0822 103.477 39.7927C103.477 39.5032 103.362 39.2256 103.157 39.0209C102.952 38.8162 102.674 38.7012 102.385 38.7012Z" fill="#FFF9E9"/>
<path d="M45.1008 62.9714V46.83L64.5663 28.1602H84.1475L45.1008 62.9714Z" fill="url(#paint3_linear_179_10688)"/>
</g>
<g clip-path="url(#clip3_179_10688)">
<path d="M178.421 76.6699H207.459C208.128 76.6699 208.67 76.1262 208.67 75.4556V35.0942C208.67 34.4235 208.128 33.8799 207.459 33.8799H178.421C177.752 33.8799 177.21 34.4235 177.21 35.0942V75.4556C177.21 76.1262 177.752 76.6699 178.421 76.6699Z" fill="url(#paint4_linear_179_10688)"/>
<path d="M203.491 72.7915H182.389C181.72 72.7915 181.178 72.2478 181.178 71.5771V63.2778C181.178 62.6071 181.72 62.0635 182.389 62.0635H203.491C204.16 62.0635 204.702 62.6071 204.702 63.2778V71.5771C204.702 72.2478 204.16 72.7915 203.491 72.7915Z" fill="#FFF9E9"/>
<path d="M192.551 54.2457H182.389C181.72 54.2457 181.178 53.7021 181.178 53.0314V39.0024C181.178 38.3317 181.72 37.7881 182.389 37.7881H192.551C193.22 37.7881 193.762 38.3317 193.762 39.0024V53.0314C193.762 53.7021 193.219 54.2457 192.551 54.2457Z" fill="url(#paint5_linear_179_10688)"/>
<path d="M182.709 59.1057C183.555 59.1057 184.24 58.4183 184.24 57.5704C184.24 56.7225 183.555 56.0352 182.709 56.0352C181.863 56.0352 181.178 56.7225 181.178 57.5704C181.178 58.4183 181.863 59.1057 182.709 59.1057Z" fill="#FFF9E9"/>
<path d="M189.53 59.1057C190.375 59.1057 191.061 58.4183 191.061 57.5704C191.061 56.7225 190.375 56.0352 189.53 56.0352C188.684 56.0352 187.999 56.7225 187.999 57.5704C187.999 58.4183 188.684 59.1057 189.53 59.1057Z" fill="#FFF9E9"/>
<path d="M196.35 59.1057C197.196 59.1057 197.882 58.4183 197.882 57.5704C197.882 56.7225 197.196 56.0352 196.35 56.0352C195.505 56.0352 194.819 56.7225 194.819 57.5704C194.819 58.4183 195.505 59.1057 196.35 59.1057Z" fill="#FFF9E9"/>
<path d="M203.171 59.1057C204.017 59.1057 204.702 58.4183 204.702 57.5704C204.702 56.7225 204.017 56.0352 203.171 56.0352C202.325 56.0352 201.64 56.7225 201.64 57.5704C201.64 58.4183 202.325 59.1057 203.171 59.1057Z" fill="#FFF9E9"/>
<path d="M198.987 48.2654L195.619 46.8628V46.2866L198.987 44.8841V45.6093L196.629 46.5776L198.987 47.5403V48.2654ZM202.664 44.3154L200.665 49.0666H199.891L201.882 44.3154H202.664ZM207.102 46.8628L203.735 48.2654V47.5402L206.093 46.5747L203.735 45.6092V44.884L207.102 46.2865V46.8628Z" fill="#FFF9E9"/>
</g>
<g clip-path="url(#clip4_179_10688)">
<path d="M121.804 109.45H105.646L111.852 88.1748H124.263L121.804 109.45Z" fill="#1C7E8E"/>
<path d="M123.186 109.45H107.028L113.234 88.1748H125.645L123.186 109.45Z" fill="url(#paint6_linear_179_10688)"/>
<path d="M132.153 108.882H99.5842C99.4186 108.882 99.2598 108.816 99.1427 108.699C99.0256 108.582 98.9598 108.424 98.9598 108.258V106.712C98.9598 106.546 99.0256 106.388 99.1427 106.271C99.2598 106.154 99.4186 106.088 99.5842 106.088H132.153C132.318 106.088 132.477 106.154 132.594 106.271C132.711 106.388 132.777 106.546 132.777 106.712V108.258C132.777 108.424 132.711 108.582 132.594 108.699C132.477 108.816 132.318 108.882 132.153 108.882Z" fill="#1C7E8E"/>
<path d="M132.719 108.882H106.744C106.578 108.882 106.419 108.816 106.302 108.699C106.185 108.582 106.119 108.424 106.119 108.258V106.712C106.119 106.546 106.185 106.388 106.302 106.271C106.419 106.154 106.578 106.088 106.744 106.088H132.719C132.885 106.088 133.044 106.154 133.161 106.271C133.278 106.388 133.344 106.546 133.344 106.712V108.258C133.344 108.34 133.328 108.421 133.296 108.497C133.265 108.573 133.219 108.641 133.161 108.699C133.103 108.757 133.034 108.803 132.958 108.835C132.883 108.866 132.801 108.882 132.719 108.882Z" fill="#E6EFE8"/>
<path d="M152.17 89.7242H83.8967C82.5174 89.7242 81.3992 88.6074 81.3992 87.2297V47.7045C81.3992 46.3268 82.5174 45.21 83.8967 45.21H152.17C153.549 45.21 154.667 46.3268 154.667 47.7045V87.2297C154.667 88.6074 153.549 89.7242 152.17 89.7242Z" fill="#1C7E8E"/>
<path d="M153.922 89.7242H85.6487C84.2693 89.7242 83.1512 88.6074 83.1512 87.2297V47.7045C83.1512 46.3268 84.2693 45.21 85.6487 45.21H153.922C155.301 45.21 156.419 46.3268 156.419 47.7045V87.2297C156.419 88.6074 155.301 89.7242 153.922 89.7242Z" fill="#DBE7DE"/>
<path d="M147.352 82.5153H106.545C105.855 82.5153 105.296 81.9569 105.296 81.268V52.7365C105.296 52.0477 105.855 51.4893 106.545 51.4893H147.352C148.042 51.4893 148.601 52.0477 148.601 52.7365V81.268C148.601 81.9569 148.042 82.5153 147.352 82.5153Z" fill="url(#paint7_linear_179_10688)"/>
<path d="M145.387 56.2912H108.51C108.344 56.2912 108.185 56.2255 108.068 56.1086C107.951 55.9916 107.885 55.833 107.885 55.6676C107.885 55.5022 107.951 55.3436 108.068 55.2266C108.185 55.1097 108.344 55.0439 108.51 55.0439H145.387C145.552 55.0439 145.711 55.1097 145.828 55.2266C145.945 55.3436 146.011 55.5022 146.011 55.6676C146.011 55.833 145.945 55.9916 145.828 56.1086C145.711 56.2255 145.552 56.2912 145.387 56.2912ZM128.585 60.0697H108.51C108.344 60.0697 108.185 60.004 108.068 59.887C107.951 59.7701 107.885 59.6115 107.885 59.4461C107.885 59.2807 107.951 59.122 108.068 59.0051C108.185 58.8881 108.344 58.8224 108.51 58.8224H128.585C128.751 58.8224 128.91 58.8881 129.027 59.0051C129.144 59.122 129.21 59.2807 129.21 59.4461C129.21 59.6115 129.144 59.7701 129.027 59.887C128.91 60.004 128.751 60.0697 128.585 60.0697ZM145.387 60.0697H133.329C133.163 60.0697 133.004 60.004 132.887 59.887C132.77 59.7701 132.704 59.6115 132.704 59.4461C132.704 59.2807 132.77 59.122 132.887 59.0051C133.004 58.8881 133.163 58.8224 133.329 58.8224H145.387C145.552 58.8224 145.711 58.8881 145.828 59.0051C145.945 59.122 146.011 59.2807 146.011 59.4461C146.011 59.6115 145.945 59.7701 145.828 59.887C145.711 60.004 145.552 60.0697 145.387 60.0697ZM145.387 63.8483H125.708C125.543 63.8483 125.384 63.7826 125.267 63.6657C125.15 63.5487 125.084 63.3901 125.084 63.2247C125.084 63.0593 125.15 62.9007 125.267 62.7837C125.384 62.6667 125.543 62.601 125.708 62.601H145.387C145.552 62.601 145.711 62.6667 145.828 62.7837C145.945 62.9007 146.011 63.0593 146.011 63.2247C146.011 63.3901 145.945 63.5487 145.828 63.6657C145.711 63.7826 145.552 63.8483 145.387 63.8483ZM114.009 63.8483H108.51C108.344 63.8483 108.185 63.7826 108.068 63.6657C107.951 63.5487 107.885 63.3901 107.885 63.2247C107.885 63.0593 107.951 62.9007 108.068 62.7837C108.185 62.6667 108.344 62.601 108.51 62.601H114.009C114.174 62.601 114.333 62.6667 114.45 62.7837C114.567 62.9007 114.633 63.0593 114.633 63.2247C114.633 63.3901 114.567 63.5487 114.45 63.6657C114.333 63.7826 114.174 63.8483 114.009 63.8483ZM130.352 67.6269H108.51C108.344 67.6269 108.185 67.5612 108.068 67.4443C107.951 67.3273 107.885 67.1687 107.885 67.0033C107.885 66.8379 107.951 66.6793 108.068 66.5623C108.185 66.4454 108.344 66.3797 108.51 66.3797H130.352C130.517 66.3797 130.676 66.4454 130.793 66.5623C130.91 66.6793 130.976 66.8379 130.976 67.0033C130.976 67.1687 130.91 67.3273 130.793 67.4443C130.676 67.5612 130.517 67.6269 130.352 67.6269ZM145.387 71.4055H108.51C108.344 71.4055 108.185 71.3398 108.068 71.2229C107.951 71.1059 107.885 70.9473 107.885 70.7819C107.885 70.6165 107.951 70.4579 108.068 70.3409C108.185 70.224 108.344 70.1583 108.51 70.1583H145.387C145.552 70.1583 145.711 70.224 145.828 70.3409C145.945 70.4579 146.011 70.6165 146.011 70.7819C146.011 70.9473 145.945 71.1059 145.828 71.2229C145.711 71.3398 145.552 71.4055 145.387 71.4055ZM145.387 75.184H108.51C108.344 75.184 108.185 75.1183 108.068 75.0014C107.951 74.8844 107.885 74.7258 107.885 74.5604C107.885 74.395 107.951 74.2364 108.068 74.1194C108.185 74.0025 108.344 73.9368 108.51 73.9368H145.387C145.552 73.9368 145.711 74.0025 145.828 74.1194C145.945 74.2364 146.011 74.395 146.011 74.5604C146.011 74.7258 145.945 74.8844 145.828 75.0014C145.711 75.1183 145.552 75.184 145.387 75.184ZM130.757 78.9626H108.51C108.344 78.9626 108.185 78.8969 108.068 78.78C107.951 78.663 107.885 78.5044 107.885 78.339C107.885 78.1736 107.951 78.015 108.068 77.898C108.185 77.7811 108.344 77.7154 108.51 77.7154H130.757C130.922 77.7154 131.081 77.7811 131.198 77.898C131.315 78.015 131.381 78.1736 131.381 78.339C131.381 78.5044 131.315 78.663 131.198 78.78C131.081 78.8969 130.922 78.9626 130.757 78.9626Z" fill="#1C7E8E"/>
<path d="M117.023 85.4685H91.5928C90.9031 85.4685 90.3441 84.9101 90.3441 84.2212V67.2277C90.3441 66.5389 90.9031 65.9805 91.5928 65.9805H117.023C117.713 65.9805 118.272 66.5389 118.272 67.2277V84.2212C118.272 84.9101 117.713 85.4685 117.023 85.4685Z" fill="#5640FA"/>
<path d="M155.927 46.2175L108.106 89.724H88.6405L137.568 45.2109H153.271C154.354 45.2109 155.173 45.2109 155.927 46.2175Z" fill="url(#paint8_linear_179_10688)"/>
<path d="M83.1512 80.5228V64.1493L102.501 45.2109H121.966L83.1512 80.5228Z" fill="url(#paint9_linear_179_10688)"/>
</g>
<g clip-path="url(#clip5_179_10688)">
<path d="M127.433 100.319H129.639C134.285 100.319 138.051 104.053 138.051 108.658V109.449H119.021V108.658C119.021 104.053 122.787 100.319 127.433 100.319Z" fill="url(#paint10_linear_179_10688)"/>
<mask id="mask0_179_10688" style="mask-type:luminance" maskUnits="userSpaceOnUse" x="119" y="100" width="20" height="10">
<path d="M127.434 100.318H129.64C134.286 100.318 138.052 104.052 138.052 108.657V109.448H119.022V108.657C119.022 104.052 122.788 100.318 127.434 100.318Z" fill="white"/>
</mask>
<g mask="url(#mask0_179_10688)">
<path d="M141.637 109.789H122.607C122.516 109.789 122.428 109.753 122.364 109.689C122.299 109.626 122.263 109.539 122.263 109.448V108.657C122.263 103.871 126.191 99.9775 131.019 99.9775H133.225C138.053 99.9775 141.981 103.871 141.981 108.657V109.449C141.981 109.539 141.945 109.626 141.88 109.69C141.816 109.753 141.728 109.789 141.637 109.789ZM122.951 109.108H141.293V108.657C141.293 104.247 137.674 100.659 133.225 100.659H131.019C126.57 100.659 122.951 104.247 122.951 108.657V109.108Z" fill="#313259"/>
</g>
</g>
<g clip-path="url(#clip6_179_10688)">
<path d="M207.985 109.449H65.8048C65.6232 109.449 65.4489 109.386 65.3205 109.272C65.192 109.159 65.1199 109.005 65.1199 108.844C65.1199 108.684 65.192 108.53 65.3205 108.416C65.4489 108.303 65.6232 108.239 65.8048 108.239H207.985C208.167 108.239 208.341 108.303 208.469 108.416C208.598 108.53 208.67 108.684 208.67 108.844C208.67 109.005 208.598 109.159 208.469 109.272C208.341 109.386 208.167 109.449 207.985 109.449Z" fill="#313259"/>
</g>
<g clip-path="url(#clip7_179_10688)">
<path d="M169.588 197.72C169.588 197.72 162.83 196.348 163.348 193.498C163.867 190.648 169.588 191.519 169.588 191.519V197.72Z" fill="#1C202A"/>
<path d="M170.056 200.47L164.852 187.814C162.638 182.43 165.204 176.269 170.583 174.053C175.962 171.837 182.117 174.405 184.331 179.789L189.536 192.445C191.75 197.829 189.184 203.99 183.805 206.206C178.426 208.422 172.271 205.854 170.056 200.47Z" fill="url(#paint11_linear_179_10688)"/>
<path d="M169.714 132.92L187.982 180.096L160.001 190.13L141.699 143.911C138.531 135.912 142.692 126.887 150.828 124.11C158.466 121.502 166.798 125.39 169.714 132.92Z" fill="url(#paint12_linear_179_10688)"/>
<path d="M196.302 211.969C196.302 211.969 193.408 196.078 191.161 192.443C191.161 192.443 182.822 190.266 180.353 198.38C180.353 198.38 173.147 195.634 167.61 195.346C167.61 195.346 155.912 195.337 155.703 201.767C155.494 208.196 155.923 211.969 155.923 211.969H196.302Z" fill="#313644"/>
<path d="M195.599 207.968H161.81C161.729 207.968 161.65 207.935 161.593 207.878C161.535 207.82 161.502 207.741 161.502 207.66C161.502 207.578 161.535 207.499 161.593 207.442C161.65 207.384 161.729 207.351 161.81 207.351H195.599C195.681 207.351 195.759 207.384 195.817 207.442C195.875 207.499 195.907 207.578 195.907 207.66C195.907 207.741 195.875 207.82 195.817 207.878C195.759 207.935 195.681 207.968 195.599 207.968ZM180.352 198.38C180.352 198.38 182.852 201.659 186.987 202.338C190.83 202.97 192.657 201.084 193.368 198.654C192.642 195.954 191.87 193.589 191.161 192.443C191.161 192.443 182.822 190.266 180.352 198.38Z" fill="#CCD6EF"/>
<path d="M94.8347 186.974C96.9104 184.533 104.289 186.688 101.824 190.359C101.167 191.337 98.1328 193.484 94.4399 193.201C93.2658 193.111 92.6564 189.536 94.8347 186.974Z" fill="#1C202A"/>
<path d="M98.0696 189.65L102.161 176.591C103.902 171.036 109.813 167.945 115.363 169.687C120.913 171.429 124.002 177.345 122.261 182.9L118.169 195.959C116.429 201.515 110.518 204.606 104.968 202.863C99.4174 201.121 96.329 195.206 98.0696 189.65Z" fill="url(#paint13_linear_179_10688)"/>
<path d="M122.363 211.969C122.363 211.969 121.356 196.594 119.109 192.96C119.109 192.96 112.114 188.042 107.18 196.16C107.18 196.16 102.03 191.905 97.9538 191.394C97.9538 191.394 80.5982 190.853 79.0809 197.103C77.5859 203.261 78.1963 211.968 78.1963 211.968L122.363 211.969Z" fill="#313644"/>
<path d="M121.722 207.967H78.077C77.9953 207.967 77.917 207.935 77.8592 207.877C77.8015 207.819 77.769 207.741 77.769 207.659C77.769 207.577 77.8015 207.499 77.8592 207.441C77.917 207.383 77.9953 207.351 78.077 207.351H121.722C121.804 207.351 121.882 207.383 121.94 207.441C121.998 207.499 122.03 207.577 122.03 207.659C122.03 207.741 121.998 207.819 121.94 207.877C121.882 207.935 121.804 207.967 121.722 207.967ZM115.662 203.448C118.954 203.816 120.512 202.17 121.023 199.931C120.53 196.944 119.896 194.232 119.109 192.96C119.109 192.96 112.114 188.043 107.18 196.161C107.922 198.457 110.328 202.851 115.662 203.448Z" fill="#CCD6EF"/>
<path d="M143.126 134.851L124.809 185.247L96.777 175.536L114.522 124.648C117.26 116.795 125.797 112.605 133.678 115.245C141.775 117.959 146.045 126.82 143.126 134.851Z" fill="url(#paint14_linear_179_10688)"/>
<path d="M176.612 112.082L128.382 114.355C119.904 114.754 113.402 122.035 113.951 130.512C114.492 138.863 121.68 145.203 130.026 144.69C144.723 142.136 156.823 141.051 165.397 140.538C183.539 139.452 194.452 140.412 201.767 132.639C205.406 128.772 206.841 124.141 207.482 120.824L176.612 112.082Z" fill="url(#paint15_linear_179_10688)"/>
<path d="M184.288 68.8169C184.417 68.8036 184.545 68.7849 184.672 68.761C185.806 68.5513 192.9 67.7274 199.856 78.1567C207.444 89.5342 209.473 110.35 208.404 117.135C208.388 117.238 208.372 117.34 208.355 117.442C206.619 128.09 196.38 135.153 185.819 132.994L164.725 128.68C162.484 128.222 160.882 126.239 160.903 123.95L161.351 75.4023C161.374 72.9631 163.227 70.9316 165.652 70.6881L184.288 68.8169Z" fill="#72D2AF"/>
<path d="M137.153 104.901C133.647 105.707 129.773 104.687 127.116 102.26C126.608 101.795 126.12 101.238 126.024 100.556C125.917 99.8056 126.305 99.0825 126.692 98.4312C127.428 97.1944 128.217 95.9759 129.221 94.946C130.225 93.9161 131.465 93.0769 132.862 92.738C135.063 92.2042 137.358 92.9507 139.455 93.8079C141.314 94.5683 143.157 95.4374 144.707 96.7152C145.508 97.3749 146.236 98.1572 146.656 99.106C147.077 100.055 147.158 101.19 146.698 102.12C146.195 103.138 145.143 103.765 144.09 104.188C141.805 105.106 139.243 105.322 137.153 104.901Z" fill="url(#paint16_linear_179_10688)"/>
<path d="M127.676 101.632C125.679 101.591 123.689 101.866 121.779 102.447C121.329 102.584 120.875 102.74 120.405 102.741C119.934 102.742 119.433 102.557 119.19 102.154C118.938 101.737 119.023 101.182 119.282 100.769C119.541 100.356 119.945 100.06 120.35 99.7899C122.139 98.6004 124.211 97.7286 126.358 97.7374C126.996 97.74 127.646 97.8237 128.225 98.0935C128.803 98.3632 129.307 98.8373 129.51 99.4429C129.714 100.049 129.571 100.783 129.086 101.198C128.632 101.585 127.991 101.639 127.676 101.632Z" fill="#C96363"/>
<path d="M120.573 100.353C120.039 100.484 119.512 99.9697 119.448 99.4227C119.383 98.8758 119.654 98.345 119.974 97.8974C120.737 96.833 121.821 96.0253 123.005 95.4676C124.189 94.9099 125.473 94.5918 126.765 94.3863C127.689 94.2395 128.642 94.1496 129.553 94.363C130.464 94.5764 131.334 95.1383 131.715 95.9932C131.971 96.5673 131.964 97.3014 131.54 97.7659C131.268 98.0649 130.871 98.2111 130.488 98.3419C127.241 99.4513 123.778 99.5656 120.573 100.353Z" fill="#C96363"/>
<path d="M123.553 95.8524C123.749 94.918 124.388 94.1176 125.171 93.5726C125.954 93.0275 126.874 92.7135 127.801 92.4879C130.387 91.8587 133.127 91.8759 135.704 92.5375C136.254 92.6786 136.806 92.853 137.276 93.1716C137.747 93.4902 138.131 93.9733 138.218 94.535C138.304 95.0969 138.036 95.7265 137.518 95.9592C137.254 96.0777 136.956 96.0879 136.667 96.0964L130.807 96.2668L124.836 96.4404C124.579 96.4478 124.317 96.4545 124.074 96.3734C123.83 96.2922 123.501 96.1041 123.553 95.8524Z" fill="#C96363"/>
<path d="M119.282 101.078C119.227 101.078 119.173 101.063 119.125 101.035C119.078 101.007 119.039 100.967 119.012 100.919C118.986 100.871 118.972 100.816 118.974 100.761C118.976 100.706 118.992 100.652 119.021 100.606C119.32 100.129 119.776 99.8023 120.18 99.5337C122.292 98.1294 124.371 97.4228 126.36 97.4297C127.153 97.4329 127.806 97.5588 128.355 97.8145C128.392 97.8312 128.426 97.8552 128.453 97.885C128.481 97.9148 128.503 97.9498 128.517 97.9881C128.531 98.0264 128.538 98.0671 128.536 98.1079C128.535 98.1487 128.525 98.1888 128.508 98.2258C128.491 98.2628 128.466 98.296 128.436 98.3235C128.406 98.351 128.37 98.3722 128.332 98.386C128.294 98.3997 128.253 98.4056 128.212 98.4034C128.171 98.4013 128.132 98.391 128.095 98.3733C127.628 98.156 127.06 98.049 126.357 98.0461H126.326C124.47 98.0461 122.518 98.7192 120.521 100.047C120.17 100.28 119.777 100.56 119.542 100.934C119.515 100.978 119.476 101.014 119.431 101.04C119.385 101.065 119.334 101.078 119.282 101.078ZM123.89 95.2695C123.815 95.2695 123.743 95.2421 123.687 95.1926C123.631 95.1431 123.594 95.0748 123.585 95.0004C123.575 94.9261 123.593 94.8508 123.635 94.7887C123.677 94.7266 123.74 94.6819 123.813 94.663C123.886 94.6438 125.644 94.1903 127.81 94.1651C129.108 94.1498 130.202 94.3989 130.248 94.4095C130.326 94.429 130.394 94.4785 130.436 94.5474C130.478 94.6163 130.492 94.699 130.474 94.7778C130.456 94.8566 130.407 94.9251 130.339 94.9686C130.271 95.0121 130.188 95.027 130.109 95.0102C130.099 95.0077 129.037 94.7673 127.817 94.7815C125.726 94.8058 123.986 95.2548 123.968 95.2594C123.943 95.2661 123.917 95.2695 123.89 95.2695ZM132.745 93.1037C132.712 93.1037 132.679 93.0985 132.647 93.0876C132.626 93.0806 130.509 92.3821 128.715 92.6068C128.675 92.6118 128.635 92.6089 128.596 92.5982C128.557 92.5874 128.52 92.5691 128.488 92.5443C128.456 92.5194 128.43 92.4885 128.41 92.4534C128.39 92.4182 128.377 92.3794 128.372 92.3392C128.367 92.2991 128.37 92.2583 128.38 92.2193C128.391 92.1802 128.409 92.1437 128.434 92.1118C128.459 92.0798 128.49 92.0531 128.525 92.033C128.56 92.013 128.599 92.0001 128.639 91.9951C130.574 91.7527 132.751 92.4724 132.842 92.5031C132.912 92.5263 132.971 92.5734 133.008 92.6361C133.046 92.6987 133.06 92.7728 133.049 92.845C133.037 92.9173 133 92.9829 132.944 93.0303C132.888 93.0777 132.818 93.1037 132.745 93.1037Z" fill="#313259"/>
<path d="M164.288 72.0369C159.972 70.0214 149.064 71.4985 150.506 86.7493C151.406 96.2665 153.018 112.183 154.104 122.805C154.715 128.792 160.096 133.125 166.07 132.442C171.901 131.775 176.132 126.568 175.596 120.718C174.932 113.483 174.084 103.778 173.534 95.7953C173.137 90.0489 171.001 75.1721 164.288 72.0369Z" fill="#72D2AF"/>
<path d="M150.728 95.8807C150.728 95.8807 145.616 93.9398 139.543 100.136C133.469 106.333 136.001 109.875 136.001 109.875C136.001 109.875 153.517 132.893 165.069 132.567C174.249 132.307 179.241 122.196 170.17 111.497C161.099 100.798 150.728 95.8807 150.728 95.8807Z" fill="#72D2AF"/>
<path d="M153.459 113.481C153.384 113.481 153.311 113.453 153.255 113.403C153.199 113.353 153.162 113.284 153.154 113.209L151.121 96.2721C151.111 96.1909 151.134 96.1092 151.184 96.0449C151.235 95.9807 151.309 95.9391 151.39 95.9293C151.471 95.9196 151.553 95.9425 151.617 95.993C151.681 96.0435 151.723 96.1174 151.732 96.1986L153.765 113.136C153.77 113.179 153.766 113.223 153.753 113.265C153.74 113.306 153.718 113.345 153.69 113.377C153.661 113.41 153.625 113.436 153.585 113.454C153.546 113.472 153.502 113.481 153.459 113.481ZM174.519 108.804C174.442 108.804 174.368 108.775 174.311 108.723C174.254 108.671 174.219 108.599 174.212 108.522L172.88 93.2787C172.877 93.2383 172.881 93.1975 172.893 93.1588C172.905 93.12 172.925 93.0841 172.951 93.0529C172.977 93.0218 173.009 92.9961 173.045 92.9773C173.08 92.9586 173.12 92.9471 173.16 92.9436C173.201 92.94 173.241 92.9445 173.28 92.9568C173.319 92.969 173.354 92.9888 173.385 93.0149C173.416 93.0411 173.442 93.0731 173.461 93.1092C173.479 93.1452 173.49 93.1846 173.494 93.2251L174.826 108.469C174.83 108.511 174.824 108.554 174.811 108.595C174.797 108.635 174.775 108.672 174.746 108.704C174.717 108.735 174.682 108.761 174.643 108.778C174.604 108.795 174.561 108.804 174.519 108.804Z" fill="#313259"/>
<path d="M173.514 97.3096C173.459 97.3095 173.405 97.2945 173.357 97.2661C173.309 97.2376 173.27 97.1969 173.244 97.1481C173.218 97.0993 173.205 97.0443 173.207 96.9889C173.209 96.9335 173.226 96.8797 173.257 96.8332L175.383 93.5626C175.428 93.4949 175.498 93.4476 175.578 93.4312C175.657 93.4147 175.74 93.4304 175.808 93.4747C175.876 93.5191 175.924 93.5885 175.941 93.668C175.958 93.7474 175.943 93.8305 175.9 93.899L173.773 97.1695C173.745 97.2126 173.707 97.248 173.661 97.2725C173.616 97.2969 173.566 97.3097 173.514 97.3096Z" fill="#313259"/>
<path d="M160.551 57.6088L158.964 57.462C158.21 57.3922 157.542 57.9475 157.472 58.7022C157.402 59.4569 157.957 60.1253 158.711 60.1951L160.298 60.3419C161.052 60.4117 161.72 59.8564 161.79 59.1017C161.859 58.347 161.305 57.6786 160.551 57.6088Z" fill="#C96363"/>
<path d="M164.123 49.0216C161.603 49.485 159.826 52.4795 159.278 56.02C158.754 59.4024 158.413 64.7844 161.214 65.2374C164.183 65.7175 171.095 66.6202 173.806 59.3912C176.518 52.1623 171.101 47.738 164.123 49.0216Z" fill="url(#paint17_linear_179_10688)"/>
<path d="M166.72 47.8045C165.784 47.1802 160.628 46.7274 160.254 49.4528C159.907 51.9798 165.311 52.0894 165.712 50.0063C165.885 49.106 166.969 48.6727 166.72 47.8045Z" fill="#313259"/>
<path d="M168.02 47.0168C170.347 46.6138 172.785 46.6269 175.025 47.3764C177.265 48.126 179.292 49.672 180.325 51.7979C181.915 55.0706 180.953 58.9633 181.404 62.5744C181.593 64.0855 182.149 65.7106 183.476 66.454C184.814 67.2026 186.465 66.822 187.974 66.5543C189.482 66.2866 191.277 66.2514 192.271 67.4186C192.97 68.2384 193.043 69.4366 192.809 70.488C192.304 72.7533 190.445 74.66 188.195 75.2206C185.944 75.7812 183.409 74.9693 182.021 73.1766C182.455 75.2356 181.615 77.4407 180.128 78.9289C178.642 80.4171 176.586 81.2414 174.504 81.5356C172.748 81.7837 170.887 81.6625 169.319 80.8344C167.751 80.0064 166.538 78.379 166.532 76.6045C166.005 77.445 164.921 77.7552 163.929 77.7717C161.442 77.8133 158.993 76.3179 157.892 74.0858C156.791 71.8536 157.094 68.9983 158.639 67.0475C160.184 65.0967 162.892 64.1497 165.471 64.5623C163.298 59.3632 166.996 56.8953 166.641 53.3961C166.467 51.6764 165.753 50.7714 164.633 49.9259C163.309 48.9258 165.5 47.4533 168.02 47.0168Z" fill="#313259"/>
<path d="M163.895 56.456C163.895 56.456 163.848 52.3806 163.952 49.9952C164.047 47.8132 165.795 46.723 166.092 46.553C166.12 46.5372 166.15 46.5293 166.182 46.5293H168.708C168.885 46.5293 168.96 46.7544 168.817 46.8586C168.178 47.3264 167.171 48.3102 167.047 49.9209C166.865 52.3017 166.777 56.3764 166.777 56.3764L163.895 56.456Z" fill="url(#paint18_linear_179_10688)"/>
<path d="M165.001 64.796C167.405 64.796 169.354 62.5345 169.354 59.7447C169.354 56.9549 167.405 54.6934 165.001 54.6934C162.597 54.6934 160.648 56.9549 160.648 59.7447C160.648 62.5345 162.597 64.796 165.001 64.796Z" fill="#8B7BFF"/>
<path d="M164.383 64.796C166.446 64.796 168.118 62.5345 168.118 59.7447C168.118 56.9549 166.446 54.6934 164.383 54.6934C162.32 54.6934 160.647 56.9549 160.647 59.7447C160.647 62.5345 162.32 64.796 164.383 64.796Z" fill="url(#paint19_linear_179_10688)"/>
</g>
<g clip-path="url(#clip8_179_10688)">
<path d="M221.244 211.97C221.109 211.97 220.978 211.926 220.871 211.844C220.764 211.762 220.687 211.647 220.652 211.517L203.642 148.132C203.602 147.976 203.625 147.81 203.706 147.671C203.788 147.532 203.921 147.431 204.077 147.389C204.233 147.347 204.399 147.369 204.54 147.449C204.68 147.529 204.783 147.661 204.826 147.816L221.836 211.201C221.86 211.292 221.863 211.387 221.845 211.479C221.827 211.571 221.787 211.657 221.73 211.732C221.673 211.806 221.599 211.866 221.515 211.908C221.43 211.949 221.338 211.97 221.244 211.97ZM191.956 211.97C191.821 211.97 191.69 211.926 191.583 211.844C191.476 211.762 191.399 211.647 191.364 211.517L174.354 148.132C174.314 147.976 174.337 147.81 174.418 147.671C174.5 147.532 174.633 147.431 174.789 147.389C174.945 147.347 175.112 147.369 175.252 147.449C175.392 147.529 175.495 147.661 175.538 147.816L192.548 211.201C192.572 211.292 192.576 211.387 192.557 211.479C192.539 211.571 192.499 211.657 192.442 211.732C192.385 211.806 192.311 211.866 192.227 211.908C192.143 211.949 192.05 211.97 191.956 211.97ZM128.762 211.97C128.668 211.97 128.575 211.949 128.491 211.908C128.407 211.866 128.333 211.806 128.276 211.732C128.218 211.657 128.179 211.571 128.161 211.479C128.142 211.387 128.145 211.292 128.17 211.202L145.18 147.816C145.223 147.661 145.326 147.529 145.466 147.449C145.606 147.369 145.772 147.347 145.929 147.389C146.085 147.431 146.218 147.532 146.299 147.671C146.381 147.81 146.404 147.976 146.363 148.132L129.354 211.517C129.319 211.647 129.242 211.762 129.135 211.844C129.028 211.926 128.897 211.97 128.762 211.97Z" fill="#1C7E8E"/>
<path d="M137.19 145.53V142.109C137.19 140.76 138.288 139.666 139.641 139.666H202.125V147.974H139.641C138.288 147.974 137.19 146.88 137.19 145.53Z" fill="url(#paint20_linear_179_10688)"/>
<path d="M167.637 147.974L181.239 92.3986C182.171 88.59 185.594 85.9102 189.527 85.9102H221.578C224.19 85.9102 226.112 88.3496 225.493 90.8793L213.386 140.347C212.29 144.824 208.266 147.974 203.643 147.974H167.637Z" fill="url(#paint21_linear_179_10688)"/>
</g>
<g clip-path="url(#clip9_179_10688)">
<path d="M235.339 212.631H54.5092C54.3474 212.631 54.1923 212.578 54.0779 212.486C53.9635 212.393 53.8992 212.267 53.8992 212.136C53.8992 212.004 53.9635 211.878 54.0779 211.786C54.1923 211.693 54.3474 211.641 54.5092 211.641H235.339C235.501 211.641 235.656 211.693 235.771 211.786C235.885 211.878 235.949 212.004 235.949 212.136C235.949 212.267 235.885 212.393 235.771 212.486C235.656 212.578 235.501 212.631 235.339 212.631Z" fill="#313259"/>
</g>
<defs>
<linearGradient id="paint0_linear_179_10688" x1="136.094" y1="-0.167929" x2="149.583" y2="39.1154" gradientUnits="userSpaceOnUse">
<stop stop-color="#E6EFE8"/>
<stop offset="0.424" stop-color="#B8D3EB"/>
<stop offset="0.792" stop-color="#94BDED"/>
</linearGradient>
<linearGradient id="paint1_linear_179_10688" x1="15.631" y1="19.5612" x2="65.8178" y2="30.4406" gradientUnits="userSpaceOnUse">
<stop offset="0.01" stop-color="#E6EFE8"/>
<stop offset="0.327" stop-color="#E4EEE7"/>
<stop offset="0.471" stop-color="#DCEAE4"/>
<stop offset="0.58" stop-color="#D0E3DE"/>
<stop offset="0.672" stop-color="#BED8D6"/>
<stop offset="0.753" stop-color="#A6CBCB"/>
<stop offset="0.826" stop-color="#89BBBF"/>
<stop offset="0.893" stop-color="#66A8AF"/>
<stop offset="0.954" stop-color="#3F929E"/>
<stop offset="1" stop-color="#1C7E8E"/>
</linearGradient>
<linearGradient id="paint2_linear_179_10688" x1="71.208" y1="33.4321" x2="95.3865" y2="100.894" gradientUnits="userSpaceOnUse">
<stop offset="0.019" stop-color="#E6EFE8"/>
<stop offset="0.545" stop-color="#B8D3EB"/>
<stop offset="1" stop-color="#94BDED"/>
</linearGradient>
<linearGradient id="paint3_linear_179_10688" x1="65.5345" y1="21.4539" x2="62.4043" y2="76.7465" gradientUnits="userSpaceOnUse">
<stop stop-color="#FFF9E9"/>
<stop offset="0.16" stop-color="#F6F4E6" stop-opacity="0.769"/>
<stop offset="0.691" stop-color="#DBE7DE" stop-opacity="0"/>
</linearGradient>
<linearGradient id="paint4_linear_179_10688" x1="211.572" y1="30.4511" x2="175.881" y2="77.751" gradientUnits="userSpaceOnUse">
<stop offset="0.01" stop-color="#E6EFE8"/>
<stop offset="0.277" stop-color="#E4EEE7"/>
<stop offset="0.422" stop-color="#DCE9E3"/>
<stop offset="0.539" stop-color="#CEE2DD"/>
<stop offset="0.639" stop-color="#BBD7D5"/>
<stop offset="0.73" stop-color="#A1C9C9"/>
<stop offset="0.814" stop-color="#82B7BC"/>
<stop offset="0.892" stop-color="#5DA3AB"/>
<stop offset="0.964" stop-color="#348B99"/>
<stop offset="1" stop-color="#1C7E8E"/>
</linearGradient>
<linearGradient id="paint5_linear_179_10688" x1="193.937" y1="37.6155" x2="180.096" y2="55.5009" gradientUnits="userSpaceOnUse">
<stop offset="0.057" stop-color="#E6EFE8"/>
<stop offset="0.253" stop-color="#DBE8E9"/>
<stop offset="0.596" stop-color="#BED7EA"/>
<stop offset="1" stop-color="#94BDED"/>
</linearGradient>
<linearGradient id="paint6_linear_179_10688" x1="106.375" y1="117.381" x2="125.176" y2="87.8128" gradientUnits="userSpaceOnUse">
<stop offset="0.127" stop-color="#FFF9E9"/>
<stop offset="0.2" stop-color="#E7ECDF"/>
<stop offset="0.472" stop-color="#91BDBD"/>
<stop offset="0.696" stop-color="#529BA4"/>
<stop offset="0.858" stop-color="#2B8694"/>
<stop offset="0.942" stop-color="#1C7E8E"/>
</linearGradient>
<linearGradient id="paint7_linear_179_10688" x1="134.632" y1="60.1358" x2="102.393" y2="89.0142" gradientUnits="userSpaceOnUse">
<stop stop-color="#FFF9E9"/>
<stop offset="0.159" stop-color="#F8F5E9"/>
<stop offset="0.383" stop-color="#E6EBEA"/>
<stop offset="0.645" stop-color="#C8DAEB"/>
<stop offset="0.934" stop-color="#9FC3ED"/>
<stop offset="1" stop-color="#94BDED"/>
</linearGradient>
<linearGradient id="paint8_linear_179_10688" x1="124.088" y1="36.1716" x2="120.013" y2="108.159" gradientUnits="userSpaceOnUse">
<stop stop-color="#FFF9E9"/>
<stop offset="0.154" stop-color="#F1F2E5" stop-opacity="0.737"/>
<stop offset="0.399" stop-color="#E1EAE0" stop-opacity="0.32"/>
<stop offset="0.587" stop-color="#DBE7DE" stop-opacity="0"/>
</linearGradient>
<linearGradient id="paint9_linear_179_10688" x1="103.48" y1="38.4374" x2="100.309" y2="94.4584" gradientUnits="userSpaceOnUse">
<stop stop-color="#FFF9E9"/>
<stop offset="0.16" stop-color="#F6F4E6" stop-opacity="0.769"/>
<stop offset="0.691" stop-color="#DBE7DE" stop-opacity="0"/>
</linearGradient>
<linearGradient id="paint10_linear_179_10688" x1="133.187" y1="104.865" x2="114.171" y2="105.589" gradientUnits="userSpaceOnUse">
<stop stop-color="#E6EFE8"/>
<stop offset="0.424" stop-color="#B8D3EB"/>
<stop offset="0.792" stop-color="#94BDED"/>
</linearGradient>
<linearGradient id="paint11_linear_179_10688" x1="178.991" y1="194.208" x2="168.372" y2="170.153" gradientUnits="userSpaceOnUse">
<stop stop-color="#C96363"/>
<stop offset="0.128" stop-color="#C36163"/>
<stop offset="0.303" stop-color="#B15B61"/>
<stop offset="0.505" stop-color="#945260"/>
<stop offset="0.728" stop-color="#6C455D"/>
<stop offset="0.964" stop-color="#39355A"/>
<stop offset="1" stop-color="#313259"/>
</linearGradient>
<linearGradient id="paint12_linear_179_10688" x1="168.179" y1="187.404" x2="156.378" y2="103.241" gradientUnits="userSpaceOnUse">
<stop offset="0.48" stop-color="#DBDFE7"/>
<stop offset="0.525" stop-color="#D8E3DB"/>
<stop offset="0.564" stop-color="#CED9D3"/>
<stop offset="0.601" stop-color="#BDC7C6"/>
<stop offset="0.637" stop-color="#A5ADB3"/>
<stop offset="0.673" stop-color="#868C9B"/>
<stop offset="0.708" stop-color="#60647E"/>
<stop offset="0.741" stop-color="#34355B"/>
<stop offset="0.743" stop-color="#313259"/>
</linearGradient>
<linearGradient id="paint13_linear_179_10688" x1="106.008" y1="201.255" x2="114.754" y2="169.798" gradientUnits="userSpaceOnUse">
<stop offset="0.471" stop-color="#C96363"/>
<stop offset="0.523" stop-color="#C36163"/>
<stop offset="0.593" stop-color="#B25C61"/>
<stop offset="0.673" stop-color="#965360"/>
<stop offset="0.76" stop-color="#6F465D"/>
<stop offset="0.853" stop-color="#3D365A"/>
<stop offset="0.874" stop-color="#313259"/>
</linearGradient>
<linearGradient id="paint14_linear_179_10688" x1="96.4922" y1="151.894" x2="178.145" y2="146.359" gradientUnits="userSpaceOnUse">
<stop offset="0.48" stop-color="#DBDCE7"/>
<stop offset="0.525" stop-color="#D8E3DB"/>
<stop offset="0.564" stop-color="#CED9D3"/>
<stop offset="0.601" stop-color="#BDC7C6"/>
<stop offset="0.637" stop-color="#A5ADB3"/>
<stop offset="0.673" stop-color="#868C9B"/>
<stop offset="0.708" stop-color="#60647E"/>
<stop offset="0.741" stop-color="#34355B"/>
<stop offset="0.743" stop-color="#313259"/>
</linearGradient>
<linearGradient id="paint15_linear_179_10688" x1="129.556" y1="117.051" x2="244.334" y2="165.478" gradientUnits="userSpaceOnUse">
<stop offset="0.48" stop-color="#DBDDE7"/>
<stop offset="0.525" stop-color="#D8E3DB"/>
<stop offset="0.564" stop-color="#CED9D3"/>
<stop offset="0.601" stop-color="#BDC7C6"/>
<stop offset="0.637" stop-color="#A5ADB3"/>
<stop offset="0.673" stop-color="#868C9B"/>
<stop offset="0.708" stop-color="#60647E"/>
<stop offset="0.741" stop-color="#34355B"/>
<stop offset="0.743" stop-color="#313259"/>
</linearGradient>
<linearGradient id="paint16_linear_179_10688" x1="128.833" y1="94.7036" x2="146.212" y2="106.508" gradientUnits="userSpaceOnUse">
<stop offset="0.351" stop-color="#C96363"/>
<stop offset="0.434" stop-color="#C36163"/>
<stop offset="0.548" stop-color="#B15B61"/>
<stop offset="0.679" stop-color="#945260"/>
<stop offset="0.823" stop-color="#6C455D"/>
<stop offset="0.977" stop-color="#39355A"/>
<stop offset="1" stop-color="#313259"/>
</linearGradient>
<linearGradient id="paint17_linear_179_10688" x1="158.921" y1="57.1769" x2="174.519" y2="57.1769" gradientUnits="userSpaceOnUse">
<stop stop-color="#C96363"/>
<stop offset="0.128" stop-color="#C36163"/>
<stop offset="0.303" stop-color="#B15B61"/>
<stop offset="0.505" stop-color="#945260"/>
<stop offset="0.728" stop-color="#6C455D"/>
<stop offset="0.964" stop-color="#39355A"/>
<stop offset="1" stop-color="#313259"/>
</linearGradient>
<linearGradient id="paint18_linear_179_10688" x1="163.156" y1="49.7054" x2="157.461" y2="46.5002" gradientUnits="userSpaceOnUse">
<stop stop-color="#9391F9"/>
<stop offset="0.057" stop-color="#9AA9FA"/>
<stop offset="0.121528" stop-color="#A5A4FA"/>
<stop offset="0.353" stop-color="#C6C8FC"/>
<stop offset="0.62" stop-color="#E5ECFE"/>
<stop offset="0.845" stop-color="#F8F9FF"/>
<stop offset="1" stop-color="white"/>
</linearGradient>
<linearGradient id="paint19_linear_179_10688" x1="168.342" y1="63.5882" x2="159.273" y2="54.7996" gradientUnits="userSpaceOnUse">
<stop offset="0.242" stop-color="#9195F9"/>
<stop offset="0.285" stop-color="#9A9EFA"/>
<stop offset="0.51" stop-color="#C6C8FC"/>
<stop offset="0.712" stop-color="#E5EBFE"/>
<stop offset="0.882" stop-color="#F9F8FF"/>
<stop offset="1" stop-color="white"/>
</linearGradient>
<linearGradient id="paint20_linear_179_10688" x1="161.441" y1="103.111" x2="174.511" y2="166.519" gradientUnits="userSpaceOnUse">
<stop offset="0.137" stop-color="#94BDED"/>
<stop offset="0.668" stop-color="#4493AE"/>
<stop offset="0.966" stop-color="#1C7E8E"/>
</linearGradient>
<linearGradient id="paint21_linear_179_10688" x1="187.857" y1="92.5514" x2="210.909" y2="161.539" gradientUnits="userSpaceOnUse">
<stop offset="0.137" stop-color="#94BDED"/>
<stop offset="0.668" stop-color="#4493AE"/>
<stop offset="0.966" stop-color="#1C7E8E"/>
</linearGradient>
<clipPath id="clip0_179_10688">
<rect width="61.38" height="29.59" fill="white" transform="translate(116.49 11.9893)"/>
</clipPath>
<clipPath id="clip1_179_10688">
<rect width="19.91" height="26.73" fill="white" transform="translate(32.8903 11.5498)"/>
</clipPath>
<clipPath id="clip2_179_10688">
<rect width="66.33" height="49.83" fill="white" transform="translate(45.1004 28.1602)"/>
</clipPath>
<clipPath id="clip3_179_10688">
<rect width="31.46" height="42.79" fill="white" transform="translate(177.21 33.8799)"/>
</clipPath>
<clipPath id="clip4_179_10688">
<rect width="75.02" height="64.24" fill="white" transform="translate(81.3996 45.21)"/>
</clipPath>
<clipPath id="clip5_179_10688">
<rect width="19.03" height="9.13" fill="white" transform="translate(119.021 100.319)"/>
</clipPath>
<clipPath id="clip6_179_10688">
<rect width="143.55" height="1.21" fill="white" transform="translate(65.1199 108.239)"/>
</clipPath>
<clipPath id="clip7_179_10688">
<rect width="130.9" height="165.44" fill="white" transform="translate(77.7695 46.5293)"/>
</clipPath>
<clipPath id="clip8_179_10688">
<rect width="97.46" height="126.06" fill="white" transform="translate(128.15 85.9102)"/>
</clipPath>
<clipPath id="clip9_179_10688">
<rect width="182.05" height="0.99" fill="white" transform="translate(53.8996 211.641)"/>
</clipPath>
</defs>
</svg>
