<svg width="24" height="17" viewBox="0 0 24 17" fill="none" xmlns="http://www.w3.org/2000/svg">
<rect width="24" height="17" rx="8" fill="white"/>
<mask id="mask0_90_11071" style="mask-type:luminance" maskUnits="userSpaceOnUse" x="0" y="0" width="24" height="17">
<rect width="24" height="17" rx="2" fill="white"/>
</mask>
<g mask="url(#mask0_90_11071)">
<rect width="24" height="17" rx="2" fill="#30C6E0"/>
<path fill-rule="evenodd" clip-rule="evenodd" d="M11.9999 11.9C13.8934 11.9 15.4284 10.3777 15.4284 8.49998C15.4284 6.62221 13.8934 5.09998 11.9999 5.09998C10.1063 5.09998 8.57129 6.62221 8.57129 8.49998C8.57129 10.3777 10.1063 11.9 11.9999 11.9Z" fill="#FFCD4B"/>
<path d="M13.7534 4.88977L15.9194 3.62708L15.1587 6.00208L17.6636 5.79504L15.939 7.60852L18.2856 8.50012L15.939 9.39172L17.6636 11.2042L15.1587 10.9982L15.9194 13.3732L13.7534 12.1095L13.3989 14.5773L12.0005 12.507L10.6011 14.5773L10.2476 12.1095L8.08057 13.3732L8.84131 10.9982L6.33643 11.2042L8.06104 9.39172L5.71436 8.50012L8.06104 7.60852L6.33643 5.79504L8.84131 6.00208L8.08057 3.62708L10.2476 4.88977L10.6011 2.42297L12.0005 4.49329L13.3989 2.42297L13.7534 4.88977ZM11.9995 4.53333C9.79037 4.53333 7.99951 6.30939 7.99951 8.50012C7.99956 10.6908 9.7904 12.4669 11.9995 12.4669C14.2086 12.4669 15.9995 10.6908 15.9995 8.50012C15.9995 6.30939 14.2087 4.53333 11.9995 4.53333Z" fill="#FFCD4B"/>
<path d="M1.95215 14.7329C2.13622 14.7329 2.28516 14.8828 2.28516 15.0669V15.5337C2.28495 15.7176 2.13609 15.8667 1.95215 15.8667H1.47559C1.29177 15.8665 1.14279 15.7175 1.14258 15.5337V15.0669C1.14258 14.8829 1.29164 14.7331 1.47559 14.7329H1.95215ZM3.09473 13.6001C3.27874 13.6001 3.42764 13.7491 3.42773 13.9331V14.3999C3.42773 14.584 3.2788 14.7329 3.09473 14.7329H2.61816C2.43422 14.7327 2.28516 14.5839 2.28516 14.3999V13.9331C2.28525 13.7492 2.43428 13.6003 2.61816 13.6001H3.09473ZM1.95215 12.4663C2.13622 12.4663 2.28516 12.6162 2.28516 12.8003V13.2671C2.28491 13.451 2.13607 13.6001 1.95215 13.6001H1.47559C1.29179 13.5999 1.14282 13.4509 1.14258 13.2671V12.8003C1.14258 12.6163 1.29164 12.4665 1.47559 12.4663H1.95215ZM3.09473 11.3335C3.27875 11.3335 3.42765 11.4825 3.42773 11.6665V12.1333C3.42773 12.3174 3.2788 12.4663 3.09473 12.4663H2.61816C2.43422 12.4661 2.28516 12.3173 2.28516 12.1333V11.6665C2.28524 11.4826 2.43427 11.3337 2.61816 11.3335H3.09473ZM1.95215 10.1997C2.13622 10.1997 2.28516 10.3496 2.28516 10.5337V10.9995C2.28516 11.1836 2.13622 11.3335 1.95215 11.3335H1.47559C1.29164 11.3333 1.14258 11.1835 1.14258 10.9995V10.5337C1.14258 10.3497 1.29164 10.1999 1.47559 10.1997H1.95215ZM3.09473 9.06689C3.27879 9.06692 3.42772 9.21584 3.42773 9.3999V9.8667C3.42768 10.0507 3.27877 10.1997 3.09473 10.1997H2.61816C2.43425 10.1995 2.28521 10.0506 2.28516 9.8667V9.3999C2.28517 9.21593 2.43423 9.06707 2.61816 9.06689H3.09473ZM1.95215 7.93311C2.13622 7.93313 2.28516 8.08301 2.28516 8.26709V8.73291C2.28516 8.91699 2.13622 9.06687 1.95215 9.06689H1.47559C1.29164 9.06672 1.14258 8.9169 1.14258 8.73291V8.26709C1.14258 8.0831 1.29164 7.93328 1.47559 7.93311H1.95215ZM3.09473 6.80029C3.2788 6.80032 3.42773 6.94922 3.42773 7.1333V7.6001C3.42766 7.78412 3.27876 7.93308 3.09473 7.93311H2.61816C2.43426 7.93293 2.28523 7.78402 2.28516 7.6001V7.1333C2.28516 6.94931 2.43422 6.80047 2.61816 6.80029H3.09473ZM1.95215 5.6665C2.13607 5.66653 2.28491 5.81564 2.28516 5.99951V6.46631C2.28516 6.65039 2.13622 6.80027 1.95215 6.80029H1.47559C1.29164 6.80012 1.14258 6.6503 1.14258 6.46631V5.99951C1.14282 5.81573 1.29179 5.66668 1.47559 5.6665H1.95215ZM3.09473 4.53369C3.2788 4.53372 3.42773 4.68262 3.42773 4.8667V5.3335C3.42765 5.5175 3.27875 5.66648 3.09473 5.6665H2.61816C2.43427 5.66633 2.28524 5.51741 2.28516 5.3335V4.8667C2.28516 4.68271 2.43422 4.53387 2.61816 4.53369H3.09473ZM1.95215 3.3999C2.13609 3.39993 2.28495 3.54901 2.28516 3.73291V4.19971C2.28516 4.38379 2.13622 4.53367 1.95215 4.53369H1.47559C1.29164 4.53352 1.14258 4.38369 1.14258 4.19971V3.73291C1.14279 3.5491 1.29177 3.40008 1.47559 3.3999H1.95215ZM3.09473 2.26709C3.2788 2.26712 3.42773 2.41602 3.42773 2.6001V3.06689C3.42758 3.25085 3.27871 3.39988 3.09473 3.3999H2.61816C2.43431 3.39973 2.28531 3.25075 2.28516 3.06689V2.6001C2.28516 2.41611 2.43422 2.26727 2.61816 2.26709H3.09473ZM1.95215 1.1333C2.13611 1.13333 2.28498 1.28238 2.28516 1.46631V1.93311C2.28516 2.11718 2.13622 2.26706 1.95215 2.26709H1.47559C1.29164 2.26691 1.14258 2.11709 1.14258 1.93311V1.46631C1.14275 1.28247 1.29175 1.13348 1.47559 1.1333H1.95215Z" fill="#FFCD4B"/>
</g>
</svg>
