<svg width="34" height="24" viewBox="0 0 34 24" fill="none" xmlns="http://www.w3.org/2000/svg">
<rect width="33.6" height="24" rx="8" fill="white"/>
<mask id="mask0_23_18986" style="mask-type:luminance" maskUnits="userSpaceOnUse" x="0" y="0" width="34" height="24">
<rect width="33.6" height="24" rx="2" fill="white"/>
</mask>
<g mask="url(#mask0_23_18986)">
<rect width="33.6" height="24" rx="2" fill="#30C6E0"/>
<path fill-rule="evenodd" clip-rule="evenodd" d="M16.8 16.8C19.451 16.8 21.6 14.6509 21.6 12C21.6 9.34898 19.451 7.19995 16.8 7.19995C14.149 7.19995 12 9.34898 12 12C12 14.6509 14.149 16.8 16.8 16.8Z" fill="#FFCD4B"/>
<path d="M19.2539 6.90405L22.2871 5.11987L21.2227 8.47339L24.7285 8.1814L22.3145 10.741L25.5996 11.9998L22.3145 13.2585L24.7285 15.8181L21.2227 15.5271L22.2871 18.8806L19.2539 17.0964L18.7578 20.5798L16.7998 17.656L14.8418 20.5798L14.3457 17.0964L11.3135 18.8806L12.3779 15.5271L8.87109 15.8181L11.2852 13.2585L8 11.9998L11.2852 10.741L8.87109 8.1814L12.3779 8.47339L11.3135 5.11987L14.3457 6.90405L14.8418 3.42065L16.7998 6.34351L18.7578 3.42065L19.2539 6.90405ZM16.7988 6.40015C13.7063 6.40036 11.1994 8.90721 11.1992 11.9998C11.1992 15.0924 13.7062 17.6001 16.7988 17.6003C19.8916 17.6003 22.3994 15.0926 22.3994 11.9998C22.3993 8.90708 19.8915 6.40015 16.7988 6.40015Z" fill="#FFCD4B"/>
<path d="M2.86621 20.8002C3.05026 20.8002 3.19915 20.9491 3.19922 21.1332V22.0668C3.19915 22.2508 3.05026 22.3998 2.86621 22.3998H1.93262C1.74872 22.3996 1.59968 22.2507 1.59961 22.0668V21.1332C1.59968 20.9493 1.74872 20.8003 1.93262 20.8002H2.86621ZM4.46582 19.1996C4.64992 19.1996 4.79883 19.3495 4.79883 19.5336V20.4662C4.79883 20.6503 4.64992 20.8002 4.46582 20.8002H3.53223C3.34828 20.8 3.19922 20.6502 3.19922 20.4662V19.5336C3.19922 19.3496 3.34828 19.1998 3.53223 19.1996H4.46582ZM2.86621 17.6C3.0502 17.6 3.19904 17.749 3.19922 17.933V18.8666C3.19922 19.0507 3.05031 19.1996 2.86621 19.1996H1.93262C1.74867 19.1994 1.59961 19.0506 1.59961 18.8666V17.933C1.59979 17.7491 1.74878 17.6002 1.93262 17.6H2.86621ZM4.46582 16.0004C4.64992 16.0004 4.79883 16.1493 4.79883 16.3334V17.267C4.79867 17.4509 4.64981 17.6 4.46582 17.6H3.53223C3.34838 17.5998 3.19938 17.4508 3.19922 17.267V16.3334C3.19922 16.1494 3.34828 16.0005 3.53223 16.0004H4.46582ZM2.86621 14.3998C3.05031 14.3998 3.19922 14.5497 3.19922 14.7338V15.6664C3.19922 15.8505 3.05031 16.0004 2.86621 16.0004H1.93262C1.74867 16.0002 1.59961 15.8504 1.59961 15.6664V14.7338C1.59961 14.5498 1.74867 14.4 1.93262 14.3998H2.86621ZM4.46582 12.8002C4.64989 12.8002 4.79878 12.9491 4.79883 13.1332V14.0668C4.79873 14.2508 4.64986 14.3998 4.46582 14.3998H3.53223C3.34834 14.3996 3.19932 14.2507 3.19922 14.0668V13.1332C3.19926 12.9492 3.34831 12.8003 3.53223 12.8002H4.46582ZM2.86621 11.1996C3.05031 11.1996 3.19922 11.3495 3.19922 11.5336V12.4662C3.19922 12.6503 3.05031 12.8002 2.86621 12.8002H1.93262C1.74867 12.8 1.59961 12.6502 1.59961 12.4662V11.5336C1.59961 11.3496 1.74867 11.1998 1.93262 11.1996H2.86621ZM4.46582 9.59998C4.64981 9.59998 4.79865 9.74904 4.79883 9.93298V10.8666C4.79883 11.0507 4.64992 11.1996 4.46582 11.1996H3.53223C3.34828 11.1994 3.19922 11.0506 3.19922 10.8666V9.93298C3.19939 9.74915 3.34839 9.60015 3.53223 9.59998H4.46582ZM2.86621 8.00037C3.05031 8.00037 3.19922 8.14928 3.19922 8.33337V9.26697C3.19904 9.45091 3.0502 9.59998 2.86621 9.59998H1.93262C1.74878 9.5998 1.59979 9.4508 1.59961 9.26697V8.33337C1.59961 8.14939 1.74867 8.00054 1.93262 8.00037H2.86621ZM4.46582 6.39978C4.64992 6.39978 4.79883 6.54967 4.79883 6.73376V7.66638C4.79883 7.85048 4.64992 8.00037 4.46582 8.00037H3.53223C3.34828 8.00019 3.19922 7.85037 3.19922 7.66638V6.73376C3.19922 6.54978 3.34828 6.39996 3.53223 6.39978H4.46582ZM2.86621 4.80017C3.05026 4.80017 3.19915 4.94914 3.19922 5.13318V6.06677C3.19915 6.25081 3.05026 6.39978 2.86621 6.39978H1.93262C1.74872 6.3996 1.59968 6.2507 1.59961 6.06677V5.13318C1.59968 4.94925 1.74872 4.80035 1.93262 4.80017H2.86621ZM4.46582 3.19958C4.64992 3.19958 4.79883 3.34947 4.79883 3.53357V4.46619C4.79883 4.65028 4.64992 4.80017 4.46582 4.80017H3.53223C3.34828 4.79999 3.19922 4.65017 3.19922 4.46619V3.53357C3.19922 3.34958 3.34828 3.19976 3.53223 3.19958H4.46582ZM2.86621 1.59998C3.0502 1.59998 3.19904 1.74904 3.19922 1.93298V2.86658C3.19922 3.05067 3.05031 3.19958 2.86621 3.19958H1.93262C1.74867 3.19941 1.59961 3.05056 1.59961 2.86658V1.93298C1.59979 1.74915 1.74878 1.60015 1.93262 1.59998H2.86621Z" fill="#FFCD4B"/>
</g>
</svg>
