<svg width="340" height="227" viewBox="0 0 340 227" fill="none" xmlns="http://www.w3.org/2000/svg">
<g clip-path="url(#clip0_36_26216)">
<path opacity="0.21" d="M170.566 226.433C240.826 226.433 297.783 175.744 297.783 113.216C297.783 50.6886 240.826 0 170.566 0C100.306 0 43.3496 50.6886 43.3496 113.216C43.3496 175.744 100.306 226.433 170.566 226.433Z" fill="url(#paint0_radial_36_26216)"/>
</g>
<g clip-path="url(#clip1_36_26216)">
<path d="M286.649 181.143L47.6871 181.599C42.9377 181.608 39.0799 177.76 39.07 173.003L38.8164 50.8854C38.8065 46.1245 42.6543 42.2586 47.4078 42.2534L286.508 41.9941C291.259 41.9889 295.114 45.8422 295.118 50.5999L295.233 172.52C295.238 177.275 291.396 181.133 286.649 181.143Z" fill="url(#paint1_linear_36_26216)"/>
<path d="M250.725 56.7927C253.201 56.7927 255.208 54.8082 255.208 52.3602C255.208 49.9122 253.201 47.9277 250.725 47.9277C248.249 47.9277 246.242 49.9122 246.242 52.3602C246.242 54.8082 248.249 56.7927 250.725 56.7927Z" fill="#FF593B"/>
<path d="M264.949 56.7927C267.425 56.7927 269.432 54.8082 269.432 52.3602C269.432 49.9122 267.425 47.9277 264.949 47.9277C262.474 47.9277 260.467 49.9122 260.467 52.3602C260.467 54.8082 262.474 56.7927 264.949 56.7927Z" fill="#F9E79B"/>
<path d="M279.174 56.7927C281.65 56.7927 283.657 54.8082 283.657 52.3602C283.657 49.9122 281.65 47.9277 279.174 47.9277C276.698 47.9277 274.691 49.9122 274.691 52.3602C274.691 54.8082 276.698 56.7927 279.174 56.7927Z" fill="#1C7E8E"/>
</g>
<g clip-path="url(#clip2_36_26216)">
<path d="M319.833 145.063L306.909 156.028C306.909 156.028 303.797 155.481 300.921 152.088C298.062 148.717 298.013 145.535 298.013 145.535L310.937 134.57C304.558 131.248 296.533 131.903 290.715 136.856C284.819 141.875 282.914 149.82 285.313 156.714L256.518 177.709C252.192 180.864 251.456 187.03 254.919 191.115C258.382 195.199 264.584 195.48 268.402 191.725L293.812 166.734C300.229 170.226 308.396 169.636 314.301 164.627C320.116 159.693 322.064 151.892 319.833 145.063ZM265.761 187.542C263.955 189.075 261.248 188.852 259.716 187.045C258.184 185.238 258.407 182.531 260.213 180.998C262.019 179.466 264.725 179.688 266.258 181.495C267.79 183.302 267.567 186.009 265.761 187.542Z" fill="url(#paint2_linear_36_26216)"/>
</g>
<g clip-path="url(#clip3_36_26216)">
<path d="M239.132 41.9941L192.847 186.828L151.544 186.926L151.527 178.862L195.234 42.0988L239.132 41.9941Z" fill="url(#paint3_linear_36_26216)"/>
<path d="M157.905 42.123L111.38 187.412L51.1861 187.558C45.8821 187.571 42.1077 182.391 43.7295 177.326L86.9682 42.2948L157.905 42.123Z" fill="url(#paint4_linear_36_26216)"/>
</g>
<g clip-path="url(#clip4_36_26216)">
<path d="M166.634 78.0312C136.371 78.0312 131.392 90.5664 131.392 113.501C131.392 137.289 137.416 148.969 166.634 148.969C195.812 148.969 201.875 136.781 201.875 113.501C201.875 90.6934 196.896 78.0312 166.634 78.0312ZM166.714 130.452C160.528 130.452 159.918 126.751 159.918 113.501C159.918 100.25 160.528 96.5482 166.714 96.5482C172.899 96.5482 173.35 100.25 173.35 113.501C173.35 126.751 172.899 130.452 166.714 130.452ZM113.624 79.4369H97.499C94.0921 79.4369 91.3301 82.1992 91.3301 85.6066V141.515C91.3301 144.855 94.0374 147.563 97.377 147.563H113.618C116.961 147.563 119.671 144.853 119.671 141.509V85.4846C119.671 82.1446 116.964 79.4369 113.624 79.4369Z" fill="#FF593B"/>
<path d="M93.3359 81.0527L55.0988 113.747C54.5246 114.238 54.0635 114.847 53.7474 115.533C53.4313 116.22 53.2676 116.966 53.2676 117.722V128.121C53.2676 131.009 55.6089 133.351 58.4969 133.351H122.9C125.239 133.351 127.134 131.455 127.134 129.116V122.606C127.134 120.268 125.239 118.372 122.9 118.372H79.0626L101.359 99.5309C103.018 98.1291 103.348 95.6994 102.122 93.9063L93.3359 81.0527Z" fill="#FF593B"/>
<path opacity="0.35" d="M91.3288 118.373H72.8867V133.352H91.3288" fill="url(#paint5_linear_36_26216)"/>
<path opacity="0.35" d="M119.67 118.373H122.9C122.9 118.373 127.134 119.825 127.134 122.608V129.117C127.134 131.725 124.822 133.352 122.9 133.352H119.67" fill="url(#paint6_linear_36_26216)"/>
<path d="M267.556 79.4375H251.431C248.024 79.4375 245.262 82.1998 245.262 85.6072V141.516C245.262 144.856 247.969 147.564 251.309 147.564H267.549C270.892 147.564 273.602 144.853 273.602 141.51V85.4852C273.603 82.1452 270.895 79.4375 267.556 79.4375Z" fill="#FF593B"/>
<path d="M247.269 81.0527L209.032 113.747C208.458 114.238 207.997 114.847 207.681 115.533C207.365 116.22 207.201 116.966 207.201 117.722V128.121C207.201 131.009 209.542 133.351 212.431 133.351H276.834C279.172 133.351 281.068 131.455 281.068 129.116V122.606C281.068 120.268 279.172 118.372 276.834 118.372H232.996L255.293 99.5309C256.952 98.1291 257.281 95.6994 256.056 93.9063L247.269 81.0527Z" fill="#FF593B"/>
<path opacity="0.35" d="M245.262 118.373H226.82V133.352H245.262" fill="url(#paint7_linear_36_26216)"/>
<path opacity="0.35" d="M273.604 118.373H276.833C276.833 118.373 281.068 119.825 281.068 122.608V129.117C281.068 131.725 278.755 133.352 276.833 133.352H273.604" fill="url(#paint8_linear_36_26216)"/>
</g>
<g clip-path="url(#clip5_36_26216)">
<path d="M77.215 18.5371L68.4135 62.6312C67.4249 67.5834 72.236 71.7062 76.9686 69.9628L121.006 53.7412C125.739 51.9978 126.736 45.7356 122.778 42.6052L87.5426 14.7327C83.7614 11.7418 78.1596 13.8053 77.215 18.5371Z" fill="#F4D240"/>
<path d="M77.215 18.5371L68.4135 62.6312C67.4249 67.5834 72.236 71.7062 76.9686 69.9628L121.006 53.7412C125.739 51.9978 126.736 45.7356 122.778 42.6052L87.5426 14.7327C83.7614 11.7418 78.1596 13.8053 77.215 18.5371Z" fill="url(#paint9_linear_36_26216)"/>
<path d="M91.8433 25.2804C91.2649 23.7061 89.5359 22.8942 87.9813 23.4667L82.5294 25.4748C80.9748 26.0476 80.1831 27.7883 80.7616 29.3629L85.5325 42.3528C86.1107 43.9274 87.8399 44.7396 89.3948 44.1668L94.8486 42.1578C96.4035 41.585 97.1949 39.8441 96.6164 38.2695L91.8433 25.2804ZM89.3219 52.6698L90.5444 55.9981C91.124 57.5759 92.8567 58.3898 94.4146 57.8159L99.8592 55.8104C101.417 55.2366 102.21 53.4918 101.631 51.9137L100.407 48.5859C99.829 47.0117 98.1 46.1997 96.5455 46.7722L91.0897 48.782C89.5351 49.3546 88.7437 51.0952 89.3219 52.6698Z" fill="#FFF9E9"/>
</g>
<defs>
<radialGradient id="paint0_radial_36_26216" cx="0" cy="0" r="1" gradientUnits="userSpaceOnUse" gradientTransform="translate(170.566 113.195) scale(128.846 113.578)">
<stop offset="0.366" stop-color="#6C9ED8"/>
<stop offset="1" stop-color="white"/>
</radialGradient>
<linearGradient id="paint1_linear_36_26216" x1="164.193" y1="101.424" x2="210.558" y2="309.335" gradientUnits="userSpaceOnUse">
<stop offset="0.127" stop-color="#E9EFFF"/>
<stop offset="1" stop-color="#94ADED"/>
</linearGradient>
<linearGradient id="paint2_linear_36_26216" x1="235.617" y1="206.909" x2="318.785" y2="137.118" gradientUnits="userSpaceOnUse">
<stop stop-color="#303958"/>
<stop offset="1" stop-color="#7C93E3"/>
</linearGradient>
<linearGradient id="paint3_linear_36_26216" x1="226.31" y1="19.1623" x2="171.508" y2="179.901" gradientUnits="userSpaceOnUse">
<stop stop-color="white"/>
<stop offset="0.781" stop-color="#FFF9E9" stop-opacity="0"/>
</linearGradient>
<linearGradient id="paint4_linear_36_26216" x1="131.685" y1="23.0414" x2="74.7049" y2="182.865" gradientUnits="userSpaceOnUse">
<stop offset="0.044" stop-color="white"/>
<stop offset="0.779" stop-color="#E6EFE8" stop-opacity="0"/>
</linearGradient>
<linearGradient id="paint5_linear_36_26216" x1="72.8867" y1="125.863" x2="91.3288" y2="125.863" gradientUnits="userSpaceOnUse">
<stop stop-color="#FF593B" stop-opacity="0"/>
<stop offset="1" stop-color="#313259"/>
</linearGradient>
<linearGradient id="paint6_linear_36_26216" x1="127.134" y1="125.863" x2="119.67" y2="125.863" gradientUnits="userSpaceOnUse">
<stop stop-color="#FF593B" stop-opacity="0"/>
<stop offset="1" stop-color="#313259"/>
</linearGradient>
<linearGradient id="paint7_linear_36_26216" x1="226.82" y1="125.863" x2="245.262" y2="125.863" gradientUnits="userSpaceOnUse">
<stop stop-color="#FF593B" stop-opacity="0"/>
<stop offset="1" stop-color="#313259"/>
</linearGradient>
<linearGradient id="paint8_linear_36_26216" x1="281.068" y1="125.863" x2="273.604" y2="125.863" gradientUnits="userSpaceOnUse">
<stop stop-color="#FF593B" stop-opacity="0"/>
<stop offset="1" stop-color="#313259"/>
</linearGradient>
<linearGradient id="paint9_linear_36_26216" x1="136.079" y1="50.549" x2="62.0809" y2="39.284" gradientUnits="userSpaceOnUse">
<stop stop-color="#FF593B"/>
<stop offset="1" stop-color="#F4D240" stop-opacity="0"/>
</linearGradient>
<clipPath id="clip0_36_26216">
<rect width="254.433" height="226.433" fill="white" transform="translate(43.3496)"/>
</clipPath>
<clipPath id="clip1_36_26216">
<rect width="256.417" height="139.605" fill="white" transform="translate(38.8164 41.9941)"/>
</clipPath>
<clipPath id="clip2_36_26216">
<rect width="68" height="61.8575" fill="white" transform="translate(252.732 132.512)"/>
</clipPath>
<clipPath id="clip3_36_26216">
<rect width="195.783" height="145.564" fill="white" transform="translate(43.3496 41.9941)"/>
</clipPath>
<clipPath id="clip4_36_26216">
<rect width="227.8" height="70.9375" fill="white" transform="translate(53.2676 78.0312)"/>
</clipPath>
<clipPath id="clip5_36_26216">
<rect width="56.95" height="57.0337" fill="white" transform="translate(68.2832 13.3359)"/>
</clipPath>
</defs>
</svg>
