<svg width="159" height="158" viewBox="0 0 159 158" fill="none" xmlns="http://www.w3.org/2000/svg">
<path d="M80.1476 154.991C122.126 154.991 156.157 120.938 156.157 78.932C156.157 36.9258 122.126 2.87305 80.1476 2.87305C38.169 2.87305 4.13867 36.9258 4.13867 78.932C4.13867 120.938 38.169 154.991 80.1476 154.991Z" fill="url(#paint0_linear_36_26260)"/>
<path d="M110.13 105.383C96.3157 105.416 91.431 102.297 86.3204 88.831C84.7786 84.7696 81.9784 77.3913 81.9784 77.3913L85.3387 77.0321L90.6796 62.231C90.6796 62.231 82.7385 59.7621 74.0816 63.0521C65.4248 66.3421 60.5195 73.6934 60.5195 73.6934L70.8781 80.5958L77.8787 79.1428C77.8787 79.1428 80.3989 85.9164 82.1601 90.5577C87.0945 103.56 85.5711 109.694 75.5607 118.296C75.3455 118.476 73.194 120.978 73.194 120.978L85.063 127.854L110.469 119.744L114.348 105.627C114.348 105.627 117.171 105.057 110.128 105.384L110.13 105.383Z" fill="#8777FF"/>
<path d="M78.8327 132.544C77.8121 132.544 76.7872 132.186 75.9612 131.458C57.2344 114.951 60.9936 94.6259 67.1713 82.9071C58.7404 78.9907 43.4766 68.4673 42.1932 43.3148C42.0711 40.9152 43.9155 38.8716 46.3125 38.7493C48.717 38.6336 50.7528 40.4727 50.875 42.8713C52.3021 70.8582 73.7113 76.2535 74.6216 76.4699C76.0412 76.8064 77.2088 77.8363 77.7105 79.207C78.2132 80.5778 78.0056 82.1119 77.1407 83.2868C76.4672 84.2129 60.7114 106.424 81.7075 124.931C83.5098 126.52 83.6828 129.267 82.0957 131.07C81.2372 132.046 80.0372 132.544 78.8327 132.544Z" fill="#FFF9E9"/>
<path d="M113.75 119.276C113.529 119.276 113.304 119.259 113.078 119.225C110.706 118.856 109.081 116.632 109.45 114.259C113.797 86.2393 86.4554 80.461 85.2888 80.2295C83.8963 79.9525 82.7211 79.0102 82.1502 77.7098C81.5805 76.4083 81.6745 74.9099 82.414 73.6971C82.906 72.8771 94.4593 53.0312 78.0526 32.5438C76.5509 30.6689 76.8536 27.9317 78.7262 26.4301C80.5988 24.9285 83.3352 25.2292 84.8358 27.1041C99.7213 45.6907 95.5458 64.3746 92.2007 73.1162C105.035 77.5486 121.983 90.1816 118.039 115.595C117.706 117.741 115.857 119.276 113.75 119.276Z" fill="#FFF9E9"/>
<path d="M35.5343 51.6235C33.7807 51.6235 32.1297 50.5546 31.4702 48.8171C30.6172 46.5712 31.7459 44.0601 33.9904 43.2065L90.9039 21.5777C93.1495 20.7241 95.6578 21.8547 96.5108 24.0996C97.3638 26.3455 96.2351 28.8566 93.9906 29.7102L37.0771 51.339C36.569 51.5315 36.0468 51.6235 35.5343 51.6235Z" fill="#FFF9E9"/>
<path d="M67.7003 136.777C65.9478 136.777 64.2958 135.708 63.6363 133.97C62.7832 131.724 63.912 129.213 66.1564 128.359L123.335 106.629C125.58 105.779 128.089 106.906 128.942 109.151C129.795 111.397 128.666 113.908 126.421 114.763L69.2432 136.492C68.735 136.685 68.2139 136.777 67.7003 136.777Z" fill="#FFF9E9"/>
<defs>
<linearGradient id="paint0_linear_36_26260" x1="216.795" y1="68.6087" x2="-45.9522" y2="91.9281" gradientUnits="userSpaceOnUse">
<stop offset="0.08" stop-color="#94ADED"/>
<stop offset="0.958333" stop-color="white"/>
</linearGradient>
</defs>
</svg>
