<svg width="227" height="160" viewBox="0 0 227 160" fill="none" xmlns="http://www.w3.org/2000/svg">
<g clip-path="url(#clip0_36_25462)">
<path d="M183.447 141.9H7.55305C3.65765 141.9 0.5 138.767 0.5 134.902V7.09762C0.5 3.23262 3.65765 0.0996094 7.55305 0.0996094H183.447C187.342 0.0996094 190.5 3.23262 190.5 7.09762V134.902C190.5 138.766 187.342 141.9 183.447 141.9Z" fill="url(#paint0_linear_36_25462)"/>
<path d="M12.2446 13.4434C14.1595 13.4434 15.7119 11.9227 15.7119 10.0469C15.7119 8.17105 14.1595 6.65039 12.2446 6.65039C10.3297 6.65039 8.77734 8.17105 8.77734 10.0469C8.77734 11.9227 10.3297 13.4434 12.2446 13.4434Z" fill="#FF593B"/>
<path d="M23.2466 13.4434C25.1615 13.4434 26.7139 11.9227 26.7139 10.0469C26.7139 8.17105 25.1615 6.65039 23.2466 6.65039C21.3317 6.65039 19.7793 8.17105 19.7793 10.0469C19.7793 11.9227 21.3317 13.4434 23.2466 13.4434Z" fill="#F9E79B"/>
<path d="M34.2505 13.4434C36.1654 13.4434 37.7178 11.9227 37.7178 10.0469C37.7178 8.17105 36.1654 6.65039 34.2505 6.65039C32.3356 6.65039 30.7832 8.17105 30.7832 10.0469C30.7832 11.9227 32.3356 13.4434 34.2505 13.4434Z" fill="#1C7E8E"/>
<path d="M144.199 116.641H31.7648C29.8171 116.641 28.2383 115.075 28.2383 113.142V74.2002C28.2383 72.2677 29.8171 70.7012 31.7648 70.7012H144.199C146.146 70.7012 147.725 72.2677 147.725 74.2002V113.142C147.725 115.074 146.146 116.641 144.199 116.641Z" fill="#FFF9E9"/>
<path d="M164.588 55.7461H31.3688C29.6397 55.7461 28.2383 57.1366 28.2383 58.8522C28.2383 60.5677 29.6397 61.9582 31.3688 61.9582H164.588C166.317 61.9582 167.718 60.5677 167.718 58.8522C167.718 57.1366 166.317 55.7461 164.588 55.7461Z" fill="#FFF9E9"/>
<path d="M164.588 42.9199H31.3688C29.6397 42.9199 28.2383 44.3104 28.2383 46.026C28.2383 47.7415 29.6397 49.1321 31.3688 49.1321H164.588C166.317 49.1321 167.718 47.7415 167.718 46.026C167.718 44.3108 166.317 42.9199 164.588 42.9199Z" fill="#FFF9E9"/>
<path d="M164.588 30.0957H31.3688C29.6397 30.0957 28.2383 31.4862 28.2383 33.2018C28.2383 34.9173 29.6397 36.3078 31.3688 36.3078H164.588C166.317 36.3078 167.718 34.9173 167.718 33.2018C167.718 31.4862 166.317 30.0957 164.588 30.0957Z" fill="#FFF9E9"/>
<path d="M0.5 99.161V53.2278L56.2582 0.0996094H112.348L0.5 99.161Z" fill="url(#paint1_linear_36_25462)"/>
</g>
<g clip-path="url(#clip1_36_25462)">
<path d="M143.253 127.249C163.072 127.249 179.139 111.311 179.139 91.6499C179.139 71.9891 163.072 56.0508 143.253 56.0508C123.434 56.0508 107.367 71.9891 107.367 91.6499C107.367 111.311 123.434 127.249 143.253 127.249Z" fill="#4A4A5E"/>
<path d="M140.815 129.845C160.869 129.845 177.127 113.718 177.127 93.8231C177.127 73.9285 160.869 57.8008 140.815 57.8008C120.76 57.8008 104.502 73.9285 104.502 93.8231C104.502 113.718 120.76 129.845 140.815 129.845Z" fill="#228B6B"/>
<path d="M225.599 158.256C224.133 160.153 221.395 160.512 219.482 159.058L136.711 96.114C134.799 94.6601 134.437 91.9436 135.902 90.0465C137.368 88.1498 140.106 87.7907 142.019 89.2447L224.791 152.188C226.703 153.643 227.065 156.359 225.599 158.256Z" fill="#228B6B"/>
<path d="M167.493 107.5C166.693 109.035 165.743 110.526 164.644 111.947C162.827 114.298 160.726 116.309 158.423 117.963C155.955 119.736 153.256 121.101 150.429 122.043C145.329 123.749 139.822 124.079 134.517 122.955C130.295 122.061 126.201 120.244 122.545 117.462C113.781 110.797 109.751 100.282 111.014 90.1421C111.646 85.0571 113.613 80.0649 116.981 75.6995C117.026 75.6439 117.067 75.5882 117.116 75.5326C119.012 73.1069 121.218 71.0559 123.629 69.3906C127.529 66.6831 131.978 64.9844 136.577 64.3353C144.286 63.2449 152.414 65.1105 159.084 70.1806C170.813 79.1006 174.066 94.9192 167.493 107.5Z" fill="#C7E2CD"/>
<path d="M167.493 107.501C166.693 109.036 165.743 110.527 164.644 111.948C162.827 114.299 160.726 116.309 158.422 117.963L123.629 69.3912C127.528 66.6837 131.978 64.985 136.576 64.3359L167.493 107.501Z" fill="url(#paint2_linear_36_25462)"/>
<path d="M150.428 122.043C145.329 123.749 139.821 124.08 134.516 122.956L111.014 90.1427C111.646 85.0578 113.612 80.0655 116.981 75.7001C117.026 75.6445 117.067 75.5888 117.115 75.5332L150.428 122.043Z" fill="url(#paint3_linear_36_25462)"/>
</g>
<defs>
<linearGradient id="paint0_linear_36_25462" x1="75.283" y1="15.1019" x2="143.738" y2="207.361" gradientUnits="userSpaceOnUse">
<stop offset="0.0186" stop-color="#E6E8EF"/>
<stop offset="0.5448" stop-color="#B1CBFC"/>
<stop offset="1" stop-color="#94B2ED"/>
</linearGradient>
<linearGradient id="paint1_linear_36_25462" x1="59.0317" y1="-18.9844" x2="50.1824" y2="138.367" gradientUnits="userSpaceOnUse">
<stop stop-color="#FFF9E9"/>
<stop offset="0.1598" stop-color="#F6F4E6" stop-opacity="0.7686"/>
<stop offset="0.6907" stop-color="#DBE7DE" stop-opacity="0"/>
</linearGradient>
<linearGradient id="paint2_linear_36_25462" x1="120.487" y1="57.5445" x2="164.325" y2="112.965" gradientUnits="userSpaceOnUse">
<stop stop-color="#FFF9E9"/>
<stop offset="0.9899" stop-color="#C7E2CD" stop-opacity="0"/>
</linearGradient>
<linearGradient id="paint3_linear_36_25462" x1="110.094" y1="76.6596" x2="140.607" y2="120.904" gradientUnits="userSpaceOnUse">
<stop stop-color="#FFF9E9"/>
<stop offset="1" stop-color="#C7E2CD" stop-opacity="0"/>
</linearGradient>
<clipPath id="clip0_36_25462">
<rect width="190" height="142" fill="white" transform="translate(0.5)"/>
</clipPath>
<clipPath id="clip1_36_25462">
<rect width="122" height="104" fill="white" transform="translate(104.5 56)"/>
</clipPath>
</defs>
</svg>
