<svg width="152" height="60" viewBox="0 0 152 60" fill="none" xmlns="http://www.w3.org/2000/svg">
<path d="M11.7085 23.0234H33.448L11.7085 44.7629H31.2472" stroke="white" stroke-width="2.68389"/>
<path d="M11.9769 16.6895H46.0623L21.7462 41.0055" stroke="white" stroke-width="2.68389"/>
<mask id="path-3-inside-1_851_2502" fill="white">
<path d="M50.8895 31.5087C51.3205 29.3634 51.2204 27.1452 50.5978 25.0474C49.9753 22.9496 48.8491 21.0359 47.3176 19.473L43.7867 22.9331C44.754 23.9202 45.4653 25.1289 45.8585 26.4539C46.2517 27.7789 46.3149 29.1799 46.0427 30.5349L50.8895 31.5087Z"/>
</mask>
<path d="M50.8895 31.5087C51.3205 29.3634 51.2204 27.1452 50.5978 25.0474C49.9753 22.9496 48.8491 21.0359 47.3176 19.473L43.7867 22.9331C44.754 23.9202 45.4653 25.1289 45.8585 26.4539C46.2517 27.7789 46.3149 29.1799 46.0427 30.5349L50.8895 31.5087Z" stroke="white" stroke-width="10.7356" mask="url(#path-3-inside-1_851_2502)"/>
<mask id="path-4-inside-2_851_2502" fill="white">
<path d="M27.825 38.7771C29.2588 40.3359 31.0412 41.5332 33.0264 42.2711C35.0116 43.0089 37.1432 43.2665 39.2471 43.0226C41.3509 42.7787 43.3671 42.0403 45.1308 40.8678C46.8946 39.6953 48.3558 38.122 49.3949 36.2765L44.8996 33.7453C44.2599 34.8813 43.3605 35.8498 42.2748 36.5715C41.1891 37.2933 39.948 37.7478 38.653 37.8979C37.3579 38.0481 36.0458 37.8895 34.8238 37.4353C33.6017 36.9811 32.5046 36.2441 31.622 35.2846L27.825 38.7771Z"/>
</mask>
<path d="M27.825 38.7771C29.2588 40.3359 31.0412 41.5332 33.0264 42.2711C35.0116 43.0089 37.1432 43.2665 39.2471 43.0226C41.3509 42.7787 43.3671 42.0403 45.1308 40.8678C46.8946 39.6953 48.3558 38.122 49.3949 36.2765L44.8996 33.7453C44.2599 34.8813 43.3605 35.8498 42.2748 36.5715C41.1891 37.2933 39.948 37.7478 38.653 37.8979C37.3579 38.0481 36.0458 37.8895 34.8238 37.4353C33.6017 36.9811 32.5046 36.2441 31.622 35.2846L27.825 38.7771Z" stroke="white" stroke-width="10.7356" mask="url(#path-4-inside-2_851_2502)"/>
<path d="M59.7447 21.3187H64.3671V23.6117L60.1526 26.512H64.3671V27.6631H59.7447V25.37L63.9592 22.4697H59.7447V21.3187ZM66.609 27.6631H65.3129V21.3187H66.609V23.9199H69.5455V21.3187H70.8416V27.6631H69.5455V25.0619H66.609V27.6631ZM76.0419 27.6631H71.8184V21.3187H76.0419V22.4697H73.1144V23.9199H75.9513V25.0619H73.1144V26.512H76.0419V27.6631ZM80.4696 25.2794L82.0467 27.6631H80.5059L79.0195 25.4063H78.2038V27.6631H76.9077V21.3187H79.6358C80.3065 21.3187 80.8473 21.512 81.2582 21.8987C81.669 22.2794 81.8745 22.7658 81.8745 23.3579C81.8745 23.8111 81.7476 24.2099 81.4938 24.5543C81.2461 24.8987 80.9047 25.1404 80.4696 25.2794ZM79.6358 22.4697H78.2038V24.219H79.6358C79.9077 24.219 80.1252 24.1374 80.2884 23.9743C80.4576 23.8111 80.5422 23.6027 80.5422 23.3489C80.5422 23.0951 80.4576 22.8867 80.2884 22.7235C80.1252 22.5543 79.9077 22.4697 79.6358 22.4697ZM62.5182 36.2915L64.3218 30.3187H65.636L63.6058 36.6631H61.349L59.3278 30.3187H60.7055L62.5182 36.2915ZM70.3861 36.6631H66.1626V30.3187H70.3861V31.4697H67.4586V32.9199H70.2955V34.0619H67.4586V35.512H70.3861V36.6631ZM75.6296 36.3821V30.3187H76.9256V36.6631H74.406L72.548 30.5996V36.6631H71.2519V30.3187H73.7625L75.6296 36.3821ZM80.7447 36.6631H79.4487V31.4697H77.5091V30.3187H82.6934V31.4697H80.7447V36.6631ZM83.181 34.1706V30.3187H84.477V34.1706C84.477 34.5815 84.61 34.9169 84.8758 35.1767C85.1417 35.4365 85.4921 35.5664 85.9272 35.5664C86.3683 35.5664 86.7187 35.4365 86.9785 35.1767C87.2444 34.9169 87.3773 34.5815 87.3773 34.1706V30.3187H88.6734V34.1706C88.6734 34.9259 88.4166 35.5453 87.903 36.0286C87.3894 36.512 86.7308 36.7537 85.9272 36.7537C85.1236 36.7537 84.465 36.512 83.9514 36.0286C83.4378 35.5453 83.181 34.9259 83.181 34.1706ZM93.1266 34.2794L94.7036 36.6631H93.1629L91.6765 34.4063H90.8607V36.6631H89.5647V30.3187H92.2928C92.9635 30.3187 93.5043 30.512 93.9151 30.8987C94.326 31.2794 94.5314 31.7658 94.5314 32.3579C94.5314 32.8111 94.4046 33.2099 94.1508 33.5543C93.903 33.8987 93.5617 34.1404 93.1266 34.2794ZM92.2928 31.4697H90.8607V33.219H92.2928C92.5647 33.219 92.7822 33.1374 92.9453 32.9743C93.1145 32.8111 93.1991 32.6027 93.1991 32.3489C93.1991 32.0951 93.1145 31.8867 92.9453 31.7235C92.7822 31.5543 92.5647 31.4697 92.2928 31.4697ZM99.6299 36.6631H95.4063V30.3187H99.6299V31.4697H96.7024V32.9199H99.5393V34.0619H96.7024V35.512H99.6299V36.6631ZM103.992 35.8111C103.352 35.1827 103.032 34.4093 103.032 33.4909C103.032 32.5725 103.352 31.799 103.992 31.1706C104.633 30.5422 105.424 30.228 106.367 30.228C107.062 30.228 107.672 30.4063 108.198 30.7628C108.724 31.1193 109.101 31.5543 109.331 32.0679L108.134 32.5302C107.977 32.2039 107.742 31.938 107.427 31.7326C107.119 31.5211 106.766 31.4154 106.367 31.4154C105.805 31.4154 105.331 31.6147 104.944 32.0135C104.563 32.4123 104.373 32.9048 104.373 33.4909C104.373 34.077 104.563 34.5694 104.944 34.9682C105.331 35.367 105.805 35.5664 106.367 35.5664C106.766 35.5664 107.119 35.4637 107.427 35.2583C107.742 35.0468 107.977 34.7779 108.134 34.4516L109.331 34.9138C109.101 35.4274 108.724 35.8625 108.198 36.219C107.672 36.5755 107.062 36.7537 106.367 36.7537C105.424 36.7537 104.633 36.4395 103.992 35.8111ZM115.775 36.6631H114.388L113.935 35.2854H110.953L110.509 36.6631H109.194L111.333 30.3187H113.636L115.775 36.6631ZM112.448 30.6993L111.324 34.1344H113.563L112.448 30.6993ZM117.6 36.6631H116.304V30.3187H118.986C119.681 30.3187 120.243 30.5181 120.672 30.9169C121.101 31.3157 121.316 31.8232 121.316 32.4395C121.316 33.0558 121.101 33.5604 120.672 33.9531C120.249 34.3398 119.687 34.5332 118.986 34.5332H117.6V36.6631ZM117.6 31.4697V33.3821H118.986C119.282 33.3821 119.521 33.2945 119.702 33.1193C119.884 32.938 119.974 32.7084 119.974 32.4305C119.974 32.1525 119.884 31.9229 119.702 31.7416C119.521 31.5604 119.282 31.4697 118.986 31.4697H117.6ZM123.211 36.6631H121.915V30.3187H123.211V36.6631ZM127.027 36.6631H125.731V31.4697H123.791V30.3187H128.975V31.4697H127.027V36.6631ZM134.919 36.6631H133.533L133.079 35.2854H130.098L129.653 36.6631H128.339L130.478 30.3187H132.78L134.919 36.6631ZM131.593 30.6993L130.469 34.1344H132.708L131.593 30.6993ZM139.672 36.6631H135.448V30.3187H136.744V35.512H139.672V36.6631Z" fill="white"/>
</svg>
