<svg width="151" height="60" viewBox="0 0 151 60" fill="none" xmlns="http://www.w3.org/2000/svg">
<path d="M10.8762 22.8604H32.6157L10.8762 44.5999H30.4149" stroke="#36CE9F" stroke-width="2.68389"/>
<path d="M11.1445 16.5264H45.2299L20.9139 40.8424" stroke="#36CE9F" stroke-width="2.68389"/>
<mask id="path-3-inside-1_851_4280" fill="white">
<path d="M50.0571 31.3456C50.4882 29.2003 50.388 26.9821 49.7655 24.8843C49.1429 22.7865 48.0168 20.8728 46.4853 19.3099L42.9543 22.77C43.9217 23.7571 44.6329 24.9658 45.0261 26.2908C45.4194 27.6158 45.4826 29.0168 45.2104 30.3718L50.0571 31.3456Z"/>
</mask>
<path d="M50.0571 31.3456C50.4882 29.2003 50.388 26.9821 49.7655 24.8843C49.1429 22.7865 48.0168 20.8728 46.4853 19.3099L42.9543 22.77C43.9217 23.7571 44.6329 24.9658 45.0261 26.2908C45.4194 27.6158 45.4826 29.0168 45.2104 30.3718L50.0571 31.3456Z" stroke="#36CE9F" stroke-width="10.7356" mask="url(#path-3-inside-1_851_4280)"/>
<mask id="path-4-inside-2_851_4280" fill="white">
<path d="M26.9927 38.614C28.4265 40.1728 30.2088 41.3701 32.194 42.108C34.1792 42.8459 36.3109 43.1034 38.4147 42.8595C40.5185 42.6156 42.5348 41.8772 44.2985 40.7047C46.0622 39.5322 47.5234 37.9589 48.5626 36.1135L44.0672 33.5823C43.4276 34.7182 42.5281 35.6867 41.4425 36.4085C40.3568 37.1302 39.1157 37.5847 37.8206 37.7348C36.5256 37.885 35.2134 37.7265 33.9914 37.2722C32.7694 36.818 31.6722 36.081 30.7897 35.1215L26.9927 38.614Z"/>
</mask>
<path d="M26.9927 38.614C28.4265 40.1728 30.2088 41.3701 32.194 42.108C34.1792 42.8459 36.3109 43.1034 38.4147 42.8595C40.5185 42.6156 42.5348 41.8772 44.2985 40.7047C46.0622 39.5322 47.5234 37.9589 48.5626 36.1135L44.0672 33.5823C43.4276 34.7182 42.5281 35.6867 41.4425 36.4085C40.3568 37.1302 39.1157 37.5847 37.8206 37.7348C36.5256 37.885 35.2134 37.7265 33.9914 37.2722C32.7694 36.818 31.6722 36.081 30.7897 35.1215L26.9927 38.614Z" stroke="#36CE9F" stroke-width="10.7356" mask="url(#path-4-inside-2_851_4280)"/>
<path d="M58.9124 21.1556H63.5348V23.4486L59.3203 26.3489H63.5348V27.5H58.9124V25.2069L63.1269 22.3066H58.9124V21.1556ZM65.7766 27.5H64.4805V21.1556H65.7766V23.7568H68.7132V21.1556H70.0092V27.5H68.7132V24.8988H65.7766V27.5ZM75.2096 27.5H70.986V21.1556H75.2096V22.3066H72.2821V23.7568H75.119V24.8988H72.2821V26.3489H75.2096V27.5ZM79.6373 25.1163L81.2144 27.5H79.6736L78.1872 25.2432H77.3714V27.5H76.0754V21.1556H78.8035C79.4742 21.1556 80.015 21.3489 80.4258 21.7356C80.8367 22.1163 81.0421 22.6027 81.0421 23.1949C81.0421 23.648 80.9153 24.0468 80.6615 24.3912C80.4137 24.7356 80.0724 24.9773 79.6373 25.1163ZM78.8035 22.3066H77.3714V24.0559H78.8035C79.0754 24.0559 79.2929 23.9743 79.456 23.8112C79.6252 23.648 79.7098 23.4396 79.7098 23.1858C79.7098 22.932 79.6252 22.7236 79.456 22.5604C79.2929 22.3912 79.0754 22.3066 78.8035 22.3066ZM61.6858 36.1284L63.4894 30.1556H64.8036L62.7734 36.5H60.5166L58.4955 30.1556H59.8731L61.6858 36.1284ZM69.5538 36.5H65.3302V30.1556H69.5538V31.3066H66.6263V32.7568H69.4632V33.8988H66.6263V35.3489H69.5538V36.5ZM74.7972 36.219V30.1556H76.0933V36.5H73.5737L71.7156 30.4366V36.5H70.4196V30.1556H72.9302L74.7972 36.219ZM79.9124 36.5H78.6163V31.3066H76.6768V30.1556H81.861V31.3066H79.9124V36.5ZM82.3486 34.0076V30.1556H83.6447V34.0076C83.6447 34.4184 83.7776 34.7538 84.0435 35.0136C84.3094 35.2734 84.6598 35.4033 85.0948 35.4033C85.5359 35.4033 85.8864 35.2734 86.1462 35.0136C86.4121 34.7538 86.545 34.4184 86.545 34.0076V30.1556H87.8411V34.0076C87.8411 34.7628 87.5843 35.3822 87.0707 35.8656C86.5571 36.3489 85.8985 36.5906 85.0948 36.5906C84.2912 36.5906 83.6326 36.3489 83.119 35.8656C82.6054 35.3822 82.3486 34.7628 82.3486 34.0076ZM92.2943 34.1163L93.8713 36.5H92.3305L90.8441 34.2432H90.0284V36.5H88.7323V30.1556H91.4604C92.1311 30.1556 92.6719 30.3489 93.0828 30.7356C93.4937 31.1163 93.6991 31.6027 93.6991 32.1949C93.6991 32.648 93.5722 33.0468 93.3184 33.3912C93.0707 33.7356 92.7293 33.9773 92.2943 34.1163ZM91.4604 31.3066H90.0284V33.0559H91.4604C91.7323 33.0559 91.9499 32.9743 92.113 32.8112C92.2822 32.648 92.3668 32.4396 92.3668 32.1858C92.3668 31.932 92.2822 31.7236 92.113 31.5604C91.9499 31.3912 91.7323 31.3066 91.4604 31.3066ZM98.7976 36.5H94.574V30.1556H98.7976V31.3066H95.8701V32.7568H98.7069V33.8988H95.8701V35.3489H98.7976V36.5ZM103.16 35.648C102.52 35.0196 102.199 34.2462 102.199 33.3278C102.199 32.4094 102.52 31.636 103.16 31.0076C103.801 30.3792 104.592 30.065 105.535 30.065C106.23 30.065 106.84 30.2432 107.366 30.5997C107.891 30.9562 108.269 31.3912 108.498 31.9048L107.302 32.3671C107.145 32.0408 106.909 31.7749 106.595 31.5695C106.287 31.358 105.933 31.2523 105.535 31.2523C104.973 31.2523 104.498 31.4517 104.112 31.8505C103.731 32.2492 103.541 32.7417 103.541 33.3278C103.541 33.9139 103.731 34.4063 104.112 34.8051C104.498 35.2039 104.973 35.4033 105.535 35.4033C105.933 35.4033 106.287 35.3006 106.595 35.0952C106.909 34.8837 107.145 34.6148 107.302 34.2885L108.498 34.7508C108.269 35.2644 107.891 35.6994 107.366 36.0559C106.84 36.4124 106.23 36.5906 105.535 36.5906C104.592 36.5906 103.801 36.2764 103.16 35.648ZM114.942 36.5H113.555L113.102 35.1224H110.12L109.676 36.5H108.362L110.501 30.1556H112.803L114.942 36.5ZM111.616 30.5363L110.492 33.9713H112.731L111.616 30.5363ZM116.767 36.5H115.471V30.1556H118.154C118.849 30.1556 119.411 30.355 119.84 30.7538C120.269 31.1526 120.483 31.6601 120.483 32.2764C120.483 32.8927 120.269 33.3973 119.84 33.79C119.417 34.1767 118.855 34.3701 118.154 34.3701H116.767V36.5ZM116.767 31.3066V33.219H118.154C118.45 33.219 118.689 33.1314 118.87 32.9562C119.051 32.7749 119.142 32.5453 119.142 32.2674C119.142 31.9894 119.051 31.7598 118.87 31.5785C118.689 31.3973 118.45 31.3066 118.154 31.3066H116.767ZM122.379 36.5H121.083V30.1556H122.379V36.5ZM126.194 36.5H124.898V31.3066H122.959V30.1556H128.143V31.3066H126.194V36.5ZM134.087 36.5H132.7L132.247 35.1224H129.265L128.821 36.5H127.507L129.646 30.1556H131.948L134.087 36.5ZM130.761 30.5363L129.637 33.9713H131.875L130.761 30.5363ZM138.84 36.5H134.616V30.1556H135.912V35.3489H138.84V36.5Z" fill="#36CE9F"/>
</svg>
